<svg id="레이어_1" data-name="레이어 1" xmlns="http://www.w3.org/2000/svg" viewBox="0 0 200 200"><defs><style>.cls-1{fill:#1f4787;}</style></defs><title>무제-3</title><path id="path12" class="cls-1" d="M132,114.9c-4.19-1.1-6.08-3.44-6.1-7.56,0-3.59,1.46-5.68,4.86-6.92,1-.36,2.29-.49,5.84-.57l4.55-.11-.07-1.43c-.11-2.06-.74-2.47-3.95-2.58s-4.12.08-5,1l-.69.74L129,96.73a22.21,22.21,0,0,1-2.63-.89c-.3-.3.83-2.25,1.86-3.2,2.41-2.22,7.47-3.06,12.29-2a8.45,8.45,0,0,1,4.67,2.62c1.58,1.79,1.73,2.67,1.73,9.87,0,6,0,6.33-.59,7.56-1.07,2.33-2.83,3.6-6,4.35A20.73,20.73,0,0,1,132,114.9Zm8-5.46c1-.52,1.12-.83,1.12-3v-1.79l-4,.08c-3.54.07-4,.14-4.68.62a1.81,1.81,0,0,0-.8,1.51c-.16,1.89.27,2.49,2.13,3a15.88,15.88,0,0,0,6.18-.37Zm17.77,5.79a9.48,9.48,0,0,1-5.26-2.49c-2.17-2.17-2.17-2.19-2.17-17.11,0-11.34,0-12.71.41-12.85.75-.29,4.85-.17,5.17.15s.31,1.5.31,4.13c0,3.5,0,3.8.44,3.65a19,19,0,0,1,6.33-.42c4.06.46,6.65,2,7.86,4.7.59,1.29.61,1.56.61,7.61,0,5.33-.07,6.47-.45,7.57-.9,2.56-3,4.16-6.27,4.86A27.8,27.8,0,0,1,157.8,115.23Zm6.82-5.79a2.33,2.33,0,0,0,1-.83c.09-.23.16-2.89.16-5.91,0-5.46,0-5.5-.61-6.11-.79-.79-1.85-1-4.86-.86-2,.07-2.57.19-3.16.63l-.72.54-.07,5.91-.07,5.92.65.43c1,.67,2.13.86,4.61.77a8.84,8.84,0,0,0,3.11-.49ZM26.5,114.51c-.16-.44,7.9-27.11,8.64-28.59a5.94,5.94,0,0,1,5.49-3.09A5.65,5.65,0,0,1,46,85.77c.77,1.36,9,28.22,8.78,28.74-.12.31-.68.39-2.84.39s-2.72-.07-2.91-.45-.73-2.27-1.36-4.48l-1.12-4H34.74l-1.13,4c-.62,2.21-1.23,4.23-1.36,4.48s-.61.45-2.91.45S26.62,114.82,26.5,114.51ZM43.29,94.78c-1-3.32-1.82-6.14-1.9-6.28a1.32,1.32,0,0,0-1.55,0c-.1.16-1,3-1.91,6.28l-1.73,6H45Zm13.77,20c-.09-.1-.17-7.29-.17-16,0-14.18,0-15.83.4-16,.76-.29,4.86-.17,5.18.15s.31,1.5.31,4.12A15.66,15.66,0,0,0,63,90.72c.61-.38,4.7-.64,6.58-.43q5.72.66,7.64,4.23c.54,1,.55,1.27.55,10.64v9.61H72.38l-.12-8.84c-.07-4.86-.23-9-.35-9.18-1-1.47-8-1.44-8.92,0-.11.17-.2,4.13-.21,8.8s-.07,8.68-.16,8.9-.62.41-2.77.41A13.22,13.22,0,0,1,57.06,114.73Zm24.69-.2c-.24-.29-.29-2.51-.23-9.29.09-8.71.1-8.94.69-10.25a7.69,7.69,0,0,1,4.28-3.9,18.39,18.39,0,0,1,7.75-.8c4.14.52,6.41,1.8,7.63,4.29l.74,1.49v18.7H97l-.13-8.94-.12-8.93L96,96.36c-.6-.45-1.16-.56-3.31-.63-2.72-.1-4.25.18-4.83.89-.28.34-.38,2.31-.48,9.29l-.13,8.86-2.59.07c-2,.06-2.65,0-2.9-.31Zm31.48,0a7.83,7.83,0,0,1-6-4.75c-.57-1.41-.58-1.55-.58-14.23V82.75h5.38l.13,12.17c.14,13.21.14,13.24,1.57,14,.53.27,1.8.36,5,.37a28.66,28.66,0,0,1,4.63.21c.25.15.31.89.26,2.75l-.07,2.54-4.49,0A34.61,34.61,0,0,1,113.23,114.54Z"/></svg>