<?xml version="1.0" encoding="iso-8859-1"?>
<!-- Generator: Adobe Illustrator 22.0.1, SVG Export Plug-In . SVG Version: 6.00 Build 0)  -->
<svg version="1.1"
	 id="svg2" inkscape:version="0.48+devel r10785" sodipodi:docname="AhnLab.svg" xmlns:cc="http://creativecommons.org/ns#" xmlns:dc="http://purl.org/dc/elements/1.1/" xmlns:inkscape="http://www.inkscape.org/namespaces/inkscape" xmlns:rdf="http://www.w3.org/1999/02/22-rdf-syntax-ns#" xmlns:sodipodi="http://sodipodi.sourceforge.net/DTD/sodipodi-0.dtd" xmlns:svg="http://www.w3.org/2000/svg"
	 xmlns="http://www.w3.org/2000/svg" xmlns:xlink="http://www.w3.org/1999/xlink" x="0px" y="0px" viewBox="0 0 600 150"
	 style="enable-background:new 0 0 600 150;" xml:space="preserve">
<sodipodi:namedview  bordercolor="#666666" borderopacity="1" gridtolerance="10" guidetolerance="10" id="namedview4" inkscape:current-layer="svg2" inkscape:cx="300" inkscape:cy="75" inkscape:guide-bbox="true" inkscape:pageopacity="0" inkscape:pageshadow="2" inkscape:window-height="1028" inkscape:window-maximized="1" inkscape:window-width="1920" inkscape:window-x="-8" inkscape:window-y="-8" inkscape:zoom="0.735" objecttolerance="10" pagecolor="#ffffff" showgrid="false" showguides="true">
	</sodipodi:namedview>
<path id="path12" inkscape:connector-curvature="0" style="fill:#1F4787;" d="M429.336,136.012
	c-16.329-4.28-23.714-13.442-23.79-29.512c-0.066-14.004,5.675-22.183,18.953-27.005c3.895-1.415,8.933-1.912,22.797-2.253
	l17.797-0.438l-0.297-5.55c-0.43-8.044-2.87-9.641-15.435-10.103c-12.247-0.45-16.065,0.319-19.421,3.911l-2.716,2.908l-9.71-2.915
	c-5.34-1.603-9.961-3.167-10.269-3.475c-1.173-1.173,3.252-8.785,7.246-12.467c9.43-8.692,29.173-11.945,48.007-7.911
	c7.425,1.591,13.755,5.144,18.241,10.24C486.896,58.435,487.5,61.882,487.5,90c0,23.463-0.098,24.712-2.304,29.5
	c-4.193,9.102-11.048,14.074-23.427,16.992C453.056,138.547,438.164,138.326,429.336,136.012z M460.634,114.689
	c3.926-2.03,4.366-3.223,4.366-11.841v-6.989l-15.431,0.32c-13.822,0.287-15.724,0.539-18.25,2.42
	c-2.069,1.541-2.904,3.112-3.139,5.905c-0.621,7.395,1.044,9.722,8.32,11.63C441.465,117.436,457.137,116.498,460.634,114.689
	L460.634,114.689z M530,137.31c-8.492-1.42-15.609-4.789-20.524-9.714c-8.467-8.485-8.476-8.56-8.476-66.804
	c0-44.286,0.169-49.642,1.582-50.184c2.948-1.131,18.964-0.662,20.218,0.593c0.826,0.826,1.2,5.846,1.2,16.107
	c0,13.679,0.141,14.853,1.718,14.248c4.307-1.653,17.056-2.488,24.703-1.62c15.867,1.803,25.966,7.832,30.716,18.338
	c2.278,5.038,2.363,6.113,2.363,29.727c0,20.8-0.265,25.26-1.758,29.532c-3.497,10.011-11.544,16.26-24.462,18.997
	C551.013,137.857,535.865,138.29,530,137.31z M556.634,114.689c1.718-0.888,3.403-2.344,3.745-3.234
	c0.342-0.89,0.621-11.277,0.621-23.082c0-21.293-0.019-21.483-2.388-23.852c-3.063-3.063-7.222-3.801-18.974-3.37
	c-7.745,0.285-10.016,0.737-12.317,2.456l-2.821,2.107l-0.268,23.108l-0.268,23.108l2.543,1.666
	c4.009,2.627,8.311,3.348,17.999,3.016C550.302,116.414,554.624,115.729,556.634,114.689L556.634,114.689z M17.352,134.476
	c-0.648-1.689,30.835-105.839,33.735-111.6c3.807-7.563,11.895-12.132,21.412-12.097c9.665,0.036,16.458,3.783,20.857,11.505
	c3.027,5.314,35.064,110.176,34.283,112.212c-0.463,1.207-2.652,1.504-11.073,1.504c-8.994,0-10.622-0.251-11.378-1.75
	c-0.485-0.962-2.864-8.837-5.285-17.498L95.5,101.003h-23h-23l-4.403,15.748c-2.422,8.662-4.8,16.536-5.285,17.498
	c-0.756,1.499-2.385,1.75-11.378,1.75C19.952,136,17.825,135.707,17.352,134.476z M82.903,57.454
	c-3.763-12.95-7.107-23.975-7.432-24.5c-0.812-1.314-5.2-1.203-6.038,0.154c-0.376,0.609-3.726,11.634-7.444,24.5L55.23,81h17.258
	h17.258L82.903,57.454z M136.667,135.333C136.3,134.967,136,106.89,136,72.94c0-55.364,0.163-61.789,1.582-62.333
	c2.948-1.131,18.964-0.662,20.218,0.593c0.826,0.826,1.2,5.835,1.2,16.059c0,8.172,0.371,14.63,0.824,14.35
	c2.386-1.475,18.361-2.512,25.704-1.669c14.862,1.707,24.835,7.227,29.795,16.492c2.126,3.971,2.178,4.961,2.178,41.568v37.5H207
	h-10.5L196,101c-0.275-18.975-0.892-35.108-1.372-35.852c-3.706-5.745-31.158-5.634-34.828,0.141
	c-0.423,0.666-0.777,16.137-0.785,34.379c-0.008,18.243-0.288,33.88-0.622,34.75c-0.499,1.3-2.431,1.582-10.833,1.582
	C141.935,136,137.033,135.7,136.667,135.333z M233.071,134.585c-0.936-1.127-1.148-9.801-0.89-36.283
	c0.332-34.032,0.392-34.917,2.693-40.029c3.04-6.753,9.276-12.437,16.684-15.209c8.1-3.03,20.749-4.341,30.278-3.137
	c16.175,2.044,25.028,7.02,29.808,16.755L314.5,62.5V99v36.5h-11h-11l-0.5-34.893l-0.5-34.893l-2.82-2.107
	c-2.337-1.746-4.555-2.167-12.945-2.457c-10.626-0.367-16.565,0.737-18.866,3.507c-1.077,1.297-1.475,9.009-1.869,36.245
	l-0.5,34.598l-10.1,0.283C236.442,136.007,234.039,135.752,233.071,134.585L233.071,134.585z M356,134.628
	c-11.424-2.548-19.315-8.853-23.253-18.579c-2.225-5.496-2.247-6.032-2.247-55.549v-50H341h10.5L352,58
	c0.543,51.565,0.556,51.685,6.145,54.575c2.06,1.065,6.996,1.429,19.555,1.44c9.24,0.008,17.379,0.383,18.088,0.833
	c0.943,0.598,1.211,3.474,1,10.735L396.5,135.5l-17.5,0.177C368.169,135.787,359.404,135.387,356,134.628z"/>
</svg>
