<?xml version="1.0" encoding="iso-8859-1"?>
<!-- Generator: Adobe Illustrator 22.0.1, SVG Export Plug-In . SVG Version: 6.00 Build 0)  -->
<svg version="1.1" id="&#xB808;&#xC774;&#xC5B4;_1" xmlns="http://www.w3.org/2000/svg" xmlns:xlink="http://www.w3.org/1999/xlink"
	 x="0px" y="0px" viewBox="0 0 200 200" style="enable-background:new 0 0 200 200;" xml:space="preserve">
<g style="display:none;">
	<path style="display:inline;fill:#C23A32;" d="M44.518,94.358c1.016,0.433,1.851,1.096,2.503,1.986
		c0.554,0.756,0.893,1.533,1.016,2.331c0.124,0.799,0.186,2.102,0.186,3.909v11.886h-5.399v-12.315c0-1.09-0.185-1.97-0.553-2.638
		c-0.479-0.941-1.388-1.412-2.726-1.412c-1.388,0-2.44,0.468-3.159,1.402c-0.719,0.936-1.077,2.27-1.077,4.003v10.96H30.02V87.214
		h5.288v9.648c0.764-1.175,1.647-1.995,2.65-2.458c1.004-0.465,2.061-0.696,3.169-0.696C42.371,93.708,43.501,93.925,44.518,94.358z
		"/>
	<path style="display:inline;fill:#C23A32;" d="M61.204,102.169c0.984-0.123,1.688-0.278,2.112-0.464
		c0.761-0.321,1.141-0.822,1.141-1.503c0-0.828-0.292-1.401-0.875-1.716c-0.583-0.316-1.438-0.474-2.567-0.474
		c-1.266,0-2.163,0.31-2.689,0.928c-0.376,0.458-0.627,1.076-0.752,1.855h-5.103c0.111-1.769,0.608-3.222,1.49-4.36
		c1.404-1.781,3.814-2.672,7.23-2.672c2.224,0,4.199,0.439,5.926,1.317c1.728,0.879,2.591,2.536,2.591,4.973v9.277
		c0,0.644,0.012,1.423,0.037,2.338c0.037,0.693,0.142,1.163,0.315,1.41c0.173,0.248,0.433,0.452,0.779,0.612v0.779h-5.752
		c-0.161-0.408-0.272-0.791-0.334-1.15c-0.062-0.358-0.111-0.767-0.148-1.225c-0.734,0.792-1.581,1.466-2.538,2.022
		c-1.145,0.655-2.439,0.983-3.883,0.983c-1.841,0-3.362-0.522-4.562-1.568c-1.201-1.045-1.801-2.525-1.801-4.443
		c0-2.486,0.966-4.286,2.896-5.399c1.06-0.605,2.617-1.039,4.674-1.299L61.204,102.169z M64.438,104.637
		c-0.338,0.211-0.68,0.381-1.024,0.51c-0.346,0.131-0.818,0.251-1.42,0.362l-1.204,0.223c-1.128,0.198-1.938,0.439-2.431,0.724
		c-0.833,0.482-1.249,1.231-1.249,2.245c0,0.903,0.254,1.556,0.763,1.958c0.509,0.401,1.127,0.603,1.855,0.603
		c1.156,0,2.221-0.334,3.194-1.002c0.973-0.668,1.479-1.886,1.516-3.655V104.637z"/>
	<path style="display:inline;fill:#C23A32;" d="M79.728,114.471h-5.288v-27.35h5.288V114.471z"/>
	<path style="display:inline;fill:#C23A32;" d="M93.254,86.871c0.271,0.018,0.643,0.046,1.113,0.083v4.305
		c-0.297-0.037-0.795-0.065-1.494-0.083c-0.699-0.02-1.182,0.136-1.447,0.463c-0.266,0.328-0.398,0.69-0.398,1.086
		c0,0.396,0,0.965,0,1.707h3.47v3.729h-3.47v16.31h-5.251v-16.31h-2.969v-3.729h2.895v-1.299c0-2.164,0.364-3.655,1.095-4.472
		c0.767-1.212,2.616-1.818,5.548-1.818C92.679,86.843,92.981,86.852,93.254,86.871z"/>
	<path style="display:inline;fill:#C23A32;" d="M109.638,101.501c-0.1-0.754-0.354-1.435-0.763-2.041
		c-0.596-0.816-1.52-1.225-2.771-1.225c-1.786,0-3.007,0.885-3.664,2.653c-0.348,0.938-0.521,2.184-0.521,3.738
		c0,1.481,0.173,2.672,0.521,3.572c0.632,1.683,1.822,2.523,3.571,2.523c1.24,0,2.12-0.334,2.641-1.002
		c0.521-0.668,0.837-1.533,0.949-2.598H115c-0.124,1.608-0.706,3.13-1.746,4.564c-1.659,2.313-4.117,3.47-7.373,3.47
		c-3.257,0-5.653-0.965-7.188-2.895s-2.303-4.432-2.303-7.506c0-3.47,0.848-6.169,2.544-8.099s4.037-2.895,7.021-2.895
		c2.538,0,4.615,0.569,6.23,1.707c1.616,1.139,2.572,3.148,2.87,6.03H109.638z"/>
	<path style="display:inline;fill:#C23A32;" d="M124.073,114.471h-5.288v-27.35h5.288V114.471z"/>
	<path style="display:inline;fill:#C23A32;" d="M134.5,94.246v12.19c0,1.15,0.137,2.017,0.406,2.598
		c0.48,1.027,1.422,1.54,2.824,1.54c1.797,0,3.029-0.729,3.693-2.189c0.344-0.791,0.518-1.837,0.518-3.136V94.246h5.361v20.225
		h-5.139v-2.857c-0.049,0.062-0.174,0.248-0.371,0.557c-0.197,0.31-0.432,0.582-0.703,0.816c-0.826,0.742-1.625,1.25-2.395,1.521
		c-0.771,0.271-1.676,0.408-2.711,0.408c-2.986,0-4.996-1.076-6.033-3.229c-0.579-1.188-0.869-2.938-0.869-5.251v-12.19H134.5z"/>
	<path style="display:inline;fill:#C23A32;" d="M169.711,96.677c1.513,1.918,2.27,4.392,2.27,7.422c0,3.143-0.746,5.746-2.238,7.812
		c-1.492,2.066-3.574,3.099-6.248,3.099c-1.678,0-3.027-0.334-4.047-1.002c-0.609-0.396-1.268-1.088-1.977-2.078v2.542h-5.214
		V87.158h5.288v9.723c0.672-0.939,1.413-1.657,2.223-2.152c0.958-0.618,2.179-0.928,3.66-0.928
		C166.104,93.801,168.198,94.76,169.711,96.677z M165.291,108.997c0.761-1.101,1.142-2.548,1.142-4.342
		c0-1.435-0.188-2.622-0.562-3.562c-0.711-1.781-2.021-2.672-3.929-2.672c-1.933,0-3.262,0.872-3.984,2.616
		c-0.375,0.928-0.562,2.128-0.562,3.6c0,1.732,0.387,3.167,1.16,4.305c0.773,1.139,1.951,1.707,3.535,1.707
		C163.464,110.648,164.53,110.099,165.291,108.997z"/>
</g>
<g>
	<path style="fill:#EDAC42;" d="M49.153,96.621c1.513,1.918,2.269,4.392,2.269,7.422c0,3.143-0.746,5.746-2.238,7.812
		c-1.491,2.066-3.574,3.099-6.247,3.099c-1.679,0-3.028-0.334-4.047-1.002c-0.609-0.396-1.269-1.088-1.978-2.078v2.542h-5.214
		V87.103h5.288v9.723c0.672-0.939,1.413-1.657,2.223-2.152c0.958-0.618,2.179-0.928,3.66-0.928
		C45.545,93.745,47.64,94.704,49.153,96.621z M44.732,108.941c0.761-1.101,1.142-2.548,1.142-4.342c0-1.435-0.188-2.622-0.562-3.562
		c-0.71-1.781-2.02-2.672-3.928-2.672c-1.934,0-3.262,0.872-3.985,2.616c-0.374,0.928-0.562,2.128-0.562,3.6
		c0,1.732,0.387,3.167,1.16,4.305c0.773,1.139,1.952,1.707,3.536,1.707C42.906,110.593,43.971,110.043,44.732,108.941z"/>
	<path style="fill:#EDAC42;" d="M71.961,111.94c-1.707,2.107-4.299,3.161-7.774,3.161s-6.067-1.054-7.774-3.161
		c-1.707-2.106-2.561-4.644-2.561-7.609c0-2.917,0.854-5.444,2.561-7.583c1.707-2.138,4.299-3.207,7.774-3.207
		s6.067,1.069,7.774,3.207c1.707,2.139,2.561,4.666,2.561,7.583C74.522,107.297,73.668,109.834,71.961,111.94z M67.731,109.019
		c0.829-1.1,1.243-2.662,1.243-4.688c0-2.026-0.414-3.586-1.243-4.679s-2.017-1.64-3.562-1.64s-2.736,0.547-3.571,1.64
		s-1.253,2.652-1.253,4.679c0,2.025,0.418,3.588,1.253,4.688c0.835,1.099,2.025,1.648,3.571,1.648S66.902,110.117,67.731,109.019z"
		/>
	<path style="fill:#EDAC42;" d="M89.542,93.718c0.067,0.006,0.219,0.016,0.454,0.027v5.418c-0.334-0.037-0.631-0.062-0.891-0.074
		c-0.26-0.012-0.47-0.019-0.631-0.019c-2.128,0-3.557,0.693-4.286,2.078c-0.408,0.779-0.612,1.979-0.612,3.6v9.667h-5.325V94.19
		h5.047v3.525c0.816-1.348,1.527-2.27,2.134-2.765c0.989-0.828,2.276-1.243,3.859-1.243C89.39,93.708,89.474,93.711,89.542,93.718z"
		/>
	<path style="fill:#EDAC42;" d="M98.532,91.778h-5.362v-4.88h5.362V91.778z M93.169,94.19h5.362v20.225h-5.362V94.19z"/>
	<path style="fill:#EDAC42;" d="M120.922,96.621c1.513,1.918,2.269,4.392,2.269,7.422c0,3.143-0.746,5.746-2.238,7.812
		c-1.491,2.066-3.574,3.099-6.247,3.099c-1.679,0-3.028-0.334-4.047-1.002c-0.609-0.396-1.269-1.088-1.978-2.078v2.542h-5.214
		V87.103h5.288v9.723c0.672-0.939,1.413-1.657,2.223-2.152c0.958-0.618,2.179-0.928,3.66-0.928
		C117.315,93.745,119.41,94.704,120.922,96.621z M116.501,108.941c0.761-1.101,1.142-2.548,1.142-4.342
		c0-1.435-0.188-2.622-0.562-3.562c-0.71-1.781-2.02-2.672-3.928-2.672c-1.934,0-3.262,0.872-3.985,2.616
		c-0.374,0.928-0.562,2.128-0.562,3.6c0,1.732,0.387,3.167,1.16,4.305c0.773,1.139,1.952,1.707,3.536,1.707
		C114.675,110.593,115.741,110.043,116.501,108.941z"/>
	<path style="fill:#EDAC42;" d="M143.732,111.94c-1.707,2.107-4.299,3.161-7.775,3.161s-6.067-1.054-7.774-3.161
		c-1.707-2.106-2.561-4.644-2.561-7.609c0-2.917,0.854-5.444,2.561-7.583c1.707-2.138,4.298-3.207,7.774-3.207
		s6.068,1.069,7.775,3.207c1.707,2.139,2.561,4.666,2.561,7.583C146.292,107.297,145.439,109.834,143.732,111.94z M139.501,109.019
		c0.828-1.1,1.242-2.662,1.242-4.688c0-2.026-0.414-3.586-1.242-4.679c-0.83-1.093-2.018-1.64-3.562-1.64
		c-1.547,0-2.736,0.547-3.572,1.64c-0.834,1.093-1.252,2.652-1.252,4.679c0,2.025,0.418,3.588,1.252,4.688
		c0.836,1.099,2.025,1.648,3.572,1.648C137.484,110.667,138.671,110.117,139.501,109.019z"/>
	<path style="fill:#EDAC42;" d="M161.312,93.718c0.067,0.006,0.219,0.016,0.454,0.027v5.418c-0.334-0.037-0.631-0.062-0.891-0.074
		c-0.26-0.012-0.471-0.019-0.631-0.019c-2.128,0-3.557,0.693-4.286,2.078c-0.408,0.779-0.612,1.979-0.612,3.6v9.667h-5.325V94.19
		h5.047v3.525c0.816-1.348,1.527-2.27,2.134-2.765c0.989-0.828,2.275-1.243,3.859-1.243
		C161.16,93.708,161.244,93.711,161.312,93.718z"/>
	<path style="fill:#EDAC42;" d="M170.302,91.778h-5.362v-4.88h5.362V91.778z M164.94,94.19h5.362v20.225h-5.362V94.19z"/>
</g>
</svg>
