<?xml version="1.0" encoding="iso-8859-1"?>
<!-- Generator: Adobe Illustrator 15.1.0, SVG Export Plug-In . SVG Version: 6.00 Build 0)  -->
<!DOCTYPE svg PUBLIC "-//W3C//DTD SVG 1.1//EN" "http://www.w3.org/Graphics/SVG/1.1/DTD/svg11.dtd">
<svg version="1.1" id="&#xB808;&#xC774;&#xC5B4;_1" xmlns="http://www.w3.org/2000/svg" xmlns:xlink="http://www.w3.org/1999/xlink"
	 x="0px" y="0px" width="200px" height="200px" viewBox="0 0 200 200" style="enable-background:new 0 0 200 200;"
	 xml:space="preserve">
<g>
	<rect x="25.001" y="25" style="fill:#0054A6;" width="149.999" height="150"/>
	<g>
		<path style="fill:#FFFFFF;" d="M39.527,36.46c0.78,0,1.369,0.229,1.766,0.686c0.221,0.261,0.402,0.64,0.545,1.143h2.21
			c-0.034-0.651-0.277-1.3-0.728-1.947c-0.819-1.152-2.115-1.729-3.887-1.729c-1.325,0-2.415,0.429-3.272,1.29
			c-0.985,0.988-1.478,2.395-1.478,4.213c0,1.687,0.433,3.013,1.299,3.981c0.869,0.971,2.059,1.454,3.574,1.454
			c1.225,0,2.228-0.357,3.013-1.074c0.784-0.717,1.271-1.642,1.461-2.782h-2.209c-0.146,0.534-0.331,0.939-0.55,1.212
			c-0.401,0.495-0.982,0.743-1.746,0.743c-0.742,0-1.356-0.292-1.838-0.876c-0.483-0.585-0.724-1.462-0.724-2.632
			s0.229-2.075,0.687-2.719C38.109,36.782,38.735,36.46,39.527,36.46z"/>
		<polygon style="fill:#FFFFFF;" points="51.375,38.772 47.231,38.772 47.231,34.792 45.021,34.792 45.021,45.246 47.231,45.246 
			47.231,40.563 51.375,40.563 51.375,45.246 53.585,45.246 53.585,34.792 51.375,34.792 		"/>
		<path style="fill:#FFFFFF;" d="M63.443,35.709c-0.805-0.814-1.969-1.222-3.492-1.222c-1.524,0-2.689,0.407-3.493,1.222
			c-1.08,0.958-1.62,2.396-1.62,4.303c0,1.879,0.54,3.318,1.62,4.316c0.804,0.814,1.969,1.221,3.493,1.221
			c1.523,0,2.688-0.407,3.492-1.221c1.074-0.999,1.613-2.438,1.613-4.316C65.056,38.105,64.517,36.667,63.443,35.709z
			 M62.065,42.744c-0.521,0.639-1.223,0.958-2.108,0.958c-0.884,0-1.591-0.319-2.118-0.958c-0.528-0.639-0.792-1.551-0.792-2.732
			c0-1.172,0.264-2.077,0.792-2.717c0.527-0.641,1.233-0.96,2.118-0.96c0.885,0,1.587,0.32,2.108,0.964
			c0.52,0.643,0.779,1.547,0.779,2.713C62.845,41.193,62.585,42.105,62.065,42.744z"/>
		<path style="fill:#FFFFFF;" d="M74.037,40.053c-0.406-0.319-1.021-0.571-1.839-0.758l-1.87-0.428
			c-0.723-0.166-1.194-0.309-1.416-0.429c-0.346-0.182-0.518-0.458-0.518-0.827c0-0.403,0.173-0.715,0.526-0.939
			c0.351-0.225,0.82-0.335,1.41-0.335c0.529,0,0.971,0.085,1.328,0.257c0.534,0.259,0.82,0.7,0.861,1.322h2.123
			c-0.038-1.115-0.46-1.966-1.259-2.55c-0.801-0.585-1.77-0.877-2.903-0.877c-1.359,0-2.388,0.31-3.088,0.93
			c-0.702,0.623-1.053,1.401-1.053,2.336c0,1.022,0.36,1.771,1.076,2.252c0.425,0.289,1.204,0.557,2.335,0.806l1.156,0.245
			c0.675,0.146,1.168,0.308,1.478,0.494c0.309,0.188,0.466,0.455,0.466,0.798c0,0.595-0.319,1-0.953,1.22
			c-0.333,0.114-0.769,0.171-1.307,0.171c-0.894,0-1.526-0.217-1.896-0.652c-0.202-0.234-0.335-0.591-0.407-1.07h-2.123
			c0,1.083,0.401,1.938,1.205,2.563c0.803,0.623,1.906,0.936,3.306,0.936c1.373,0,2.436-0.316,3.186-0.947
			c0.752-0.629,1.128-1.426,1.128-2.386C74.99,41.254,74.674,40.544,74.037,40.053z"/>
		<path style="fill:#FFFFFF;" d="M82.597,41.215c0,0.719-0.088,1.244-0.262,1.573c-0.269,0.584-0.854,0.878-1.754,0.878
			c-0.905,0-1.494-0.294-1.763-0.878c-0.175-0.329-0.26-0.854-0.26-1.573v-6.424h-2.264v6.424c0,1.111,0.176,1.977,0.529,2.592
			c0.658,1.138,1.912,1.708,3.758,1.708s3.097-0.57,3.75-1.708c0.352-0.615,0.528-1.481,0.528-2.592v-6.424h-2.263V41.215z"/>
		<polygon style="fill:#FFFFFF;" points="93.448,42.068 89.199,34.792 86.883,34.792 86.883,45.246 88.938,45.246 88.938,37.818 
			93.294,45.246 95.5,45.246 95.5,34.792 93.448,34.792 		"/>
		<path style="fill:#FFFFFF;" d="M41.609,56.404c0,0.724-0.087,1.245-0.26,1.575c-0.271,0.586-0.854,0.88-1.758,0.88
			c-0.905,0-1.491-0.294-1.762-0.88c-0.172-0.33-0.261-0.851-0.261-1.575v-6.427h-2.261v6.427c0,1.112,0.176,1.979,0.528,2.594
			c0.66,1.138,1.912,1.708,3.756,1.708c1.846,0,3.098-0.569,3.753-1.708c0.353-0.615,0.526-1.482,0.526-2.594v-6.427h-2.261V56.404z
			"/>
		<polygon style="fill:#FFFFFF;" points="52.458,57.259 48.209,49.978 45.895,49.978 45.895,60.437 47.948,60.437 47.948,53.004 
			52.305,60.437 54.513,60.437 54.513,49.978 52.458,49.978 		"/>
		<rect x="56.84" y="49.978" style="fill:#FFFFFF;" width="2.211" height="10.459"/>
		<polygon style="fill:#FFFFFF;" points="64.844,57.922 62.526,49.978 60.145,49.978 63.756,60.437 65.835,60.437 69.471,49.978 
			67.178,49.978 		"/>
		<polygon style="fill:#FFFFFF;" points="72.4,55.862 77.449,55.862 77.449,54.05 72.4,54.05 72.4,51.824 77.917,51.824 
			77.917,49.978 70.225,49.978 70.225,60.437 78.18,60.437 78.18,58.553 72.4,58.553 		"/>
		<path style="fill:#FFFFFF;" d="M87.537,59.577c-0.039-0.17-0.058-0.495-0.058-0.973V57.9c0-0.739-0.103-1.286-0.306-1.64
			c-0.205-0.355-0.551-0.629-1.043-0.821c0.586-0.199,1.007-0.538,1.261-1.019c0.255-0.478,0.383-0.967,0.383-1.462
			c0-0.411-0.065-0.777-0.198-1.099c-0.132-0.319-0.31-0.612-0.535-0.882c-0.272-0.318-0.607-0.559-0.999-0.727
			c-0.392-0.166-0.954-0.256-1.682-0.272h-5.099v10.459h2.176V56.33h2.184c0.623,0,1.048,0.111,1.273,0.333
			c0.226,0.221,0.344,0.668,0.354,1.335l0.015,0.979c0.004,0.305,0.036,0.605,0.091,0.898c0.028,0.146,0.076,0.333,0.142,0.562h2.45
			v-0.262C87.733,60.05,87.596,59.851,87.537,59.577z M84.913,54.434c-0.238,0.117-0.595,0.172-1.073,0.172h-2.401v-2.815h2.464
			c0.458,0,0.802,0.061,1.032,0.187c0.407,0.215,0.612,0.64,0.612,1.278C85.546,53.843,85.335,54.238,84.913,54.434z"/>
		<path style="fill:#FFFFFF;" d="M96.43,55.245c-0.411-0.32-1.024-0.572-1.843-0.76l-1.868-0.432
			c-0.72-0.164-1.192-0.309-1.415-0.43c-0.347-0.183-0.52-0.457-0.52-0.826c0-0.402,0.175-0.716,0.526-0.939
			c0.352-0.225,0.821-0.336,1.41-0.336c0.529,0,0.972,0.085,1.329,0.257c0.533,0.26,0.821,0.7,0.861,1.321h2.124
			c-0.038-1.114-0.459-1.964-1.259-2.548c-0.801-0.585-1.77-0.877-2.904-0.877c-1.358,0-2.387,0.31-3.088,0.932
			c-0.701,0.621-1.053,1.398-1.053,2.333c0,1.024,0.36,1.776,1.077,2.258c0.423,0.289,1.204,0.558,2.337,0.805l1.154,0.244
			c0.674,0.146,1.167,0.309,1.477,0.495c0.313,0.188,0.467,0.455,0.467,0.798c0,0.595-0.316,1-0.951,1.219
			c-0.335,0.114-0.771,0.171-1.308,0.171c-0.895,0-1.528-0.216-1.897-0.652c-0.201-0.234-0.337-0.591-0.405-1.07h-2.124
			c0,1.085,0.403,1.938,1.205,2.563c0.804,0.623,1.906,0.935,3.307,0.935c1.373,0,2.434-0.316,3.185-0.946
			c0.752-0.631,1.128-1.425,1.128-2.386C97.381,56.446,97.064,55.736,96.43,55.245z"/>
		<rect x="98.791" y="49.978" style="fill:#FFFFFF;" width="2.209" height="10.459"/>
		<polygon style="fill:#FFFFFF;" points="116.595,49.978 114.482,54.536 112.277,49.978 110.632,49.978 109.652,49.978 
			101.98,49.978 101.98,51.824 105.184,51.824 105.184,60.437 107.43,60.437 107.43,51.824 110.632,51.824 110.632,51.719 
			113.341,56.534 113.341,60.437 115.552,60.437 115.552,56.511 119.116,49.978 		"/>
		<path style="fill:#FFFFFF;" d="M35.56,68.143v-1.446c0.687-0.032,1.167-0.076,1.442-0.132c0.437-0.099,0.793-0.288,1.068-0.566
			c0.188-0.192,0.331-0.449,0.429-0.769c0.055-0.191,0.083-0.333,0.083-0.426h1.813V75.69h-2.224v-7.548H35.56z"/>
		<path style="fill:#FFFFFF;" d="M46.254,70.359c-0.554,0-0.965-0.16-1.234-0.481c-0.268-0.32-0.401-0.797-0.401-1.433
			c0-0.761,0.21-1.301,0.63-1.619c0.266-0.202,0.585-0.302,0.959-0.302c0.512,0,0.915,0.177,1.21,0.534
			c0.293,0.357,0.441,0.84,0.441,1.45c0,0.761-0.252,1.294-0.754,1.603C46.838,70.276,46.556,70.359,46.254,70.359z M42.395,68.628
			c0,1.121,0.34,1.981,1.024,2.578c0.683,0.598,1.466,0.897,2.347,0.897c0.596,0,1.097-0.122,1.505-0.363
			c0.225-0.132,0.436-0.319,0.636-0.562c-0.041,0.823-0.142,1.446-0.301,1.872c-0.292,0.78-0.801,1.17-1.524,1.17
			c-0.376,0-0.676-0.1-0.901-0.297c-0.226-0.198-0.365-0.456-0.417-0.773h-2.176c0.097,0.919,0.478,1.619,1.144,2.096
			c0.666,0.479,1.415,0.719,2.25,0.719c1.752,0,2.954-0.833,3.609-2.5c0.344-0.879,0.515-1.975,0.515-3.283
			c0-1.353-0.179-2.442-0.536-3.27c-0.627-1.456-1.785-2.183-3.473-2.183c-1.098,0-1.988,0.359-2.674,1.082
			C42.737,66.531,42.395,67.47,42.395,68.628z"/>
		<path style="fill:#FFFFFF;" d="M52.723,71.678l2.778-4.673v4.673H52.723z M58.886,71.678H57.63v-6.799h-2.442l-4.086,6.604v1.866
			h4.4v2.342h2.128v-2.342h1.257V71.678z"/>
		<path style="fill:#FFFFFF;" d="M62.011,72.264c0-0.715,0.213-1.233,0.638-1.555c0.284-0.216,0.61-0.325,0.979-0.325
			c0.454,0,0.839,0.167,1.152,0.501c0.314,0.334,0.472,0.812,0.472,1.432c0,0.566-0.138,1.024-0.414,1.375
			c-0.277,0.353-0.654,0.529-1.135,0.529c-0.49,0-0.896-0.183-1.214-0.547C62.17,73.307,62.011,72.838,62.011,72.264z
			 M67.233,67.568c-0.076-0.855-0.421-1.544-1.032-2.063s-1.432-0.776-2.461-0.776c-0.713,0-1.326,0.159-1.838,0.479
			c-0.513,0.319-0.926,0.738-1.242,1.256c-0.368,0.614-0.614,1.381-0.742,2.303c-0.072,0.52-0.107,1.19-0.107,2.019
			c0,1.416,0.258,2.567,0.773,3.458c0.663,1.146,1.693,1.721,3.089,1.721c1.301,0,2.259-0.387,2.876-1.159
			c0.618-0.772,0.925-1.666,0.925-2.677c0-1.016-0.314-1.854-0.941-2.505c-0.628-0.656-1.432-0.984-2.413-0.984
			c-0.458,0-0.865,0.074-1.22,0.221c-0.356,0.148-0.668,0.381-0.938,0.703c0.061-0.841,0.173-1.477,0.334-1.911
			c0.297-0.787,0.798-1.181,1.501-1.181c0.47,0,0.822,0.173,1.054,0.517c0.137,0.211,0.205,0.406,0.205,0.579H67.233z"/>
	</g>
	<g>
		<path style="fill:#FFFFFF;" d="M161.453,82.637l-0.02,15.762h-10.132v-17.14h-15.584l10.693,17.276h-11.485l-7.624-12.297
			l-7.292,12.297H108.5l10.519-17.276h-16.093v17.14h-9.919l-0.009-17.394c0.373-4.978,5.979-5.632,5.979-5.632h23.979l4.503-7.537
			l0,0l0,0l0,0l0,0l4.511,7.537h23.094C155.063,75.373,161.629,76.372,161.453,82.637z"/>
		<path style="fill:#FFFFFF;" d="M93.08,107.794v21.622h17.849v-5.794h-8.003v-4.994h8.003v-5.82h-8.003v-4.553h8.003v-5.743H97.932
			C97.932,102.512,93.211,102.224,93.08,107.794z"/>
		<path style="fill:#FFFFFF;" d="M161.46,107.285v22.131l-17.854-0.02v-5.774h8.009v-4.994h-8.009v-5.82h8.009v-4.553h-8.009v-5.743
			h12.789C156.395,102.512,160.878,103.244,161.46,107.285z"/>
		<path style="fill:#FFFFFF;" d="M161.454,137.469l-0.021,25.026h-9.933v-23.02h-48.575v23.02h-9.919l-0.01-24.608
			c0.047-4.037,4.992-4.623,4.992-4.623h24.282v-6.169h10.657v6.169h23.879C156.807,133.264,161.381,134.289,161.454,137.469z"/>
		<polygon style="fill:#FFFFFF;" points="137.219,145.622 132.348,145.622 132.348,150.282 137.219,150.282 137.219,154.671 
			145.525,154.671 145.525,142.003 137.219,142.003 		"/>
		<path style="fill:#FFFFFF;" d="M114.363,162.681h31.24v-5.046h-27.238v-3.255h-8.276v4.623
			C110.089,159.003,110.026,162.791,114.363,162.681z"/>
		<path style="fill:#FFFFFF;" d="M139.925,126.684v-8.561c-8.441-1.926-8.198-9.903-8.198-9.903h8.155v-5.764h-24.934v5.764h7.638
			c0,0,1.207,6.563-7.828,9.903v8.561c0,0,9.573-2.621,12.792-8.873C127.55,117.811,131.483,125.005,139.925,126.684z"/>
		<path style="fill:#FFFFFF;" d="M122.624,142.166l-8.054-0.118c0,0-0.562,6.371-7.645,6.432v5.631c0,0,8.23,0.063,11.679-4.696
			c0,0,3.252,4.76,11.678,4.8v-5.525C130.282,148.688,123.965,147.985,122.624,142.166z"/>
	</g>
</g>
</svg>
