<?xml version="1.0" encoding="iso-8859-1"?>
<!-- Generator: Adobe Illustrator 15.1.0, SVG Export Plug-In . SVG Version: 6.00 Build 0)  -->
<!DOCTYPE svg PUBLIC "-//W3C//DTD SVG 1.1//EN" "http://www.w3.org/Graphics/SVG/1.1/DTD/svg11.dtd">
<svg version="1.1" id="&#xB808;&#xC774;&#xC5B4;_1" xmlns="http://www.w3.org/2000/svg" xmlns:xlink="http://www.w3.org/1999/xlink"
	 x="0px" y="0px" width="200px" height="200px" viewBox="0 0 200 200" style="enable-background:new 0 0 200 200;"
	 xml:space="preserve">
<g>
	<path style="fill:#032E86;" d="M169.087,68.302c11.729,25.576-9.697,60.495-47.846,77.987
		c-38.158,17.512-78.599,10.962-90.332-14.599c-11.723-25.575,9.709-60.489,47.85-77.982
		C116.916,36.202,157.366,42.744,169.087,68.302z"/>
	<path style="fill:#FFFFFF;" d="M80.744,55.596c-19.511,9.082-34.371,23.093-42.075,37.908H167.38
		c1.968-8.353,1.492-16.58-1.844-23.991C154.522,45.154,116.566,38.926,80.744,55.596z"/>
	<path style="fill:#D20037;" d="M109.729,51.31c-5.098,0-9.743,1.938-13.248,5.107c2.635-1.531,5.725-2.409,9.031-2.409
		c9.696,0,17.55,7.56,17.55,16.874c0,9.32-7.854,16.89-17.55,16.89c-3.709,0-7.158-1.126-9.986-3.011
		c3.584,3.732,8.62,6.041,14.203,6.041c10.905,0,19.74-8.844,19.74-19.749C129.47,60.146,120.635,51.31,109.729,51.31z"/>
	<path style="fill:#040000;" d="M87.962,62.783h21.256c0,0,3.374,0,2.703,4.052c-0.677,4.047-2.361,9.115-2.361,9.115h5.063
		l-0.672,3.369h-34.78l0.689-3.029h9.449l1.344-7.087h3.048l-1.353,7.087h4.045l1.684-7.087h3.386l-1.69,7.417h6.399l2.713-10.794
		H87.28L87.962,62.783z"/>
	<path style="fill:#FFFFFF;" d="M124.556,135.087v-16.605c0-4.191-3.423-7.616-7.624-7.616h-6.103c-2.208,0-4.198,0.963-5.597,2.459
		v-2.951c0-4.176-3.429-7.603-7.627-7.603h-6.103c-4.195,0-7.635,3.427-7.635,7.603v2.049c-1.273-0.96-2.855-1.557-4.57-1.557H73.2
		c-4.205,0-7.631,3.425-7.631,7.616l0.021,16.956c-0.097,0.877-0.166,3.387,1.927,3.5c1.627,0.086,2.101-1.225,2.219-2.319h0.018
		v-0.208c0.026-0.37,0.026-0.702,0-0.935v-16.013c0-2.793,2.278-5.065,5.073-5.065h3.526c2.777,0,5.05,2.272,5.05,5.065v16.218l0,0
		c-0.069,1.025,0.035,3.146,2.072,3.257c2.314,0.107,2.451-2.278,2.388-3.32v-24.038c0-2.778,2.292-5.054,5.067-5.054h3.526
		c2.776,0,5.063,2.275,5.063,5.054v24.102h0.01c-0.067,1.025,0.021,3.146,2.185,3.257c2.398,0.107,2.567-2.19,2.511-3.257h0.017
		v-16.218c0-2.793,2.271-5.065,5.063-5.065h3.521c2.782,0,5.064,2.272,5.064,5.065v16.146c-0.088,0.987-0.034,3.219,2.14,3.329
		c2.371,0.107,2.528-2.19,2.496-3.257l0,0C124.533,135.479,124.556,135.289,124.556,135.087z"/>
</g>
</svg>
