<?xml version="1.0" encoding="iso-8859-1"?>
<!-- Generator: Adobe Illustrator 15.1.0, SVG Export Plug-In . SVG Version: 6.00 Build 0)  -->
<!DOCTYPE svg PUBLIC "-//W3C//DTD SVG 1.1//EN" "http://www.w3.org/Graphics/SVG/1.1/DTD/svg11.dtd">
<svg version="1.1" id="&#xB808;&#xC774;&#xC5B4;_1" xmlns="http://www.w3.org/2000/svg" xmlns:xlink="http://www.w3.org/1999/xlink"
	 x="0px" y="0px" width="200px" height="200px" viewBox="0 0 200 200" style="enable-background:new 0 0 200 200;"
	 xml:space="preserve">
<g>
	<path style="fill:#F6AC19;" d="M47.005,40.667c0,0,24.005-20.411,53.361-20.411c29.363,0,52.976,20.749,52.976,20.749l-4.146,4.786
		c0,0,3.185,6.701,7.66,8.292l6.699-1.913c0,0,16.279,20.429,16.279,47.229c0,26.81-12.823,45.469-17.292,50.578l-3.772-2.343
		c0,0-3.787,1.928-5.009,4.374l4.394,5.315c0,0-6.838,2.653-10.82,2.343l-3.674-5.304l-3.882,2.857l2.151,2.757
		c0,0-2.463,11.021-19.397,10.514l2.146,5c0,0-24.086,9.703-50.32-0.201l1.94-4.799c0,0-18.984,0.403-19.802-11.947l1.836-2.647
		l-2.96-2.557l-4.59,6.327c0,0-5.614-0.502-10.203-2.542l4.484-5.514c0,0-1.529-3.977-3.571-4.798l-4.081,2.749
		c0,0-17.248-16.94-17.248-52.559c0-25.818,16.022-44.601,16.022-44.601l6.333,1.635c0,0,5.609-1.635,8.572-8.985L47.005,40.667z"/>
	<path style="fill:#142280;" d="M54.762,62.914c0,0-13.568,14.898-13.568,36.334c0,21.436,9.179,32.662,9.179,32.662
		s0.207-4.899,4.589-5.107c4.395-0.205,12.967,7.552,8.68,15.309l-6.841,9.499l3.271,2.752c0,0,5.508-7.349,6.633-8.673
		c1.121-1.332,4.694-3.372,7.553-1.841c2.855,1.53,3.166,4.084,2.553,6.128c-0.613,2.031-1.332,5.407-1.332,5.407l14.901,0.713
		l-1.017,6.021c0,0,11.429,2.247,20.208,0.102l-0.917-5.916l13.47-0.613c0,0-1.532-4.797-1.737-6.128
		c-0.202-1.323,0.41-5.099,4.084-5.505c3.676-0.416,5.515,1.019,6.025,1.529c0.51,0.507,7.755,9.689,7.755,9.689l3.979-3.06
		c0,0-6.529-9.287-7.243-11.12c-0.712-1.838-1.428-5,2.544-10.52c3.987-5.505,12.255-3.362,11.229,2.455
		c0,0,10.012-13.064,10.012-31.121c0-18.072-7.453-31.747-12.761-37.772c0,0,0.71,4.999-4.184,4.999c-4.9,0-7.959-3.364-10-6.74
		c-2.044-3.356-2.15-7.96,2.855-9.289c0,0-13.987-11.422-35.829-11.422c-17.245,0-32.357,10.513-32.357,10.513
		s8.983,1.526,0.209,12.449C60.324,71.032,54.354,68.018,54.762,62.914z"/>
	<path style="fill:#C32B05;" d="M81.706,162.512l-4.84,11.413c0,0,18.795,8.074,44.858,0.348l-4.956-11.183
		C116.768,163.09,97.74,168.277,81.706,162.512z"/>
	<path style="fill:#C32B05;" d="M87.594,157.781l-4.505,2.883c0,0,2.77,1.153,4.04,1.153L87.594,157.781z"/>
	<path style="fill:#C32B05;" d="M110.658,157.902l4.498,2.881c0,0-2.776,1.145-4.046,1.145L110.658,157.902z"/>
	<path style="fill:#C32B05;" d="M83.326,158.011l-2.656,1.848l-3.453,8.531c0,0-15.915,2.08-18.919-8.992l6.464-8.187
		c0,0,0.92,4.841,4.96,5.765C74.095,157.205,83.326,158.011,83.326,158.011z"/>
	<path style="fill:#C32B05;" d="M115.156,158.244l2.76,2.645l3.575,7.617c0,0,12.915,1.612,17.648-8.189l-6.462-8.529
		c0,0-0.923,5.536-7.148,5.768C119.309,157.781,115.156,158.244,115.156,158.244z"/>
	<path style="fill:#C32B05;" d="M73.87,152.131l-0.809,2.772c0,0-2.307,1.148-4.725-1.269l1.501-2.424
		C69.838,151.211,71.563,152.94,73.87,152.131z"/>
	<path style="fill:#C32B05;" d="M123.567,153.17c0,0,2.88,0.576,4.386-1.035l1.384,1.726c0,0-1.735,2.547-5.188,1.616
		L123.567,153.17z"/>
	<path style="fill:#C32B05;" d="M127.602,149.02c0,0-0.342,1.614-2.072,1.962c-1.729,0.347-3.116-0.813-3.232-2.196
		c-0.106-1.377,1.271-2.765,3.119-2.882c1.844-0.111,3.226,1.156,4.032,1.852c0.812,0.69,1.619,2.299,0.922,3.919L127.602,149.02z"
		/>
	<path style="fill:#C32B05;" d="M69.948,148.441l-2.768,2.998c0,0-0.808-3.344,1.958-4.958c2.774-1.613,4.846-0.461,5.194,1.043
		c0.34,1.495-0.237,2.414-1.843,2.529C70.871,150.168,69.948,148.558,69.948,148.441z"/>
	<path style="fill:#FFFFFF;" d="M54.958,142.91c0,0,2.996,0.921,4.15,0.921c0,0-4.501,7.38-9.106,13.264
		c0,0-3.699,0.229-5.656-1.043L54.958,142.91z"/>
	<path style="fill:#FFFFFF;" d="M43.43,145.445c0,0,2.762,3.34,3.112,4.15l8.185-9.567c0,0,3.805,3.11,6.23,0.806
		c2.424-2.315,2.187-6.69-0.809-9.106c-2.995-2.425-5.541-3.353-6.574-2.425c-1.034,0.923-2.309,3.917,0.344,7.956L43.43,145.445z"
		/>
	<path style="fill:#FFFFFF;" d="M143.979,143.375c0,0-3.117,1.149-4.268,1.149c0,0,4.152,7.263,8.762,13.146
		c0,0,4.153,0.11,6.109-1.155L143.979,143.375z"/>
	<path style="fill:#FFFFFF;" d="M156.78,146.372c0,0-4.042,2.879-4.388,3.682l-8.181-9.568c0,0-3.807,3.112-6.236,0.806
		c-2.415-2.308-2.009-6.486,0.813-9.11c3.222-2.996,5.537-3.336,6.573-2.412c1.042,0.913,2.309,3.913-0.346,7.953L156.78,146.372z"
		/>
	<path style="fill:#FFFFFF;" d="M45.429,55.007c0,0,6.124-4.653,7.144-8.329l9.005,8.783c0,0,3.805-2.1,5.452-0.569
		c1.646,1.531,1.466,4.987-1.759,7.818c-3.227,2.836-6.344,3.967-7.878,2.213c-1.531-1.763,0.28-5.612,1.017-6.459L45.429,55.007z"
		/>
	<path style="fill:#FFFFFF;" d="M147.45,47.385c0,0,2.811,5.233,6.523,7.804l-11.807,4.184c0,0,3.188,5.323,0.622,6.896
		c-2.573,1.568-6.661-1.144-8.28-3.565c-1.616-2.428-2.85-5.619-0.812-7.234c2.047-1.62,5.183,0.855,5.183,0.855L147.45,47.385z"/>
	<path style="fill:#FFFFFF;" d="M49.949,41.005l11.724,11.487c0,0,16.04-13.159,37.345-13.159c21.3,0,36.969,11.845,39.485,13.998
		l11.485-11.843c0,0-20.217-18.55-49.416-18.55C71.374,22.938,49.949,41.005,49.949,41.005z"/>
	<path style="fill:#FFFFFF;" d="M145.804,60.276l16.513-5.63c0,0,14.965,18.316,14.965,44.521c0,26.204-11.137,41.879-15.807,47.741
		l-13.39-9.571c0,0,12.684-14.834,12.684-38.528C160.769,75.109,145.804,60.276,145.804,60.276z"/>
	<path style="fill:#FFFFFF;" d="M54.25,59.911l-16.864-4.904c0,0-14.964,17.955-14.964,44.16c0,26.204,11.13,41.879,15.8,47.741
		l13.404-9.571c0,0-12.688-14.834-12.688-38.528C38.939,75.109,54.25,59.911,54.25,59.911z"/>
	<g>
		<g>
			<path style="fill:#142280;" d="M43.427,130.622l0.756,1.337l-3.625,2.052l2.018,3.559l3.623-2.055l0.752,1.327l-8.29,4.7
				l-0.754-1.33l3.539-2.003l-2.017-3.558l-3.537,2.006l-0.756-1.339L43.427,130.622z"/>
			<path style="fill:#142280;" d="M30.729,124.912l6.312,0.731l3.658-1.448l0.566,1.426l-3.662,1.446l-4.09,4.863l-0.616-1.556
				l3.091-3.489l-4.646-0.418L30.729,124.912z"/>
			<path style="fill:#142280;" d="M33.995,112.948c0.943-0.236,1.795-0.094,2.549,0.423c0.757,0.512,1.264,1.281,1.514,2.299
				c0.253,1.005,0.167,1.917-0.258,2.727c-0.422,0.811-1.109,1.334-2.049,1.57l-6.117,1.529l-0.375-1.488l6.052-1.512
				c0.611-0.155,1.051-0.451,1.322-0.905c0.27-0.455,0.325-0.988,0.169-1.608c-0.148-0.605-0.453-1.061-0.909-1.341
				c-0.445-0.28-0.978-0.337-1.595-0.188l-6.045,1.508l-0.372-1.483L33.995,112.948z"/>
			<path style="fill:#142280;" d="M29.279,102.323c0.837-0.081,1.552,0.148,2.149,0.688c0.6,0.538,0.943,1.288,1.035,2.25
				l0.218,2.28l3.736-0.354l0.146,1.525l-9.491,0.898l-0.36-3.807c-0.094-0.969,0.101-1.771,0.587-2.407
				C27.776,102.757,28.441,102.397,29.279,102.323z M29.423,103.846c-0.498,0.044-0.869,0.245-1.116,0.596
				c-0.251,0.351-0.348,0.794-0.294,1.325l0.207,2.2l3.146-0.301l-0.204-2.194c-0.053-0.535-0.233-0.952-0.542-1.247
				C30.31,103.928,29.91,103.802,29.423,103.846z"/>
			<path style="fill:#142280;" d="M33.542,92.387c0.86,0.045,1.522,0.418,1.981,1.114c0.46,0.691,0.659,1.576,0.599,2.66
				c-0.045,0.77-0.176,1.435-0.402,1.989c-0.222,0.556-0.573,1.054-1.051,1.502l-0.887-1.069c0.346-0.328,0.601-0.702,0.759-1.109
				c0.165-0.416,0.256-0.884,0.29-1.41c0.037-0.663-0.062-1.183-0.298-1.56c-0.231-0.374-0.58-0.582-1.041-0.606
				c-0.431-0.026-0.771,0.087-1.007,0.342c-0.115,0.117-0.207,0.255-0.279,0.411c-0.072,0.155-0.132,0.379-0.184,0.671l-0.225,1.176
				c-0.154,0.813-0.444,1.44-0.869,1.87c-0.464,0.466-1.084,0.68-1.855,0.632c-0.836-0.047-1.493-0.39-1.966-1.021
				c-0.478-0.63-0.688-1.468-0.632-2.502c0.075-1.267,0.495-2.285,1.258-3.069l0.848,1.03c-0.282,0.277-0.484,0.593-0.615,0.943
				c-0.13,0.353-0.209,0.755-0.236,1.206c-0.034,0.575,0.082,1.034,0.346,1.374c0.259,0.341,0.606,0.524,1.03,0.548
				c0.376,0.021,0.678-0.093,0.907-0.341c0.235-0.242,0.398-0.613,0.5-1.098l0.22-1.136c0.09-0.445,0.195-0.812,0.325-1.093
				c0.126-0.278,0.291-0.527,0.489-0.748C32.032,92.574,32.698,92.338,33.542,92.387z"/>
			<path style="fill:#142280;" d="M35.057,81.896c0.946,0.208,1.645,0.71,2.094,1.516c0.447,0.793,0.559,1.708,0.331,2.729
				c-0.224,1.015-0.705,1.792-1.444,2.327c-0.745,0.532-1.592,0.699-2.54,0.492l-6.157-1.356l0.334-1.5l6.088,1.344
				c0.615,0.134,1.144,0.064,1.584-0.223c0.444-0.282,0.73-0.736,0.869-1.36c0.136-0.618,0.063-1.149-0.214-1.605
				c-0.276-0.454-0.726-0.745-1.344-0.878l-6.09-1.343L28.9,80.54L35.057,81.896z"/>
			<path style="fill:#142280;" d="M42.083,72.267l-0.528,1.292l-7.975,1.775l6.219,2.535l-0.579,1.417l-8.825-3.597l0.523-1.316
				l7.949-1.768l-6.187-2.522l0.576-1.418L42.083,72.267z"/>
			<path style="fill:#142280;" d="M44.168,61.176c0.534,0.32,0.941,0.645,1.227,0.971c0.284,0.332,0.484,0.73,0.601,1.186
				c0.127,0.511,0.147,1.012,0.063,1.494c-0.088,0.484-0.274,0.963-0.563,1.438c-0.54,0.9-1.283,1.488-2.231,1.753
				c-0.602,0.168-1.194,0.146-1.787-0.062c-0.368-0.134-1.033-0.486-1.994-1.063c-0.957-0.571-1.578-0.988-1.864-1.25
				c-0.474-0.43-0.776-0.947-0.907-1.557c-0.212-0.963-0.047-1.896,0.496-2.796c0.53-0.884,1.21-1.461,2.04-1.739
				c0.767-0.247,1.563-0.213,2.395,0.109l-0.796,1.329c-0.523-0.16-1-0.16-1.442,0c-0.43,0.156-0.793,0.479-1.086,0.964
				c-0.154,0.252-0.246,0.52-0.289,0.796c-0.042,0.279-0.034,0.538,0.027,0.787c0.087,0.338,0.278,0.642,0.581,0.918
				c0.295,0.271,0.842,0.644,1.639,1.119c0.824,0.501,1.422,0.813,1.782,0.942c0.36,0.125,0.715,0.149,1.069,0.062
				c0.523-0.123,0.943-0.454,1.257-0.976c0.348-0.587,0.439-1.17,0.271-1.752c-0.146-0.485-0.489-0.885-1.018-1.204l-0.459-0.272
				l-1.1,1.833l-1.049-0.623l1.893-3.154L44.168,61.176z"/>
		</g>
		<g>
			<path style="fill:#142280;" d="M43.427,130.622l0.756,1.337l-3.625,2.052l2.018,3.559l3.623-2.055l0.752,1.327l-8.29,4.7
				l-0.754-1.33l3.539-2.003l-2.017-3.558l-3.537,2.006l-0.756-1.339L43.427,130.622z"/>
			<path style="fill:#142280;" d="M30.729,124.912l6.312,0.731l3.658-1.448l0.566,1.426l-3.662,1.446l-4.09,4.863l-0.616-1.556
				l3.091-3.489l-4.646-0.418L30.729,124.912z"/>
			<path style="fill:#142280;" d="M33.995,112.948c0.943-0.236,1.795-0.094,2.549,0.423c0.757,0.512,1.264,1.281,1.514,2.299
				c0.253,1.005,0.167,1.917-0.258,2.727c-0.422,0.811-1.109,1.334-2.049,1.57l-6.117,1.529l-0.375-1.488l6.052-1.512
				c0.611-0.155,1.051-0.451,1.322-0.905c0.27-0.455,0.325-0.988,0.169-1.608c-0.148-0.605-0.453-1.061-0.909-1.341
				c-0.445-0.28-0.978-0.337-1.595-0.188l-6.045,1.508l-0.372-1.483L33.995,112.948z"/>
			<path style="fill:#142280;" d="M29.279,102.323c0.837-0.081,1.552,0.148,2.149,0.688c0.6,0.538,0.943,1.288,1.035,2.25
				l0.218,2.28l3.736-0.354l0.146,1.525l-9.491,0.898l-0.36-3.807c-0.094-0.969,0.101-1.771,0.587-2.407
				C27.776,102.757,28.441,102.397,29.279,102.323z M29.423,103.846c-0.498,0.044-0.869,0.245-1.116,0.596
				c-0.251,0.351-0.348,0.794-0.294,1.325l0.207,2.2l3.146-0.301l-0.204-2.194c-0.053-0.535-0.233-0.952-0.542-1.247
				C30.31,103.928,29.91,103.802,29.423,103.846z"/>
			<path style="fill:#142280;" d="M33.542,92.387c0.86,0.045,1.522,0.418,1.981,1.114c0.46,0.691,0.659,1.576,0.599,2.66
				c-0.045,0.77-0.176,1.435-0.402,1.989c-0.222,0.556-0.573,1.054-1.051,1.502l-0.887-1.069c0.346-0.328,0.601-0.702,0.759-1.109
				c0.165-0.416,0.256-0.884,0.29-1.41c0.037-0.663-0.062-1.183-0.298-1.56c-0.231-0.374-0.58-0.582-1.041-0.606
				c-0.431-0.026-0.771,0.087-1.007,0.342c-0.115,0.117-0.207,0.255-0.279,0.411c-0.072,0.155-0.132,0.379-0.184,0.671l-0.225,1.176
				c-0.154,0.813-0.444,1.44-0.869,1.87c-0.464,0.466-1.084,0.68-1.855,0.632c-0.836-0.047-1.493-0.39-1.966-1.021
				c-0.478-0.63-0.688-1.468-0.632-2.502c0.075-1.267,0.495-2.285,1.258-3.069l0.848,1.03c-0.282,0.277-0.484,0.593-0.615,0.943
				c-0.13,0.353-0.209,0.755-0.236,1.206c-0.034,0.575,0.082,1.034,0.346,1.374c0.259,0.341,0.606,0.524,1.03,0.548
				c0.376,0.021,0.678-0.093,0.907-0.341c0.235-0.242,0.398-0.613,0.5-1.098l0.22-1.136c0.09-0.445,0.195-0.812,0.325-1.093
				c0.126-0.278,0.291-0.527,0.489-0.748C32.032,92.574,32.698,92.338,33.542,92.387z"/>
			<path style="fill:#142280;" d="M35.057,81.896c0.946,0.208,1.645,0.71,2.094,1.516c0.447,0.793,0.559,1.708,0.331,2.729
				c-0.224,1.015-0.705,1.792-1.444,2.327c-0.745,0.532-1.592,0.699-2.54,0.492l-6.157-1.356l0.334-1.5l6.088,1.344
				c0.615,0.134,1.144,0.064,1.584-0.223c0.444-0.282,0.73-0.736,0.869-1.36c0.136-0.618,0.063-1.149-0.214-1.605
				c-0.276-0.454-0.726-0.745-1.344-0.878l-6.09-1.343L28.9,80.54L35.057,81.896z"/>
			<path style="fill:#142280;" d="M42.083,72.267l-0.528,1.292l-7.975,1.775l6.219,2.535l-0.579,1.417l-8.825-3.597l0.523-1.316
				l7.949-1.768l-6.187-2.522l0.576-1.418L42.083,72.267z"/>
			<path style="fill:#142280;" d="M44.168,61.176c0.534,0.32,0.941,0.645,1.227,0.971c0.284,0.332,0.484,0.73,0.601,1.186
				c0.127,0.511,0.147,1.012,0.063,1.494c-0.088,0.484-0.274,0.963-0.563,1.438c-0.54,0.9-1.283,1.488-2.231,1.753
				c-0.602,0.168-1.194,0.146-1.787-0.062c-0.368-0.134-1.033-0.486-1.994-1.063c-0.957-0.571-1.578-0.988-1.864-1.25
				c-0.474-0.43-0.776-0.947-0.907-1.557c-0.212-0.963-0.047-1.896,0.496-2.796c0.53-0.884,1.21-1.461,2.04-1.739
				c0.767-0.247,1.563-0.213,2.395,0.109l-0.796,1.329c-0.523-0.16-1-0.16-1.442,0c-0.43,0.156-0.793,0.479-1.086,0.964
				c-0.154,0.252-0.246,0.52-0.289,0.796c-0.042,0.279-0.034,0.538,0.027,0.787c0.087,0.338,0.278,0.642,0.581,0.918
				c0.295,0.271,0.842,0.644,1.639,1.119c0.824,0.501,1.422,0.813,1.782,0.942c0.36,0.125,0.715,0.149,1.069,0.062
				c0.523-0.123,0.943-0.454,1.257-0.976c0.348-0.587,0.439-1.17,0.271-1.752c-0.146-0.485-0.489-0.885-1.018-1.204l-0.459-0.272
				l-1.1,1.833l-1.049-0.623l1.893-3.154L44.168,61.176z"/>
		</g>
	</g>
	<g>
		<g>
			<path style="fill:#142280;" d="M158.795,66.936c-0.845,0.49-1.696,0.593-2.565,0.31c-0.875-0.283-1.573-0.878-2.099-1.784
				c-0.527-0.895-0.697-1.791-0.514-2.691c0.181-0.896,0.697-1.592,1.53-2.08l5.447-3.179l0.77,1.323l-5.386,3.146
				c-0.541,0.317-0.882,0.729-1.019,1.236c-0.13,0.513-0.033,1.041,0.292,1.593c0.315,0.544,0.729,0.887,1.243,1.03
				c0.508,0.145,1.035,0.057,1.582-0.267l5.382-3.138l0.776,1.326L158.795,66.936z"/>
			<path style="fill:#142280;" d="M160.104,78.149l-0.52-1.304l4.478-6.825l-6.224,2.517l-0.577-1.422l8.841-3.574l0.537,1.312
				l-4.469,6.807l6.195-2.503l0.571,1.417L160.104,78.149z"/>
			<path style="fill:#142280;" d="M161.372,82.57l-0.421-1.471l9.157-2.639l0.421,1.47L161.372,82.57z"/>
			<path style="fill:#142280;" d="M172.77,90.272l-9.988-1.514l-0.223-1.167l8.754-5.027l0.291,1.557l-6.382,3.576l7.245,0.996
				L172.77,90.272z"/>
			<path style="fill:#142280;" d="M163.921,100.242l-0.358-6.426l9.52-0.539l0.358,6.432l-1.291,0.07l-0.282-4.896l-2.762,0.159
				l0.231,4.17l-1.276,0.076l-0.234-4.18l-2.885,0.165l0.28,4.895L163.921,100.242z"/>
			<path style="fill:#142280;" d="M163.213,109.988l0.155-1.777l4.204-1.753l0.179-1.888l-4.015-0.362l0.14-1.53l9.492,0.857
				l-0.35,3.892c-0.09,0.937-0.411,1.674-0.97,2.19c-0.564,0.526-1.26,0.748-2.081,0.682c-0.651-0.062-1.177-0.296-1.584-0.711
				c-0.403-0.408-0.652-0.919-0.751-1.521L163.213,109.988z M170.088,108.769c0.46,0.037,0.841-0.081,1.127-0.364
				c0.297-0.285,0.47-0.689,0.518-1.203l0.206-2.254l-2.978-0.27l-0.207,2.251c-0.043,0.509,0.055,0.927,0.286,1.269
				C169.271,108.537,169.628,108.724,170.088,108.769z"/>
			<path style="fill:#142280;" d="M163.933,118.961c-0.84-0.206-1.423-0.688-1.747-1.449c-0.333-0.767-0.365-1.678-0.107-2.733
				c0.18-0.746,0.432-1.376,0.752-1.882c0.315-0.505,0.749-0.93,1.305-1.281l0.678,1.205c-0.396,0.266-0.716,0.582-0.949,0.961
				c-0.229,0.372-0.417,0.82-0.532,1.333c-0.159,0.643-0.157,1.179,0.005,1.586c0.163,0.41,0.467,0.672,0.912,0.783
				c0.432,0.104,0.777,0.052,1.058-0.152c0.129-0.096,0.245-0.214,0.346-0.352c0.103-0.146,0.2-0.354,0.304-0.635l0.435-1.116
				c0.297-0.771,0.697-1.331,1.19-1.684c0.538-0.374,1.19-0.475,1.935-0.282c0.814,0.193,1.397,0.647,1.755,1.353
				c0.353,0.71,0.415,1.575,0.169,2.58c-0.299,1.23-0.893,2.158-1.788,2.79l-0.653-1.164c0.334-0.222,0.586-0.495,0.777-0.82
				c0.193-0.317,0.34-0.703,0.45-1.144c0.134-0.556,0.104-1.029-0.092-1.406c-0.194-0.384-0.499-0.629-0.914-0.728
				c-0.358-0.087-0.686-0.033-0.951,0.171c-0.28,0.201-0.509,0.534-0.689,0.984l-0.426,1.08c-0.168,0.428-0.34,0.769-0.52,1.021
				c-0.172,0.25-0.377,0.468-0.611,0.646C165.452,119.05,164.755,119.161,163.933,118.961z"/>
			<path style="fill:#142280;" d="M159.914,122.119l0.509-1.446l8.974,3.207l-0.512,1.446L159.914,122.119z"/>
			<path style="fill:#142280;" d="M163.634,134.111l1.175-2.509l-7.451-3.505l0.653-1.391l7.448,3.513l1.18-2.511l1.177,0.551
				l-3.012,6.4L163.634,134.111z"/>
			<path style="fill:#142280;" d="M159.883,142.844l-3.179-5.499l-3.349-2.07l0.801-1.301l3.35,2.069l6.34,0.385l-0.876,1.426
				l-4.642-0.399l2.435,3.97L159.883,142.844z"/>
		</g>
		<g>
			<path style="fill:#142280;" d="M158.795,66.936c-0.845,0.49-1.696,0.593-2.565,0.31c-0.875-0.283-1.573-0.878-2.099-1.784
				c-0.527-0.895-0.697-1.791-0.514-2.691c0.181-0.896,0.697-1.592,1.53-2.08l5.447-3.179l0.77,1.323l-5.386,3.146
				c-0.541,0.317-0.882,0.729-1.019,1.236c-0.13,0.513-0.033,1.041,0.292,1.593c0.315,0.544,0.729,0.887,1.243,1.03
				c0.508,0.145,1.035,0.057,1.582-0.267l5.382-3.138l0.776,1.326L158.795,66.936z"/>
			<path style="fill:#142280;" d="M160.104,78.149l-0.52-1.304l4.478-6.825l-6.224,2.517l-0.577-1.422l8.841-3.574l0.537,1.312
				l-4.469,6.807l6.195-2.503l0.571,1.417L160.104,78.149z"/>
			<path style="fill:#142280;" d="M161.372,82.57l-0.421-1.471l9.157-2.639l0.421,1.47L161.372,82.57z"/>
			<path style="fill:#142280;" d="M172.77,90.272l-9.988-1.514l-0.223-1.167l8.754-5.027l0.291,1.557l-6.382,3.576l7.245,0.996
				L172.77,90.272z"/>
			<path style="fill:#142280;" d="M163.921,100.242l-0.358-6.426l9.52-0.539l0.358,6.432l-1.291,0.07l-0.282-4.896l-2.762,0.159
				l0.231,4.17l-1.276,0.076l-0.234-4.18l-2.885,0.165l0.28,4.895L163.921,100.242z"/>
			<path style="fill:#142280;" d="M163.213,109.988l0.155-1.777l4.204-1.753l0.179-1.888l-4.015-0.362l0.14-1.53l9.492,0.857
				l-0.35,3.892c-0.09,0.937-0.411,1.674-0.97,2.19c-0.564,0.526-1.26,0.748-2.081,0.682c-0.651-0.062-1.177-0.296-1.584-0.711
				c-0.403-0.408-0.652-0.919-0.751-1.521L163.213,109.988z M170.088,108.769c0.46,0.037,0.841-0.081,1.127-0.364
				c0.297-0.285,0.47-0.689,0.518-1.203l0.206-2.254l-2.978-0.27l-0.207,2.251c-0.043,0.509,0.055,0.927,0.286,1.269
				C169.271,108.537,169.628,108.724,170.088,108.769z"/>
			<path style="fill:#142280;" d="M163.933,118.961c-0.84-0.206-1.423-0.688-1.747-1.449c-0.333-0.767-0.365-1.678-0.107-2.733
				c0.18-0.746,0.432-1.376,0.752-1.882c0.315-0.505,0.749-0.93,1.305-1.281l0.678,1.205c-0.396,0.266-0.716,0.582-0.949,0.961
				c-0.229,0.372-0.417,0.82-0.532,1.333c-0.159,0.643-0.157,1.179,0.005,1.586c0.163,0.41,0.467,0.672,0.912,0.783
				c0.432,0.104,0.777,0.052,1.058-0.152c0.129-0.096,0.245-0.214,0.346-0.352c0.103-0.146,0.2-0.354,0.304-0.635l0.435-1.116
				c0.297-0.771,0.697-1.331,1.19-1.684c0.538-0.374,1.19-0.475,1.935-0.282c0.814,0.193,1.397,0.647,1.755,1.353
				c0.353,0.71,0.415,1.575,0.169,2.58c-0.299,1.23-0.893,2.158-1.788,2.79l-0.653-1.164c0.334-0.222,0.586-0.495,0.777-0.82
				c0.193-0.317,0.34-0.703,0.45-1.144c0.134-0.556,0.104-1.029-0.092-1.406c-0.194-0.384-0.499-0.629-0.914-0.728
				c-0.358-0.087-0.686-0.033-0.951,0.171c-0.28,0.201-0.509,0.534-0.689,0.984l-0.426,1.08c-0.168,0.428-0.34,0.769-0.52,1.021
				c-0.172,0.25-0.377,0.468-0.611,0.646C165.452,119.05,164.755,119.161,163.933,118.961z"/>
			<path style="fill:#142280;" d="M159.914,122.119l0.509-1.446l8.974,3.207l-0.512,1.446L159.914,122.119z"/>
			<path style="fill:#142280;" d="M163.634,134.111l1.175-2.509l-7.451-3.505l0.653-1.391l7.448,3.513l1.18-2.511l1.177,0.551
				l-3.012,6.4L163.634,134.111z"/>
			<path style="fill:#142280;" d="M159.883,142.844l-3.179-5.499l-3.349-2.07l0.801-1.301l3.35,2.069l6.34,0.385l-0.876,1.426
				l-4.642-0.399l2.435,3.97L159.883,142.844z"/>
		</g>
	</g>
	<g>
		<path style="fill:#FFFFFF;" d="M85.451,174.678l1.344-7.724l-1.624-0.284l0.2-1.164l3.102,0.548l-1.551,8.88L85.451,174.678z"/>
		<path style="fill:#FFFFFF;" d="M92.653,175.7l2.25-2.751l-0.518-0.038c-0.833-0.066-1.531-0.421-2.07-1.064
			c-0.55-0.632-0.787-1.374-0.721-2.22c0.021-0.284,0.077-0.558,0.171-0.832c0.114-0.278,0.26-0.54,0.451-0.783
			c0.34-0.501,0.76-0.872,1.265-1.109c0.504-0.229,1.071-0.323,1.703-0.277c0.441,0.034,0.85,0.151,1.236,0.337
			c0.379,0.179,0.714,0.436,1.01,0.768c0.282,0.316,0.493,0.681,0.633,1.088c0.138,0.387,0.194,0.775,0.164,1.161
			c-0.041,0.515-0.224,1.042-0.545,1.572c-0.191,0.322-0.559,0.813-1.103,1.477v0.021l-2.295,2.775L92.653,175.7z M96.411,168.621
			c-0.346-0.385-0.78-0.602-1.315-0.639c-0.568-0.045-1.042,0.088-1.422,0.394c-0.387,0.314-0.605,0.759-0.65,1.319
			c-0.043,0.563,0.098,1.022,0.415,1.384c0.323,0.369,0.766,0.577,1.333,0.62c0.562,0.041,1.039-0.1,1.437-0.432
			c0.398-0.325,0.614-0.729,0.652-1.202C96.897,169.5,96.754,169.018,96.411,168.621z"/>
		<path style="fill:#FFFFFF;" d="M100.731,176.107l3.416-7.853L100,168.39l-0.041-1.299l5.607-0.182l0.041,1.368l-3.301,7.783
			L100.731,176.107z"/>
		<path style="fill:#FFFFFF;" d="M109.47,175.551l2.248-8.268l-4.077,0.729l-0.227-1.279l5.515-0.981l0.237,1.35l-2.138,8.17
			L109.47,175.551z"/>
	</g>
	<g>
		<path style="fill:#142280;" d="M84.044,28.287l0.306,1.215l-2.214,0.56l0.327,1.3l2.213-0.558l0.62,2.446l0.792-0.204
			c0.395-0.113,0.626-0.505,0.552-0.902l-1.075-4.242L84.044,28.287z"/>
		<path style="fill:#142280;" d="M83.291,33.552l-0.303-1.214c-1.046,0.11-1.88-0.115-2.506-0.675
			c-0.535-0.477-0.923-1.2-1.161-2.175l-1.637,0.416c0.237,0.982,0.239,1.803,0.007,2.462c-0.269,0.789-0.895,1.386-1.861,1.793
			l0.354,1.378c0.646-0.191,1.24-0.521,1.783-0.986c0.637-0.556,1.069-1.205,1.294-1.948c0.383,0.398,0.832,0.7,1.325,0.907
			c0.467,0.187,0.964,0.292,1.489,0.31c-0.85,0.352-1.497,0.883-1.938,1.607c-0.471,0.778-0.596,1.604-0.377,2.481
			c0.247,0.971,0.829,1.675,1.747,2.116c0.86,0.413,1.777,0.498,2.756,0.25c0.978-0.25,1.756-0.759,2.333-1.534
			c0.609-0.828,0.792-1.727,0.547-2.696c-0.212-0.845-0.704-1.494-1.469-1.948C84.97,33.673,84.18,33.491,83.291,33.552z
			 M85.253,37.977c-0.326,0.475-0.762,0.782-1.31,0.92c-0.542,0.14-1.071,0.075-1.586-0.19c-0.531-0.269-0.865-0.672-1-1.199
			c-0.137-0.538-0.034-1.054,0.304-1.542c0.334-0.461,0.771-0.76,1.314-0.898c0.549-0.141,1.08-0.083,1.588,0.164
			c0.535,0.268,0.867,0.675,1.002,1.211C85.699,36.975,85.597,37.485,85.253,37.977z"/>
	</g>
	<g>
		<path style="fill:#142280;" d="M105.646,26.678l-1.499-0.006l-0.009,3.523h-1.23l0.012-3.523l-1.471-0.004l-0.018,7.202
			l-4.821-0.01l0.011-5.866l3.562,0.009l0.005-1.34l-5.154-0.011l-0.017,7.71c0,0.321,0.096,0.546,0.292,0.678
			c0.157,0.105,0.395,0.158,0.718,0.158l5.404,0.011l-0.005,2.495l0.729,0.002c0.395-0.019,0.71-0.333,0.736-0.728l0.011-5.449
			l1.236,0.002l-0.016,6.179l0.769,0.005c0.395-0.029,0.704-0.334,0.734-0.727"/>
		<path style="fill:#FFFFFF;" d="M104.892,37.718c0,0,0,0-0.006,0"/>
	</g>
	<g>
		<path style="fill:none;" d="M117.29,33.366c0.384,0.1,0.75,0.055,1.114-0.128c0.376-0.182,0.607-0.445,0.695-0.788
			c0.095-0.363,0.021-0.714-0.209-1.056c-0.23-0.325-0.537-0.539-0.916-0.638c-0.391-0.104-0.769-0.067-1.131,0.108
			c-0.364,0.182-0.591,0.457-0.688,0.817c-0.086,0.346-0.021,0.685,0.211,1.025C116.594,33.042,116.901,33.265,117.29,33.366z"/>
		<path style="fill:#142280;" d="M124.952,32.615l0.454-1.733l-1.524-0.398l-1.338,5.131l0.811,0.211
			c0.395,0.068,0.763-0.148,0.894-0.521l0.368-1.396l1.533,0.403l0.341-1.297L124.952,32.615z"/>
		<path style="fill:#142280;" d="M114.654,31.233c-0.202,0.763-0.057,1.474,0.431,2.132c0.458,0.624,1.094,1.04,1.908,1.25
			c0.798,0.21,1.54,0.154,2.231-0.168c0.726-0.339,1.193-0.893,1.395-1.656c0.065-0.234,0.07-0.474,0.033-0.717
			c-0.033-0.231-0.103-0.459-0.217-0.675l0.875,0.229l0.332-1.262l-2.459-0.642l0.271-1.026l-1.646-0.429l-0.267,1.022l-2.597-0.674
			l-0.333,1.262l0.892,0.232c-0.219,0.127-0.405,0.291-0.546,0.477C114.816,30.782,114.713,30.998,114.654,31.233z M116.844,30.864
			c0.362-0.176,0.74-0.212,1.131-0.108c0.379,0.1,0.686,0.313,0.916,0.638c0.229,0.342,0.304,0.693,0.209,1.056
			c-0.088,0.343-0.319,0.606-0.695,0.788c-0.364,0.183-0.73,0.228-1.114,0.128c-0.389-0.101-0.696-0.325-0.923-0.659
			c-0.231-0.34-0.297-0.68-0.211-1.025C116.253,31.321,116.479,31.046,116.844,30.864z"/>
		<line style="fill:#FFFFFF;" x1="123.354" y1="35.826" x2="123.354" y2="35.826"/>
		<path style="fill:#142280;" d="M121.908,41.394c0.379,0.069,0.745-0.142,0.88-0.501l0.97-3.712l-9.766-2.551l-0.341,1.314
			l8.241,2.152l-0.803,3.088"/>
	</g>
	<g>
		<path style="fill:#142280;" d="M139.031,48.586l0.321-0.581l-0.824-0.46l4.42-7.95l-8.55-4.752l-0.65,1.172l7.174,3.987
			l-3.769,6.781l-1.872-1.041l2.261-4.068l-1.36-0.757l-2.261,4.068l-1.546-0.86l2.26-4.066l-1.372-0.764l-2.267,4.066l-1.63-0.908
			l-0.658,1.187l9.385,5.217C138.432,48.998,138.82,48.887,139.031,48.586z"/>
	</g>
	<g>
		<path style="fill:#142280;" d="M67.746,39.209l0.681-0.356c-0.004,0.002-0.005,0.005-0.012,0.005l0.055-0.03
			c0.353-0.204,0.491-0.639,0.322-1.009l-0.043-0.078l-2.109-4.006l-1.392,0.731l0.551,1.042l-1.469,0.772l0.624,1.192l1.465-0.779
			l0.344,0.652l-1.467,0.774l0.624,1.183l1.468-0.773L67.746,39.209z"/>
		<path style="fill:#142280;" d="M68.159,39.955l0.5,0.938l-6.171,3.252l-0.491-0.94l-1.379,0.727l1.773,3.355
			c0.163,0.311,0.351,0.493,0.57,0.559c0.201,0.062,0.445,0.018,0.723-0.13l7.26-3.83c0.281-0.146,0.449-0.319,0.507-0.517
			c0.079-0.213,0.041-0.477-0.129-0.791l-1.768-3.358L68.159,39.955z M69.764,42.994l-6.168,3.251l-0.525-0.997l6.17-3.25
			L69.764,42.994z"/>
		<path style="fill:#142280;" d="M58.975,41.114c0.361,0.689,0.931,1.107,1.713,1.256c0.735,0.136,1.458,0.017,2.17-0.365
			c0.717-0.377,1.218-0.901,1.504-1.574c0.314-0.725,0.286-1.429-0.077-2.116c-0.109-0.206-0.264-0.386-0.449-0.534
			c-0.174-0.132-0.364-0.242-0.581-0.327l0.842-0.445l-0.588-1.121l-2.276,1.197l-0.495-0.934l-1.499,0.789l0.493,0.938
			l-2.349,1.237l0.593,1.121l0.874-0.46c-0.065,0.231-0.089,0.455-0.075,0.676C58.799,40.686,58.864,40.908,58.975,41.114z
			 M60.331,39.427c0.136-0.34,0.378-0.599,0.729-0.784c0.344-0.182,0.703-0.237,1.075-0.168c0.389,0.081,0.663,0.278,0.829,0.596
			c0.163,0.301,0.163,0.635,0.017,1.012c-0.153,0.364-0.398,0.638-0.735,0.812c-0.347,0.185-0.706,0.232-1.072,0.138
			c-0.369-0.09-0.639-0.29-0.804-0.596C60.209,40.119,60.191,39.785,60.331,39.427z"/>
		<path style="fill:#142280;" d="M68.443,38.845c0.009-0.004,0.014-0.007,0.021-0.011l-0.038,0.018
			C68.433,38.849,68.44,38.848,68.443,38.845z"/>
		<path style="fill:#142280;" d="M68.415,38.857c0.006,0,0.008-0.002,0.012-0.005l0.038-0.018c0-0.003,0.006-0.003,0.006-0.007
			L68.415,38.857z"/>
	</g>
	<g>
		<g>
			<path style="fill:#F6AC19;" d="M137.583,72.415C108.758,74.233,99.93,60.337,99.93,60.337v84.08
				C147.444,130.729,137.583,72.415,137.583,72.415z M62.27,72.415c0,0-9.856,58.313,37.655,72.002v-84.08
				C99.924,60.337,91.092,74.233,62.27,72.415z"/>
		</g>
	</g>
	<path style="fill:#142280;" d="M128.051,99.138c-1.086-21.378-22.273-26.054-22.273-26.054v12.517H102.3V72.485h-4.783v13.116
		h-3.474V73.084c0,0-21.177,4.675-22.263,26.054c0,0-1.602,15.714,14.302,24.95h-5.06v4.387h15.114v-5.271
		c0,0-20.087-5.684-19.583-22.581c0,0-1.097-14.02,13.023-21.187v6.083h-4.079v4.458h4.175v9.364h4.371v-9.364h3.474v38.595h4.783
		V89.978h3.478v9.364h4.378v-9.364h4.169V85.52h-4.065v-6.083c14.127,7.167,13.016,21.187,13.016,21.187
		c0.512,16.897-19.573,22.581-19.573,22.581v5.271h15.104v-4.383h-5.071C129.646,114.852,128.051,99.138,128.051,99.138z"/>
</g>
</svg>
