<?xml version="1.0" encoding="iso-8859-1"?>
<!-- Generator: Adobe Illustrator 15.1.0, SVG Export Plug-In . SVG Version: 6.00 Build 0)  -->
<!DOCTYPE svg PUBLIC "-//W3C//DTD SVG 1.1//EN" "http://www.w3.org/Graphics/SVG/1.1/DTD/svg11.dtd">
<svg version="1.1" id="&#xB808;&#xC774;&#xC5B4;_1" xmlns="http://www.w3.org/2000/svg" xmlns:xlink="http://www.w3.org/1999/xlink"
	 x="0px" y="0px" width="200px" height="200px" viewBox="0 0 200 200" style="enable-background:new 0 0 200 200;"
	 xml:space="preserve">
<g>
	<rect x="81.331" y="80.929" style="fill:#00498E;" width="6.639" height="38.137"/>
	<polygon style="fill:#00498E;" points="46.219,119.069 34.071,99.282 44.462,80.929 37.845,80.929 29.827,95.229 29.827,80.929 
		23.304,80.929 23.304,119.069 29.827,119.069 29.827,104.216 39.134,119.069 	"/>
	<g>
		<path style="fill:#00498E;" d="M69.313,82.229c-1.981-1.525-4.335-1.855-8.177-1.855s-6.193,0.33-8.174,1.855
			c-1.988,1.531-2.197,3.186-2.197,5.398v24.744c0,2.215,0.209,3.867,2.197,5.398c1.98,1.527,4.332,1.855,8.174,1.855
			s6.195-0.328,8.177-1.855c1.985-1.531,2.197-3.184,2.197-5.398V87.628C71.51,85.415,71.298,83.761,69.313,82.229z M65.075,113.04
			c0,2.582-1.208,3.617-3.939,3.617c-2.729,0-3.939-1.035-3.939-3.617V86.96c0-2.58,1.21-3.617,3.939-3.617
			c2.73,0,3.939,1.037,3.939,3.617V113.04z"/>
		<g>
			<path style="fill:#00498E;" d="M110.676,113.813c0,1.555-0.814,2.85-3.088,2.85c-2.168,0-3.345-1.004-3.345-2.863V86.198
				c0-1.82,0.938-2.85,3.343-2.85c2.134,0,3.09,1.029,3.09,2.832v4.4h6.824v-2.785c0-2.215-0.207-4.041-2.197-5.566
				c-1.84-1.412-3.91-1.855-7.456-1.855c-3.692,0-5.859,0.33-7.842,1.855c-1.986,1.531-2.196,3.186-2.196,5.398v24.744
				c0,2.215,0.21,3.867,2.196,5.398c1.982,1.527,4.149,1.855,7.842,1.855c3.546,0,5.474-0.328,7.456-1.855
				c1.987-1.531,2.197-3.352,2.197-5.566v-3.539h-6.824V113.813z"/>
		</g>
	</g>
	<g>
		<path style="fill:#00498E;" d="M156.57,101.546c0,0,2.084-0.127,4.023,0.814c1.94,0.941,3.004,2.6,3.004,2.6
			s-2.087,0.129-4.023-0.811C157.633,103.208,156.57,101.546,156.57,101.546z"/>
		<path style="fill:#00498E;" d="M143.858,99.829c0,0,2.131,0.104,4.159-0.834c2.033-0.939,3.192-2.57,3.192-2.57
			s-2.133-0.104-4.164,0.836C145.018,98.2,143.858,99.829,143.858,99.829z"/>
		<path style="fill:#00498E;" d="M144.232,100.403c0,0,2.025-0.289,3.954,0.422c1.925,0.713,3.032,2.156,3.032,2.156
			s-2.019,0.291-3.949-0.422C145.34,101.849,144.232,100.403,144.232,100.403z"/>
		<path style="fill:#00498E;" d="M150.611,99.517c0,0,1.992,0.518,4.164,0.01c2.171-0.508,3.699-1.852,3.699-1.852
			s-1.993-0.518-4.163-0.012C152.139,98.169,150.611,99.517,150.611,99.517z"/>
		<path style="fill:#00498E;" d="M150.687,100.056c0,0,0.604,1.748,2.173,2.971c1.564,1.219,3.507,1.455,3.507,1.455
			s-0.606-1.746-2.175-2.967S150.687,100.056,150.687,100.056z"/>
		<path style="fill:#00498E;" d="M156.609,100.983c0,0,2.177,0.389,4.4-0.266c2.226-0.652,3.66-2.098,3.66-2.098
			s-2.174-0.383-4.4,0.266C158.046,99.542,156.609,100.983,156.609,100.983z"/>
		<path style="fill:#00498E;" d="M164.461,101.327c0,0,1.869-0.377,3.382-1.607c1.51-1.232,2.091-2.852,2.091-2.852
			s-1.866,0.379-3.377,1.615C165.042,99.712,164.461,101.327,164.461,101.327z"/>
		<path style="fill:#00498E;" d="M169.618,100.337c0,0,2.217-0.078,4.171-1.314c1.953-1.238,2.907-3.17,2.907-3.17
			s-2.211,0.227-4.16,1.467C170.576,98.554,169.618,100.337,169.618,100.337z"/>
		<path style="fill:#00498E;" d="M163.775,102.229c0,0,1.579,1.07,3.593,1.246c2.021,0.172,3.708-0.617,3.708-0.617
			s-1.588-1.074-3.602-1.248C165.454,101.438,163.775,102.229,163.775,102.229z"/>
	</g>
	<path style="fill:#00498E;" d="M143.451,100.649c-2.395,0.564-4.354,1.424-5.957,2.412l-0.262-1.359
		c-0.001,0.002-0.002,0.002-0.003,0.004v-0.002c-1.644,0.742-3.452,1.787-5.216,3.252l0,0l2.835-14.676h0.211l-0.024,0.068
		l2.194,11.355c3.212-1.451,5.774-1.75,6.081-1.783l-3.667-18.926h-9.414l-7.373,38.049h6.437l1.582-8.193l0.084-0.266
		c0.336-0.896,1.986-4.717,6.533-7.52l3.1,16.045h6.436L143.451,100.649z"/>
</g>
</svg>
