<?xml version="1.0" encoding="iso-8859-1"?>
<!-- Generator: Adobe Illustrator 15.1.0, SVG Export Plug-In . SVG Version: 6.00 Build 0)  -->
<!DOCTYPE svg PUBLIC "-//W3C//DTD SVG 1.1//EN" "http://www.w3.org/Graphics/SVG/1.1/DTD/svg11.dtd">
<svg version="1.1" id="&#xB808;&#xC774;&#xC5B4;_1" xmlns="http://www.w3.org/2000/svg" xmlns:xlink="http://www.w3.org/1999/xlink"
	 x="0px" y="0px" width="200px" height="200px" viewBox="0 0 200 200" style="enable-background:new 0 0 200 200;"
	 xml:space="preserve">
<g>
	<g>
		<g>
			<g>
				<path style="fill:#910023;" d="M27.653,77.048c0.101-0.298,1.556-4.638,1.556-4.638l-1.899-0.636c0,0-1.448,4.346-1.548,4.642
					c-0.279-0.087-3.489-1.167-3.761-1.258c0.313-1.03,1.892-5.68,1.906-5.732l0.062-0.157l-1.941-0.652l-2.819,8.412l0.161,0.052
					l14.343,4.789l3.119-9.312l-2.034-0.673c0,0-2.169,6.49-2.27,6.797C32.235,78.58,27.938,77.146,27.653,77.048L27.653,77.048z"/>
				<path style="fill:#910023;" d="M179.477,124.526l0.716-2.326l-12.82-10.476l-0.699,2.252c0,0,4.624,3.544,4.8,3.679
					c-0.061,0.202-1.544,5.046-1.62,5.253c-0.218,0.006-6.048,0.365-6.048,0.365l-0.86,2.797l16.492-1.429L179.477,124.526
					 M172.032,122.69c0.122-0.391,1.044-3.346,1.159-3.746c0.331,0.268,3.654,2.927,4.214,3.378
					C176.687,122.365,172.457,122.662,172.032,122.69L172.032,122.69z"/>
				<polygon style="fill:#910023;" points="100.744,168.138 101.146,183.458 103.786,183.389 103.365,168.065 103.208,168.068 
					100.744,168.138 				"/>
				<polygon style="fill:#910023;" points="178.241,69.484 163.827,74.658 164.722,77.146 179.13,71.95 179.075,71.809 
					178.241,69.484 				"/>
				<polygon style="fill:#910023;" points="183.459,102.47 168.165,101.531 168.002,104.164 183.298,105.087 183.309,104.926 
					183.459,102.47 				"/>
				<polygon style="fill:#910023;" points="18.018,114.313 33.192,111.875 32.778,109.271 17.614,111.725 17.641,111.88 
					18.018,114.313 				"/>
				<path style="fill:#910023;" d="M156.34,151.194c-0.021,0.003-2.185,0.682-2.185,0.682l-1.862,0.575
					c-1.399,0.405-2.378,0.316-2.916-0.246c-0.446-0.473-0.572-1.019-0.359-1.677c0.162-0.516,0.549-1.056,1.159-1.599
					c0.991-0.897,2.258-1.551,3.16-1.642l0.337-0.028l-1.855-1.971l-0.11,0.059c-1.021,0.49-1.976,1.165-2.854,2.003
					c-1.147,1.087-1.903,2.23-2.245,3.413c-0.414,1.392-0.14,2.606,0.813,3.617c0.976,1.025,2.306,1.394,3.946,1.085
					c0.021-0.005,0.808-0.249,0.808-0.249l3.245-1.019c1.394-0.393,2.404-0.269,3.021,0.372c0.453,0.49,0.57,1.115,0.351,1.905
					c-0.2,0.715-0.563,1.312-1.087,1.808c-1.2,1.126-2.604,1.877-4.173,2.261l-0.344,0.085l1.692,1.838l0.535-0.227
					c1.213-0.516,2.378-1.298,3.467-2.33c1.361-1.291,2.187-2.753,2.396-4.207c0.187-1.383-0.223-2.603-1.205-3.638
					C159.226,151.162,157.967,150.877,156.34,151.194L156.34,151.194z"/>
				<path style="fill:#910023;" d="M156.165,47.263c-0.009-0.02-0.847-2.132-0.847-2.132l-0.719-1.812
					c-0.496-1.37-0.485-2.35,0.037-2.926c0.436-0.48,0.974-0.641,1.642-0.483c0.529,0.114,1.098,0.462,1.682,1.038
					c0.967,0.921,1.714,2.138,1.866,3.023l0.057,0.34l1.818-2.001l-0.055-0.109c-0.56-0.978-1.313-1.879-2.203-2.689
					c-1.177-1.065-2.374-1.741-3.574-1.991c-1.424-0.313-2.615,0.057-3.545,1.083c-0.956,1.046-1.225,2.39-0.798,4.013
					c0.012,0.024,0.316,0.784,0.316,0.784l1.257,3.167c0.496,1.363,0.443,2.385-0.15,3.039c-0.444,0.489-1.063,0.658-1.871,0.495
					c-0.723-0.152-1.351-0.464-1.884-0.954c-1.209-1.115-2.068-2.452-2.569-3.992l-0.101-0.331l-1.716,1.816l0.266,0.516
					c0.612,1.176,1.477,2.282,2.589,3.292c1.395,1.263,2.91,1.98,4.369,2.072c1.392,0.086,2.585-0.413,3.539-1.469
					C156.405,50.139,156.599,48.857,156.165,47.263L156.165,47.263z"/>
				<path style="fill:#910023;" d="M90.507,179.449c-0.001-0.005-1.948-3.561-2.44-4.449c0.557-0.096,1.52-0.347,2.339-0.949
					c0.891-0.647,1.429-1.485,1.605-2.452c0.194-1.109-0.064-2.087-0.772-2.919c-0.726-0.86-1.863-1.429-3.352-1.694l-4.827-0.845
					l-0.174-0.032l-2.639,15.033l2.674,0.477l0.045-0.229c0.028-0.525,0.146-1.259,0.461-3.077c0,0,1.685-9.548,1.742-9.874
					c2.453,0.407,3.38,0.897,3.707,1.229c0.459,0.455,0.612,1.023,0.481,1.739c-0.309,1.666-1.688,2.446-4.253,2.383l-0.285-0.013
					l4.07,7.727c0.483,0.896,1.329,1.448,2.512,1.648l2.152,0.39l-0.398-0.383C92.216,182.243,91.257,180.854,90.507,179.449
					L90.507,179.449z"/>
				<path style="fill:#910023;" d="M24.605,89.832c-0.616,0.549-1.073,1.307-1.376,2.254c-0.629-1.356-1.58-2.075-2.827-2.125
					c-1.061-0.057-1.938,0.359-2.593,1.22c-0.642,0.832-1.004,2.025-1.072,3.537l-0.196,4.547l15.273,0.649L31.939,97
					c0.05-1.278,0.07-2.132,0.046-2.613c-0.052-0.984-0.237-1.857-0.543-2.578c-0.356-0.83-0.892-1.533-1.603-2.091
					c-0.708-0.564-1.519-0.873-2.389-0.908C26.349,88.76,25.39,89.108,24.605,89.832z M18.553,96.713
					c0-0.068,0.087-1.274,0.087-1.274c0.01-0.839,0.133-1.485,0.536-1.969c0.332-0.398,0.782-0.616,1.474-0.59
					c0.604,0.028,1.319,0.196,1.682,0.995c0.274,0.621,0.3,1.522,0.268,2.411c0,0-0.026,0.527-0.03,0.601
					C22.496,96.881,18.625,96.722,18.553,96.713z M29.438,92.863c0.415,0.682,0.511,1.376,0.422,2.489c0,0-0.071,1.653-0.092,1.842
					c-0.076-0.002-5.244-0.229-5.314-0.23c0-0.068,0.055-1.439,0.055-1.439c-0.007-1.061,0.224-2.028,0.729-2.757
					c0.577-0.819,1.374-1.163,2.163-1.106C28.381,91.724,29.106,92.318,29.438,92.863z"/>
				<path style="fill:#910023;" d="M110.33,167.484l0.033,0.161l0.39,1.801c0,0,3.865-0.857,4.168-0.923
					c0.074,0.322,2.9,12.988,2.9,12.988l2.576-0.582c0,0-2.822-12.659-2.89-12.983c0.303-0.062,4.249-0.938,4.249-0.938
					l-0.439-1.974L110.33,167.484L110.33,167.484z"/>
				<path style="fill:#910023;" d="M168.452,50.723l-0.14,0.087l-1.578,0.945c0,0,2.036,3.388,2.199,3.652
					c-0.285,0.172-11.39,6.881-11.39,6.881l1.361,2.263c0,0,11.113-6.712,11.398-6.883c0.154,0.269,2.24,3.737,2.24,3.737
					l1.731-1.04L168.452,50.723L168.452,50.723z"/>
				<path style="fill:#910023;" d="M182.081,81.623l-0.164,0.016l-1.827,0.218c0,0,0.469,3.922,0.508,4.234
					c-0.329,0.038-13.215,1.586-13.215,1.586l0.312,2.621c0,0,12.886-1.54,13.217-1.581c0.039,0.31,0.514,4.33,0.514,4.33
					l2.006-0.246L182.081,81.623L182.081,81.623z"/>
				<path style="fill:#910023;" d="M38.723,41.979l0.118,0.113l1.278,1.329c0,0,2.836-2.749,3.06-2.961
					c0.233,0.236,9.258,9.538,9.258,9.538l1.899-1.844c0,0-9.021-9.304-9.254-9.543c0.225-0.213,3.131-3.028,3.131-3.028
					l-1.407-1.445L38.723,41.979L38.723,41.979z"/>
				<polygon style="fill:#910023;" points="24.08,133.597 38.357,128.008 34.769,118.844 32.784,119.654 35.397,126.32 
					23.105,131.133 				"/>
				<g>
					<path style="fill:#910023;" d="M59.396,155.169c0,0-10.315,5.987-11.073,6.423c0.301-0.823,4.389-11.993,4.389-11.993
						l-2.322-1.937l-5.432,15.463l1.843,1.526l14.386-7.999l-0.189-0.154L59.396,155.169z"/>
				</g>
				<path style="fill:#910023;" d="M42.692,55.775c-0.005,0.011-4.045,0.383-5.058,0.474c0.131-0.547,0.284-1.533,0.063-2.524
					c-0.242-1.073-0.797-1.899-1.623-2.444c-0.93-0.617-1.934-0.766-2.974-0.454c-1.079,0.334-2.049,1.144-2.887,2.415l-2.689,4.09
					l-0.089,0.145l12.733,8.398l1.495-2.276l-0.197-0.13c-0.464-0.229-1.089-0.625-2.637-1.645c0,0-8.088-5.336-8.359-5.518
					c1.351-2.097,2.158-2.747,2.602-2.915c0.592-0.239,1.18-0.151,1.781,0.247c1.407,0.939,1.572,2.524,0.492,4.848l-0.123,0.264
					l8.706-0.671c1.008-0.091,1.855-0.646,2.515-1.651l1.198-1.823l-0.503,0.209C45.922,55.316,44.273,55.649,42.692,55.775
					L42.692,55.775z"/>
				<path style="fill:#910023;" d="M88.814,23.985c-0.02-0.009-2.195-0.636-2.195-0.636l-1.877-0.538
					c-1.387-0.445-2.154-1.051-2.291-1.82c-0.11-0.638,0.085-1.166,0.627-1.592c0.407-0.348,1.035-0.587,1.847-0.703
					c1.316-0.198,2.733-0.043,3.532,0.377l0.304,0.158l-0.472-2.665l-0.12-0.022c-1.122-0.146-2.289-0.103-3.487,0.106
					c-1.553,0.277-2.814,0.815-3.746,1.607c-1.115,0.935-1.555,2.105-1.32,3.466c0.249,1.396,1.152,2.437,2.696,3.084
					c0.013,0.011,0.81,0.238,0.81,0.238l3.267,0.942c1.381,0.438,2.161,1.104,2.313,1.973c0.118,0.66-0.129,1.241-0.754,1.787
					c-0.559,0.478-1.194,0.783-1.9,0.91c-1.621,0.274-3.209,0.134-4.728-0.42l-0.327-0.111l0.388,2.461l0.574,0.111
					c1.294,0.239,2.703,0.225,4.18-0.038c1.847-0.329,3.346-1.089,4.313-2.184c0.916-1.065,1.252-2.304,1.005-3.702
					C91.239,25.552,90.352,24.614,88.814,23.985L88.814,23.985z"/>
				<g>
					<path style="fill:#910023;" d="M62.654,24.216l-2.179,1.091l1.337,16.512l2.108-1.062c0,0-0.66-5.788-0.688-6.011
						c0.205-0.098,4.712-2.372,4.917-2.472c0.159,0.151,4.457,4.102,4.457,4.102l2.616-1.315L62.755,24.167L62.654,24.216
						 M66.479,30.851c-0.368,0.182-3.125,1.57-3.5,1.76c-0.04-0.418-0.422-4.66-0.488-5.37
						C63.023,27.722,66.167,30.564,66.479,30.851L66.479,30.851z"/>
				</g>
				<g>
					<path style="fill:#910023;" d="M145.825,28.789l-1.609-0.889l-4.536,8.256c-1.358,2.455-2.663,3.474-5.684,1.803l0.023,0.011
						c-2.008-1.106-2.323-2.942-0.938-5.454c0.005-0.007,4.564-8.238,4.564-8.238l-2.321-1.282l-4.563,8.243
						c-0.555,1-0.895,1.714-1.039,2.163c-0.278,0.84-0.324,1.657-0.128,2.441c0.349,1.438,1.326,2.613,2.918,3.497l1.122,0.619
						c1.592,0.875,3.116,1.076,4.517,0.605c0.764-0.255,1.437-0.734,1.992-1.409c0.31-0.365,0.726-1.028,1.285-2.032l4.543-8.252
						L145.825,28.789L145.825,28.789z"/>
				</g>
				<g>
					<path style="fill:#910023;" d="M65.854,168.09c0.282,0.131,4.429,2.086,4.429,2.086l0.854-1.808c0,0-4.146-1.948-4.434-2.079
						c0.131-0.271,1.572-3.328,1.696-3.592c0.988,0.438,5.415,2.555,5.466,2.577l0.151,0.076l0.875-1.854l-8.026-3.789l-0.07,0.152
						l-6.438,13.683l8.886,4.19l0.905-1.945c0,0-6.193-2.909-6.481-3.047C63.8,172.461,65.729,168.362,65.854,168.09L65.854,168.09z
						"/>
				</g>
				<g>
					<path style="fill:#910023;" d="M134.152,159.168l-2.141,1.16l1.838,16.46l2.069-1.122c0,0-0.832-5.769-0.862-5.991
						c0.193-0.104,4.643-2.513,4.83-2.619c0.174,0.152,4.591,3.972,4.591,3.972l2.569-1.394l-12.787-10.521L134.152,159.168
						 M138.184,165.688c-0.366,0.184-3.079,1.662-3.443,1.86c-0.052-0.416-0.565-4.646-0.657-5.345
						C134.63,162.665,137.866,165.407,138.184,165.688L138.184,165.688z"/>
				</g>
			</g>
		</g>
	</g>
	<g>
		<path style="fill:#910023;" d="M136.459,108.385V56.244h-1.246H64.797v52.169c-0.006,0.76-0.051,19.092,13.001,29.959
			l-0.029-0.023c0.412,0.363,10.175,8.924,22.303,14.15l0.241,0.101h0.652l0.25-0.12c11.678-5.414,22.324-14.012,22.434-14.097
			C136.718,127.501,136.477,109.162,136.459,108.385z"/>
		<g>
			<polygon style="fill:#E1D7C7;" points="67.432,58.898 67.432,59.408 133.991,59.408 133.991,58.898 67.432,58.898 			"/>
			<polygon style="fill:#E1D7C7;" points="67.432,73.149 67.432,73.658 133.991,73.658 133.991,73.149 67.432,73.149 			"/>
			<polygon style="fill:#E1D7C7;" points="67.28,81.658 67.28,82.166 133.844,82.166 133.844,81.658 67.28,81.658 			"/>
			<path style="fill:#E1D7C7;" d="M79.836,70.97c-0.354-0.271-0.692-0.524-1.421-1.288c0,0-3.075-3.402-3.543-3.923
				c0.118-0.146,3.576-4.373,3.576-4.376l0.205-0.214h-0.261h-1.483l-3.885,4.806v-4.806H72.91h-1.646v10.151h1.76V66.12
				l4.057,4.518c0.335,0.448,0.942,0.682,1.788,0.682h1.45l-0.346-0.247L79.836,70.97L79.836,70.97z"/>
			<path style="fill:#E1D7C7;" d="M88.161,60.867c-1.547-0.007-2.879,0.512-3.957,1.547c-1.076,1.034-1.625,2.305-1.625,3.774
				c0,1.55,0.541,2.852,1.609,3.869c1.039,0.995,2.324,1.498,3.826,1.498c1.5,0,2.803-0.521,3.872-1.553
				c1.063-1.032,1.611-2.342,1.611-3.887c0-1.417-0.505-2.647-1.494-3.654C90.977,61.414,89.681,60.878,88.161,60.867
				 M88.086,70.234c-1.056,0-1.951-0.443-2.646-1.317c-0.651-0.812-0.982-1.775-0.982-2.862c0-1.122,0.331-2.059,0.984-2.781
				c0.654-0.717,1.533-1.078,2.614-1.078c1.062,0,1.941,0.438,2.622,1.301c0.622,0.798,0.938,1.782,0.938,2.919
				c0,1.106-0.319,2.025-0.953,2.735C90.013,69.866,89.143,70.234,88.086,70.234L88.086,70.234z"/>
			<path style="fill:#E1D7C7;" d="M112.715,66.466c0.211,0,3.265,0.001,3.265,0.001v-1.33c0,0-3.054,0.001-3.265,0.001
				c0-0.198,0-2.436,0-2.631c0.712-0.016,3.994,0,4.031,0h0.11v-1.364l-5.914-0.004v0.113l0.009,10.066h6.52l0.018-1.432
				c0,0-4.56,0.006-4.773,0.006C112.715,69.689,112.715,66.669,112.715,66.466L112.715,66.466z"/>
			<path style="fill:#E1D7C7;" d="M126.909,61.14h-1.629l-4.152,10.18h1.572c0,0,1.348-3.593,1.397-3.733c0.146,0,3.52,0,3.665,0
				c0.051,0.139,1.425,3.733,1.425,3.733h1.949l-4.153-10.18H126.909 M127.197,66.238c-0.274,0-2.333,0-2.609,0
				c0.101-0.264,1.144-2.899,1.319-3.343C126.077,63.339,127.099,65.977,127.197,66.238L127.197,66.238z"/>
			<path style="fill:#E1D7C7;" d="M104.821,69.019c0,0-1.688-2.108-2.114-2.642c0.35-0.127,0.959-0.4,1.429-0.888
				c0.509-0.53,0.766-1.139,0.766-1.801c0-0.745-0.283-1.359-0.843-1.823c-0.58-0.479-1.386-0.723-2.396-0.723h-3.267h-0.113v10.178
				h1.814v-0.158c-0.048-0.34-0.05-0.862-0.05-2.073c0,0,0-6.461,0-6.677c1.66-0.018,2.321,0.191,2.577,0.375
				c0.35,0.246,0.518,0.603,0.516,1.091c-0.007,1.125-0.83,1.794-2.519,2.049l-0.19,0.028l3.567,4.567
				c0.423,0.531,1.04,0.798,1.842,0.798h1.451l-0.301-0.205C106.267,70.619,105.474,69.855,104.821,69.019L104.821,69.019z"/>
			<path style="fill:#E1D7C7;" d="M98.424,77.945c0.1,0,1.558,0,1.558,0v-0.634c0,0-1.458,0.002-1.558,0.002
				c0-0.098,0-1.163,0-1.254c0.339-0.011,1.901,0,1.922,0h0.049v-0.651l-2.813-0.002v0.054l0.002,4.798h3.098l0.019-0.684
				c0,0-2.171,0.002-2.276,0.002C98.424,79.479,98.424,78.042,98.424,77.945L98.424,77.945z"/>
			<path style="fill:#E1D7C7;" d="M75.253,75.411h-0.586l0.006,2.99c0,0.891-0.208,1.377-1.304,1.377h-0.128
				c-0.729,0-1.098-0.465-1.098-1.377c0-0.002,0.004-2.99,0.004-2.99h-0.843l-0.002,2.993c0,0.362,0.013,0.611,0.043,0.761
				c0.051,0.27,0.163,0.508,0.337,0.7c0.318,0.343,0.771,0.521,1.348,0.521h0.544c0.577,0,1.032-0.179,1.348-0.521
				c0.174-0.192,0.286-0.43,0.337-0.7c0.03-0.15,0.042-0.399,0.042-0.761v-2.993H75.253L75.253,75.411z"/>
			<path style="fill:#E1D7C7;" d="M82.562,75.411l-0.002,0.054c0,0-0.004,3.228-0.004,3.508c-0.182-0.228-2.808-3.563-2.808-3.563
				h-0.729v4.858h0.635c0,0,0.003-3.348,0.003-3.632c0.177,0.229,2.844,3.63,2.844,3.63l0.701,0.002v-4.858h-0.06H82.562
				L82.562,75.411z"/>
			<polygon style="fill:#E1D7C7;" points="86.782,75.411 86.782,80.269 87.616,80.269 87.62,75.411 87.566,75.411 86.782,75.411 			
				"/>
			<polyline style="fill:#E1D7C7;" points="117.157,80.269 117.996,80.269 117.996,79.204 117.996,76.483 117.996,75.465 
				117.996,75.411 117.941,75.411 117.153,75.411 117.153,75.411 117.153,76.483 117.153,79.204 117.157,80.269 			"/>
			<path style="fill:#E1D7C7;" d="M94.089,75.411c0,0-1.295,3.549-1.39,3.808c-0.092-0.26-1.366-3.808-1.366-3.808h-0.953
				l1.809,4.862h0.76l1.877-4.862H94.75H94.089L94.089,75.411z"/>
			<path style="fill:#E1D7C7;" d="M113.05,77.808c-0.002-0.004-0.653-0.322-0.653-0.322l-0.555-0.274
				c-0.41-0.213-0.616-0.446-0.616-0.695c0-0.206,0.094-0.357,0.285-0.463c0.147-0.086,0.356-0.126,0.616-0.116
				c0.427,0.011,0.86,0.138,1.087,0.314l0.082,0.069v-0.865l-0.032-0.012c-0.342-0.104-0.71-0.163-1.096-0.163
				c-0.503,0-0.928,0.102-1.261,0.296c-0.403,0.231-0.605,0.573-0.605,1.014c0,0.448,0.227,0.827,0.671,1.112
				c0.002,0.003,0.237,0.119,0.237,0.119l0.972,0.474c0.407,0.216,0.613,0.466,0.613,0.746c0,0.214-0.108,0.383-0.335,0.516
				c-0.2,0.123-0.418,0.184-0.643,0.181c-0.522-0.004-1.015-0.134-1.459-0.39l-0.094-0.058l0.127,0.849l0.03,0.011
				c0.39,0.147,0.834,0.223,1.313,0.223c0.591,0,1.101-0.156,1.468-0.446c0.347-0.279,0.519-0.651,0.519-1.102
				C113.721,78.431,113.497,78.091,113.05,77.808L113.05,77.808z"/>
			<path style="fill:#E1D7C7;" d="M121.18,75.393v0.051l-0.002,0.584c0,0,1.254,0,1.354,0.003c0,0.104,0,4.224,0,4.224h0.836
				c0,0,0.002-4.12,0.002-4.224c0.101,0,1.386,0,1.386,0v-0.639H121.18L121.18,75.393z"/>
			<path style="fill:#E1D7C7;" d="M130.229,75.399c0,0-1.239,1.912-1.322,2.043c-0.087-0.131-1.307-2.049-1.307-2.049h-0.023h-0.941
				c0,0,1.729,2.72,1.749,2.747c0,0.029-0.004,2.116-0.004,2.116h0.838c0,0,0.007-2.083,0.007-2.115
				c0.018-0.028,1.818-2.742,1.818-2.742H130.229L130.229,75.399z"/>
			<path style="fill:#E1D7C7;" d="M106.991,79.163c0,0-0.802-1.005-1.006-1.261c0.171-0.061,0.46-0.192,0.68-0.42
				c0.241-0.255,0.366-0.544,0.366-0.86c0-0.357-0.133-0.646-0.401-0.871c-0.276-0.229-0.662-0.342-1.139-0.342h-1.562h-0.05v4.85
				h0.862v-0.076c-0.021-0.163-0.021-0.399-0.021-0.989c0,0,0-3.077,0-3.183c0.786-0.007,1.102,0.093,1.226,0.182
				c0.167,0.118,0.249,0.285,0.246,0.519c-0.003,0.535-0.395,0.857-1.197,0.978l-0.092,0.011l1.698,2.176
				c0.203,0.252,0.492,0.382,0.871,0.382h0.699l-0.148-0.101C107.68,79.925,107.303,79.558,106.991,79.163L106.991,79.163z"/>
		</g>
		<g>
			<path style="fill:#E1D7C7;" d="M133.963,108.413c0,0.011,0,0.048,0,0.11c0,1.54-0.271,18.259-11.895,27.935
				c-0.096,0.074-10.237,8.256-21.449,13.55c-11.558-5.083-21.103-13.441-21.198-13.528l-0.028-0.021
				c-11.966-9.961-12.103-27.379-12.103-28.017c0-0.007,0-11.582,0-23.571h66.673C133.963,96.848,133.963,108.413,133.963,108.413z"
				/>
		</g>
		<g>
			<path style="fill:#910023;" d="M95.019,141.663h0.916c0.127,0,0.082-0.113,0.082-0.113c-0.375-1.648-0.18-2.936-0.107-3.321
				c0,0,0.036-0.113-0.097-0.113h-0.904c-0.122,0-0.077,0.098-0.077,0.098c0.308,1.264,0.188,2.864,0.11,3.328
				C94.94,141.541,94.883,141.663,95.019,141.663L95.019,141.663z"/>
			<path style="fill:#910023;" d="M98.411,138.015c-1.457,0.14-1.368,1.85-1.368,1.85c0.088,1.546,1.692,1.838,1.692,1.838
				c-0.439,1.187-1.608,1.537-1.608,1.537c-0.278,0.109-0.075,0.188-0.075,0.188c0.35,0.115,0.86-0.087,0.86-0.087
				c2.142-0.958,2.196-3.206,2.196-3.206C100.153,137.848,98.411,138.015,98.411,138.015 M98.932,141.16
				c-0.697,0.02-0.866-1.067-0.866-1.067c-0.177-1.191,0.286-1.259,0.286-1.259c0.489-0.154,0.703,0.862,0.703,0.862
				C99.293,140.865,98.932,141.16,98.932,141.16L98.932,141.16z"/>
			<path style="fill:#910023;" d="M103.813,139.4c0,0-0.193-1.42-1.524-1.405c0,0-1.313-0.034-1.375,1.79
				c0,0-0.05,1.923,1.613,1.838C102.526,141.623,104.154,141.523,103.813,139.4 M102.549,141.016
				c-0.631,0.231-0.699-1.054-0.699-1.054c-0.067-1.229,0.432-1.348,0.432-1.348c0.505-0.129,0.646,0.774,0.646,0.774
				C103.158,140.785,102.549,141.016,102.549,141.016L102.549,141.016z"/>
			<path style="fill:#910023;" d="M104.204,142.118c1.404,0.276,1.775-0.719,1.775-0.719c0.446-1.411-1.315-1.479-1.315-1.479
				l0.284-1.818c0,0,1.771,0.082,2.244-0.153c0,0,0.108-0.073,0.048,0.194c0,0-0.099,0.604-0.678,0.646l-0.869,0.072l-0.082,0.514
				c0,0,1.505-0.032,1.477,1.594c0,0-0.055,1.255-1.523,1.566c0,0-0.691,0.15-1.484-0.175c0,0-0.117-0.059-0.055-0.152
				C104.025,142.209,104.08,142.092,104.204,142.118L104.204,142.118z"/>
			<path style="fill:#910023;" d="M99.021,108.073c0.113-0.136,0.255-0.039,0.377,0c0.112,0.032,0.115,0.252,0.18,0.368
				c0.036,0.078,0.256,0.303,0.277,0.37c0.177,0.816,0,1.888-0.368,2.509c-0.104,0.191-0.273,0.292-0.393,0.296
				c-0.155,0.016-0.205-0.211-0.259-0.296c-0.235-0.329-0.058-1.111,0-1.477c0.061-0.473-0.306-1.23-0.072-1.572L99.021,108.073
				L99.021,108.073z"/>
			<path style="fill:#910023;" d="M87.901,108.936c0.198-0.059,0.483,0.039,0.605,0l0.268-0.109
				c0.306-0.198,0.614-0.142,0.928-0.108c0.157,0.018,0.621,0.218,0.775,0.225c0.246,0.028,1.416,0.154,2.66,0.333
				c-0.011-0.005,0.663-0.087,0.494-0.274c0.106,0.119-0.018-0.103-0.272-0.189l-0.087-0.094c0.01-0.011-0.216-0.189,0.186-0.322
				c-0.155,0.046,0.262-0.062,0.343-0.15c0.163-0.172-0.075-0.357-0.075-0.357c-0.588-0.198-1.249,0.179-2.131,0.087
				c-0.438-0.037-1.054-0.285-1.666-0.185c-0.668,0.119-1.65,0.494-2.119,0.86C87.81,108.65,87.588,109.04,87.901,108.936
				L87.901,108.936z"/>
			<path style="fill:#910023;" d="M95.342,104.118c0.602-0.037,0.628,0.588,0.644,0.522c-0.07,0.446-1.163,0.483-1.42,0.832
				c-0.765,0.993-0.446,1.942-2.251,2.045c0,0-0.362-0.083-0.223-0.233c0.114-0.119,0.551-0.234,0.712-0.335
				c0.232-0.133,0.214-0.508,0.368-0.74c0.033-0.057,0.235-0.129,0.287-0.177c0.505-0.686,0.563-1.378,1.456-1.785
				C94.949,104.225,95.276,104.131,95.342,104.118L95.342,104.118z"/>
			<path style="fill:#910023;" d="M101.119,101.441c0.206-0.113,0.406,0,0.544,0.122c0.077,0.057,0.736,1.638,0.767,1.797
				c0.087,0.575,0.152,1.901-0.007,2.328c-0.221,0.59-0.77,1.05-0.65,2.102c0.064,0.618,0.339,1.102,0.598,1.64
				c0.029,0.087,0.303,0.614,0.316,0.723c0.1,0.568-0.207,1.299-0.257,1.756c-0.139,1.144,0.32,2.18,0.137,3.267
				c-0.076,0.471-0.228,0.705-0.484,0.997l-0.206,0.175c-0.057,0.11-0.158,0.152-0.261,0.23l-0.127,0.126
				c-0.192,0.048-0.211,0.161-0.291,0.17c-0.49,0.109-0.588-0.176-0.558-0.11c-0.494-1.398,0.335-3.027-0.09-4.376
				c-0.097-0.309-0.463-0.618-0.511-0.949c-0.17-1.206,0.96-1.845,0.945-2.657c0-0.579-0.762-1.332-0.935-1.9
				c-0.215-0.671-0.359-1.949-0.065-2.788c0.071-0.202,0.33-0.544,0.405-0.814c0.138-0.521,0.352-0.949,0.427-1.298
				c0.026-0.106,0.092-0.257,0.148-0.359C100.983,101.588,101.083,101.461,101.119,101.441L101.119,101.441z"/>
			<path style="fill:#910023;" d="M115.533,98.56c0.818-0.094,1.185,0.229,0.801,0.923l-0.159,0.15
				c-0.064,0.024-0.282,0.309-0.328,0.348c-0.395,0.292-0.767,0.468-1.067,0.837c-0.103,0.124-0.188,0.441-0.313,0.546
				c-0.207,0.148-0.984,0.492-1.185,0.527c-0.989,0.156-2.33-0.827-2.479-1.395c-0.126-0.492,0-0.965,0.211-1.076
				c0.334-0.172,1.216-0.083,1.512-0.115c0.762-0.057,1.241-0.013,1.822-0.216C114.703,98.978,115.108,98.61,115.533,98.56
				L115.533,98.56z"/>
			<path style="fill:#910023;" d="M111.325,98.231c0,0,0.462,0.194,0.878,0.094c0.292-0.074,0.836-0.322,1.11-0.37
				c0.168-0.042,0.401,0.043,0.563,0c0.45-0.139,1.28-1.021,0.287-1.117c-0.361-0.03-1.439,0.373-1.775,0.468
				c-0.333,0.085-0.544,0.142-0.822,0.288c-0.074,0.043-0.46,0.359-0.416,0.305C111.149,97.898,110.896,98.109,111.325,98.231
				L111.325,98.231z"/>
			<path style="fill:#910023;" d="M104.22,99.899c-0.293-0.042-0.293-0.527-1.021-0.368c-0.512,0.107-0.649,0.856-1.394,0.836
				l-0.368-0.181c-0.322-0.079-0.556,0.035-0.839-0.105c-1.307-0.612,1.015-3.748,1.764-3.707c0.038,0,0.425,0.142,0.476,0.183
				c0.23,0.205,0.23,1.078,0.45,1.396c0.17,0.22,0.431,0.203,0.655,0.37c0.236,0.179,0.687,0.795,0.737,1.12
				C104.68,99.444,104.801,99.978,104.22,99.899L104.22,99.899z"/>
			<path style="fill:#910023;" d="M116.295,125.249C116.311,125.233,116.311,125.229,116.295,125.249L116.295,125.249z"/>
			<path style="fill:#910023;" d="M126.711,97.661C126.711,97.647,126.711,97.646,126.711,97.661L126.711,97.661z"/>
			<rect x="116.291" y="125.25" style="fill:#910023;" width="0.004" height="0"/>
			<path style="fill:#910023;" d="M126.711,97.661c0,0.006,0.003,0.013,0.003,0.02l0.004,0.002
				C126.714,97.674,126.714,97.667,126.711,97.661L126.711,97.661z"/>
			<path style="fill:#910023;" d="M114.995,96.779c0.006-0.016,0.015-0.035,0.02-0.048
				C114.993,96.779,114.988,96.787,114.995,96.779L114.995,96.779z"/>
			<path style="fill:#910023;" d="M109.348,112.624c0,0-0.013,0-0.017-0.002C109.348,112.633,109.353,112.633,109.348,112.624
				L109.348,112.624z"/>
			<path style="fill:#910023;" d="M98.589,100.132c-0.505,0.283-1.61,0.718-1.84,1.209c-0.129,0.257-0.129,0.481-0.234,0.79
				c-0.014,0.03-0.15,0.087-0.192,0.179c-0.54,0-1.014-0.032-1.482,0.094c-0.365,0.104-0.892,0.49-1.299,0.562
				c-0.823,0.142-1.455-0.227-2.228-0.096c-0.344,0.062-0.565,0.418-0.847,0.563c-0.242,0.115-0.34,0.115-0.529,0.287l-0.171,0.198
				c-0.028,0.074-0.112,0.261-0.165,0.351c-0.167,0.25-0.236,0.51-0.276,0.781c-0.042,0.264-0.194,0.897-0.331,1.159
				c-0.068,0.128-0.416,0.414-0.466,0.529c-0.026,0.078-0.107,0.156,0,0.276c-0.122-0.133-0.097,0.129,0.57,0.163
				c0.736,0.016,2.338-0.475,2.338-0.475l0.769-0.414c0.149-0.115,0.744-0.565,0.877-0.725c0.56-0.692,2.057-3.224,3.223-2.562
				l0.209,0.148c0.277,0.468-0.072,1.806-0.282,2.11l-0.262,0.313c-0.209,0.069-0.354,0.607-0.383,0.858
				c-0.05,0.398,0.065,0.76,0.096,0.981c0.06,0.481,0.109,1.089-0.188,1.682c-0.063,0.115-0.23,0.322-0.186,0.643
				c0.056,0.365,0.572,0.631,0.647,0.934c0.044,0.152,0.177,0.175,0,0.467c-0.099,0.154-0.524,0.42-0.647,0.555
				c-0.17,0.17-0.023,0.438,0.088,0.545c0.322,0.289,0.588,0.326,0.835,0.659c0.358,0.458,0.336,0.854,1.118,0.931
				c0.614,0.057,1.483,0.089,1.116-0.747l-0.184-0.313c-0.22-0.547-0.601-1.032-0.653-1.629c-0.072-0.761,0.542-1.148,0.283-1.765
				c-0.205-0.47-1.132-0.418-1.21-1.032c-0.038-0.342,0.309-1.064,0.374-1.394c0.07-0.444-0.048-0.728,0.098-1.11
				c0.091-0.274,0.499-0.582,0.542-0.924c0.087-0.609-0.387-0.997-0.181-1.67c0.103-0.345,0.643-0.308,0.841-0.56
				c0.257-0.345,0.115-0.819,0.274-1.303c0.015-0.055,0.148-0.344,0.174-0.394c-0.015-0.022,0.106-0.622,0.106-0.622
				C98.853,99.991,98.618,100.143,98.589,100.132 M92.71,105.03c-0.521,0.12-0.565-0.988-1.817-0.557
				c-0.064,0.023-0.415,0.346-0.445,0.398c-0.146,0.331-0.066,1.174-0.233,1.256c0,0-0.486,0.118-0.39-0.494
				c0.148-0.978,0.338-1.16,0.831-1.57c0.066-0.054,0.251-0.193,0.346-0.213c0.591-0.136,1.678,0.091,1.874,0.39
				C93.043,104.486,92.686,105.037,92.71,105.03L92.71,105.03z"/>
			<path style="fill:#910023;" d="M126.714,97.68c-0.088-0.453-1.322-0.42-1.819-1.026c-0.185-0.242-0.048-0.375,0-0.557
				c0.142-0.529,1.271-0.216,1.531-0.684c0.106-0.198,0.144-0.78,0.074-0.862c-0.706-0.867-2.197-0.453-3.247-0.874
				c-0.51-0.207-1.139-0.627-1.673-0.83c-0.67-0.257-1.187-0.292-1.855-0.56c-0.152-0.065-0.45-0.281-0.607-0.349
				c-0.747-0.296-1.337-0.359-2.079-0.675c-0.09-0.033-0.314-0.159-0.412-0.201c-0.298-0.128-0.39-0.148-0.705-0.263
				c-1.148-0.414-2.609-0.782-4.273-0.677c-0.729,0.039-1.567-0.094-2.691,0.224c-0.388,0.098-0.933,0.434-1.296,0.549
				c-0.259,0.079-0.479,0.122-0.712,0.222c-0.324,0.133-0.61,0.32-1.052,0.427c-1.278,0.285-2.98-0.028-4.271,0.188
				c-1.123,0.181-1.77,0.888-2.693,1.204c-0.281,0.094-0.396,0.065-0.674,0.167c-0.162,0.055-0.545,0.157-0.674,0.227
				c-0.383,0.198-0.636,0.259-1.069,0.44c-0.217,0.098-0.475,0.296-0.685,0.396c-0.313,0.152-0.33,0.196-0.589,0.383l-0.209,0.155
				c0,0-0.454,0.398-0.508,0.466c-0.181,0.188-0.354,0.446-0.511,0.647c-0.47,0.546-1.178,1.239-1.766,1.664
				c-0.213,0.155-0.365,0.122-0.552,0.285c-0.221,0.168-0.417,0.351-0.628,0.512c-0.488,0.346-0.974,0.579-1.508,0.873l-0.345,0.229
				c-0.455,0.298-0.436,0.418-0.907,0.717c-0.307,0.209-0.439,0.523-0.722,0.765c-0.188,0.144-0.401,0.596-0.526,0.791
				c-0.585,0.855-0.803,2.114-1.219,3.173c-0.124,0.298-1.138,1.76-1.39,1.854l-0.187,0.176c-0.144,0.122-0.144,0.159-0.275,0.288
				c-0.3,0.266-0.602,0.418-0.833,0.744c-0.188,0.253-0.3,0.549-0.473,0.83c-0.266,0.436-0.701,0.919-0.923,1.394
				c-0.091,0.177-0.154,0.353-0.218,0.522c-0.024,0.024-0.039,0.055-0.039,0.055c-0.12,0.144-0.316,0.742-0.316,0.742
				c-0.207,0.478-0.697,0.747-1.346,1.673c-0.757,0.053-3.369-0.609-5.144-1.452c0.399,0.444,2.392,1.783,4.726,2.04
				c-0.157,0.227-0.169,0.46-0.451,0.534c-0.934,0.229-2.554-0.281-4.734-1.044c0.126,0.308,2.046,1.432,4.883,1.605
				c-0.421,0.492-4.316,0.37-7.363-0.462c-0.115,0.32,3.809,1.191,5.963,1.165c-0.37,0.188-1.338,0.407-1.96,0.632
				c-0.982-0.111-2.352-0.281-2.62-0.381c0.063,0.2,1.034,0.464,1.838,0.648c-0.773,0.276-1.92,0.436-2.363,0.529
				c0.324,0.085,1.565-0.117,2.871-0.431c1.145,0.222,2.896,0.448,3.858,0.404c-0.242,0.122-1.147,0.706-1.863,1.124
				c-1.83,0.17-3.821,0.324-4.248,0.377c0.24,0.039,1.845,0.063,3.555,0.02c-1.044,0.612-2.159,1.252-2.695,1.494
				c0.794-0.203,2.21-0.745,3.659-1.522c1.436-0.05,2.783-0.168,3.345-0.368c-0.193,0.418-1.353,2.422-2.436,2.888
				c0.467-0.08,1.966-0.501,2.874-2.772c0.322,0.14,0.688,0.223,1.117,0.246c0.238,0.361,0.804,1.287,1.876,1.34
				c0.219,0.62,2.208,3.863,5.001,2.6c-0.808-0.439-1.296-0.893-1.692-2.187c1.238-0.08,4.519,1.719,5.507,5.61
				c-0.776-0.264-1.748-0.712-1.853-1.1c-0.213,0.899-0.353,2.058,1.637,4.063c0.038,0.429,0.032,0.94,0.122,1.427
				c0.329,0.342,0.708,0.599,1.06,0.896c0.026,0.563-0.055,1.34,1.428,1.773c0.503,0.418,2.121,0.862,2.359,1.139
				c0.483,0.154,1.2,0.186,1.723,0.154c0,0,0.702-0.117,0.889-0.385c0.352-0.022,0.829-0.033,2.978-2.322
				c0.451-0.54,0-3.501,0.109-4.22c0.211-0.523,0.305-1.007,0.592-1.649c0,0,0.29-0.633,0.839-0.888
				c0.039-0.018,0.072-0.018,0.115-0.031c1.239-0.28,2.853,0.878,3.615,1.202c0.276,0.118,0.423,0.055,0.646,0.189
				c0.111,0.06,0.264,0.312,0.375,0.375c0.274,0.152,0.538,0.111,0.841,0.274c0.444,0.246,1.346,1.551,2.13,1.4
				c0.243-0.062,0.438-0.616,0.648-0.754c0.366-0.224,0.88-0.202,1.207-0.457c0.376-0.296,0.222-0.625,0.276-1.028
				c0-0.015,0.172-0.204,0.191-0.283c0.181-0.017,0.586,0,0.839-0.082c0.03-0.014,0.137-0.136,0.181-0.186
				c0.158-0.165,0.043-0.342,0-0.479c-0.055-0.148-0.434-0.325-0.556-0.453c-0.276-0.276-0.754-0.68-0.932-1.02
				c-0.085-0.17,0.023-0.205-0.097-0.381c-0.121-0.191-0.448-0.395-0.544-0.641c-0.359-0.797-0.218-2.574-0.375-2.822
				c-0.147-0.239-0.328-0.207-0.475-0.431c-0.309-0.488,0.072-2.065,0.101-2.69c0.026-0.5-0.466-0.189-0.466-0.189
				c-0.405,1.002-0.362,1.446-0.46,2.88c-0.018,0.126-0.189,0.893-0.189,1.025c-0.007,0.503,0.287,1.35,0.089,1.949
				c-0.063,0.195-0.468,0.57-1.021,0.558c-0.205,0-1.246-0.271-1.481-0.37c-0.046-0.022-0.266-0.274-0.283-0.281
				c-0.518-0.414-0.625-0.028-0.646,0.179c-0.018,0.213,0.069,0.255,0.111,0.374c0.018,0.12,0.229,0.563,0.209,0.602
				c-0.011,0.043-0.191,0.531-1.154-0.039c-0.729-0.44-1.446-1.651-1.485-1.86c-0.101-0.466,0.044-0.814,0.135-0.976
				c0.361-0.329,0.793,0.126,1.156,0.322c0.09,0.05,0.316,0.205,0.427,0.227c0.214,0.035,0.554-0.039,0.602-0.039
				c1.407-0.083,2.868,0.429,3.116-0.517c0.159-0.597-0.425-0.912-0.529-1.16c-0.131-0.301-0.065-0.318-0.14-0.651
				c-0.013-0.026-0.108-0.241-0.133-0.268c-0.144-0.248-0.039-0.464-0.183-0.74c-0.146-0.306-0.562-0.486-0.738-0.745
				c-0.239-0.344-0.239-0.773-0.562-1.023c-0.478-0.393-2.376-0.956-2.601-1.398c-0.361-0.701,0.087-1.992-0.091-2.872
				c-0.094-0.517-0.264-0.797-0.577-1.115c-0.122-0.126-0.182-0.31-0.136-0.479c0.081-0.307,0.246-0.222,0.338-0.914
				c0.059-0.382-0.033-0.811,0-1.204c0.004-0.065,0.185-0.674,0.196-0.743c0.085-1.036-0.053-2.123-0.281-2.872
				c-0.109-0.364-0.447-0.68-0.56-1.026c-0.098-0.291,0.021-0.457-0.098-0.747c-0.092-0.254-0.415-0.433-0.545-0.642
				c-0.253-0.368-0.179-0.995-0.564-1.209c-0.282-0.159-0.384,0.061-0.365,0c-0.092,0.338-0.073,0.671,0.091,1.109
				c0.068,0.191,0.416,0.466,0.473,0.655c0.07,0.342-0.057,0.758,0,1.113l0.178,0.374c0.143,0.933-0.363,2.169-0.741,2.688
				c-0.264,0.345-1.063,0.784-1.111,1.301c-0.041,0.322,0.093,0.33,0.173,0.466c0.119,0.17,0.504,0.392,0.562,0.555
				c0.044,0.122,0.092,0.097,0.137,0.216l0.049,0.253c0.063,0.651-0.781,0.799-0.371,1.576c0.116,0.225,0.515,0.225,0.737,0.368
				c0.422,0.266,1.225,1.02,1.3,1.664c0.035,0.283,0,1.777-0.083,1.956c-0.194,0.413-1.237,0.574-1.117,1.394
				c0.132,0.895,2.484,0.643,3.148,1.11c0.316,0.22,0.379,0.697,0.473,1.126c0.055,0.229-0.179,0.307-0.278,0.357
				c-0.248,0.147-0.427,0.032-0.743,0.103c-0.767,0.154-1.99,0.498-2.311,1.114c-0.404,0.71,0.07,1.682-0.099,2.498
				c-0.17,0.738-0.725,1.638-1.123,2.236c-0.248,0.364-0.56,0.722-0.675,1.23c-0.276,1.096-0.083,2.39-0.163,3.674l-0.017,0.014
				c0,0,0.049,0.664-0.4,1.149c-0.51,0.56-2.278,2.213-3.529,2.213c-0.466-0.016-0.657-0.166-1.162-0.536
				c-0.321-0.025-1.055-0.202-1.479-0.646c-0.134-0.235-1.519-1.64-0.649-2.043c0.819-0.377,2.143,0.446,2.757,0.841
				c0.249,0,2.041,0.092,3.942-2.404c-0.088-1.302-0.197-2.977-0.341-3.279c-0.197-0.641-1.277-1.771-1.509-2.448
				c-0.143-0.551-0.399-1.629-0.232-2.376c-0.075-0.834-0.601-1.017-0.818-1.692c-0.061-0.169-0.132-0.303-0.17-0.354
				c-0.066-0.244-0.11-0.462-0.262-0.688c-0.329-0.501-0.651-0.614-0.953-1.106c-0.315-0.512-0.26-1.149-0.744-1.484
				c-0.268-0.179-0.627-0.194-0.928-0.368c-0.217-0.131-0.491-0.446-0.743-0.558c-0.293-0.131-0.375-0.168-0.672-0.301
				c-0.144-0.069-0.408-0.188-0.535-0.255c-0.133-0.074-0.263-0.009-0.373-0.098c-0.357-0.305-0.099-0.579-0.276-1.106
				c-0.019-0.067-0.159-0.067-0.19-0.188c-0.148-0.041-0.409-0.276-0.61-0.137c-0.279,0.207-0.356,0.146-0.528,0.57
				c-0.1,0.281-0.289,1.104-0.479,1.305c-0.166,0.2-0.375,0.477-0.64,0.662c-0.246,0.126-0.462,0.113-0.462,0.113l-0.695,0.1
				l-0.346,0.534c0,0-0.375-0.051-0.577-0.051c-0.057,0.127-0.514,0.479-0.66,0.605c-0.586,0.345-0.947,0.101-0.986-0.028
				c-0.031-0.108-0.216-0.342,0.181-0.577c1.361-0.383,3.03-2.206,3.171-2.6c-0.174,0.266-2.991,1.822-3.511,2.029
				c0.56-1.326,4.011-3.271,4.221-3.502c-0.884,0.135-3.824,1.912-4.336,2.698c-0.488,0.791-1.063,0.57-1.605,0.547
				c-0.525-0.018-0.484,0.549-0.508,0.895c-0.005,0.34-0.269,1.03-0.045,1.152c0.359,0.31,1.309-0.947,1.61-0.27
				c0.167,0.753-1.787,0.721-1.77,1.33c-0.094,0.322,1.802,0.434,2.152,0.775c-0.61,0.444-2.102,0.59-2.545,0.609
				c-0.278,0.022-0.528,0.012-0.669-0.011c-0.246-0.041-0.571-0.268-0.854-0.731c-0.54-0.982,0.37-1.657,0.386-1.91
				c0.024-0.261-0.103-0.122-0.118-0.533c-0.015-0.412,0.444-0.479,0.564-0.566c0.131-0.094-0.035-0.207-0.004-0.605
				c0.242-0.901,1.714-1.944,1.337-2.234c-0.342-0.181-1.057,0.607-1.333,0.965c-1.015,1.305-2.193,0.897-2.594,0.912
				c-0.893,0.051-0.737-0.928-0.113-0.859c0.721-0.148,0.667-1.144,1.176-1.044c0.167,0.728-0.638,0.83-0.262,0.991
				c0.514,0.205,0.564-0.471,0.728-0.751c0.152-0.288,0.876-0.906,0.795-1.063c-0.209-0.073-0.745,0.308-0.986,0.495
				c-0.588-1.466,0.895-2.583,0.967-3.019c0.485-0.767,3.204-1.749,3.253-2.912l0.072-0.065c0,0,0.055-0.032,0.135,0.104h0.006
				c0.018,0.07,0.031,0.146,0.051,0.225c0.008,0.096-0.003,0.181-0.003,0.181l0.011-0.113c0.021,0.184,0.014,0.34,0.021,0.303v0.177
				c0.025,0.103,0.162,0.156,0.185,0.168c0.057-0.012,0.207-0.057,0.345-0.218c0.023-0.024,0.182-0.177,0.182-0.212
				c0.259-0.189,0.307-0.218,0.492-0.477c0.466-0.68-0.434-1.677-0.185-2.594c0.171-0.61,0.74-1.328,0.74-1.328
				c0.152-0.349-0.089-0.347-0.089-0.347c-0.359-0.061-0.61,0.32-0.555,0.271c-0.459,0.431-0.597,0.642-0.93,1.219
				c0,0-0.28,0.253-0.362-0.096c-0.163-0.575,0.491-1.705,0.696-1.849c0.381-0.261,0.769-0.374,1.248-0.571
				c0.242-0.1,0.597-0.485,0.838-0.551c0.117-0.042,0.246-0.065,0.366,0c0,0,0.183,0.133,0.098,0.551c0,0-0.183,0.504-0.12,0.691
				c0.039,0.121,0.022,0.241,0.305,0.241c0.666,0.013,2.156-0.142,2.593-0.376c0.101-0.04,0.197-0.188,0.287-0.27
				c0.137-0.142,0.101-0.35,0-0.369l-0.287-0.094c0.218-0.033-1.257-0.043-1.019-0.087c-0.259,0.043,0.349-0.688,0.277-1.035
				c-0.028-0.166-0.32-0.233-0.371-0.364c-0.029-0.085-0.187-0.207,0-0.281l0.212-0.092c0.073-0.052,0.151-0.137,0.251-0.185
				c0.466-0.215,1.304-0.111,1.67,0c0.042,0.02,0.64,0.185,0.838,0.743c0.052,0.159,0.094,0.331,0.184,0.471
				c0.28,0.381,1.098,0.521,1.577,0.065c0.098-0.087,0.213-0.307,0.284-0.433c0.477-1.093-0.229-1.84-1.12-2.143
				c-0.36-0.126-0.943-0.163-1.391-0.279c-0.318-0.089-0.128-0.357-0.037-0.438l0.135-0.12c0.177-0.262,0.729-0.495,0.93-0.553
				c0.492-0.189,0.976-0.373,1.67-0.092c0.103,0.037,0.375,0.25,0.453,0.27c0.529,0.133,0.727,0.172,1.215-0.083
				c0.195-0.094,0.167-0.122,0.185-0.179c0.174-0.499-0.171-0.828-0.161-0.775c-0.103-0.668,1.807,0.157,2.104-0.266
				c0.279-0.381,0.098-1.11,0.466-1.389c0.045-0.022,0.261-0.176,0.279-0.183c0.354-0.074,0.666,0.074,0.951,0.183l0.301,0.146
				c0.602,0.248,1.122,0.381,1.448,0.875c0.204,0.322,0.167,0.791,0.365,1.119c0.085,0.137,0.286,0.229,0.386,0.373
				c0.085,0.1,0.251,0.167,0.361,0.23c0.172,0.107,0.24,0.15,0.46,0.222c0.165,0.065,0.402,0.316,0.56,0.379
				c0.566,0.231,1.246,0.198,1.857,0.183c0.364-0.015,0.579,0.198,0.924,0.096c0.179-0.061,0.128-0.375,0.018-0.507
				c-0.221-0.283-0.391-0.215-0.758-0.425c-0.142-0.087-0.323-0.372-0.467-0.457c-0.422-0.277-1.038-0.313-1.293-0.747
				c-0.035-0.067-0.085-0.191-0.092-0.27l-0.104-0.196c-0.51-1.041-0.674-1.66-0.183-1.854c0.309-0.118,0.979-0.052,1.309-0.187
				c0.076-0.04,0.218-0.246,0.274-0.279c0.736-0.351,2.123-0.758,2.881-0.371c0.229,0.109,0,0.699,0.085,0.926
				c0.05,0.103,0.22,0.274,0.414,0.333c1.592,0.429,3.184,0.357,4.355,0.908c0.697,0.329,1.23,0.845,1.859,1.39
				c0.54,0.479-0.102,1.021,0.455,1.182c-0.381,0.053-0.705,0.094-0.769-0.104c-0.02-0.05-0.133-0.222-0.185-0.274
				c-0.416-0.394-0.904-1.008-1.483-1.204c-0.298-0.109-0.429-0.015-0.747-0.098l-0.372-0.126c-0.403-0.111-0.434-0.074-0.828-0.155
				c-0.176-0.035-0.574-0.25-0.749-0.27c-0.786-0.115-1.23,0.198-1.951,0c-0.331-0.098-0.76-0.625-1.027-0.765
				c-0.334-0.191-0.643-0.257-1.016-0.376c-0.152-0.039-0.23-0.039-0.342,0.018c-0.204,0.12-0.135,0.305-0.028,0.455
				c0.062,0.083,0.111,0.22,0.184,0.266c0.263,0.189,0.786,0.189,0.93,0.464c0.409,0.812-0.191,1.093-0.279,1.335
				c-0.043,0.148-0.156,0.261,0,0.457c0.088,0.107,0.272,0.235,0.377,0.274c0.377,0.164,0.671,0.101,1.023,0.283
				c0.249,0.133,0.51,0.583,0.832,0.653c0.747,0.161,0.924-0.39,1.298-0.47c0.538-0.12,0.871,0.163,1.487,0
				c0.205-0.055,0.318-0.298,0.462-0.366c0.357-0.188,0.71-0.216,0.933-0.101c0,0,0.237,0.116-0.097,0.283
				c-0.193,0.104-0.354,0.104-0.553,0.205c-0.137,0.074-0.257,0.264-0.276,0.294c-0.063,0.128-0.109,0.322-0.104,0.335
				c0.061,0.104,0.139,0.164,0.189,0.192c0.646,0.222,1.309-0.196,1.864-0.281c0.407-0.065,1.557,0,1.89,0.252
				c0,0,0.308,0.063,0.107,0.621c-0.122,0.333-0.653,0.579-0.852,0.86c-0.118,0.161-0.244,0.468-0.366,0.623
				c-0.196,0.253-0.23,0.246-0.429,0.477l-0.138,0.198c-0.078,0.24-1.025,1.042-1.202,1.309c-0.106,0.161-0.154,0.329-0.268,0.501
				c-0.17,0.242-0.294,0.281-0.381,0.429c-0.272,0.393-0.806,1.188-1.246,1.388c-0.193,0.085-0.473-0.009-0.747-0.063
				c-0.188-0.05-0.388-0.392-0.551-0.468c-0.649-0.296-1.372-0.214-1.944-0.558c-0.286-0.168-0.549-0.671-0.752-0.926
				c-0.137-0.176-0.259-0.483-0.464-0.565c-0.333-0.113-1.139-0.009-1.296,0.28c-0.307,0.584,0.492,2.084,0.561,2.698
				c0.048,0.525-0.192,0.765,0,1.202c0.089,0.225,0.438,0.281,0.551,0.466c0.505,0.791,0.065,1.91,0.185,2.969
				c0.046,0.329,0.242,0.738,0.186,1.213c-0.078,0.74-1.032,1.379-0.647,2.504c0.014,0.046,0.194,0.177,0.207,0.189
				c0.146,0.074,0.382,0.044,0.538-0.002c0.31-0.108,0.61-0.729,0.933-0.928c0.032-0.039,0.139-0.091,0.195-0.091
				c0.035-0.063,0.124-0.068,0.175-0.092c0.137-0.104,0.189-0.106,0.274-0.279c0.128-0.3,0.087-0.599,0.185-1.027
				c0.094-0.355,0.425-0.986,0.466-1.394c0.116-1.137-0.71-3.358-0.119-3.725c0.227-0.142,0.45-0.409,0.841-0.468
				c0.172-0.044,0.733,0.131,0.973,0.122c-0.002,0.009-0.004,0.011-0.004,0.011c-0.303,0.71,0.813,2.567,0.723,3.591
				c-0.215,2.498-1.847,3.877-3.256,5.209c-0.158,0.159-0.021,0.338,0.097,0.464c0.28,0.264,0.958,0.146,1.309,0.092
				c0.512-0.104,0.738-0.335,1.112-0.464c0.14-0.055,0.306,0.033,0.46,0c0.383-0.104,0.712-0.625,0.932-0.938
				c0,0,0.451-0.488,0.547,0.159l0.009,0.034c0,0.604-0.104,1.264,0,1.854c0.111,0.697,1.383,2.79,2.045,2.884
				c1.546,0.227-0.037-1.719-0.101-1.86c-0.252-0.588-0.496-1.638-0.461-2.41c0.006-0.283,0.243-0.858,0.274-1.124
				c0.017-0.131-0.053-0.439,0-0.547c0.122-0.248,0.942-0.326,1.119-0.653c0.048-0.094-0.021-0.264,0-0.368
				c0.039-0.224,0.202-0.638,0.374-0.829c0.109-0.14,0.269-0.218,0.462,0c0.159,0.179,0.203,0.592,0.469,0.893l0.229,0.251
				c0.274,0.176,0.719-0.062,0.599-0.033c0.29-0.078,0.255-0.37,0.377-0.473c0.018-0.018,0.179-0.087,0.179-0.087
				c0.673-0.69-0.819-1.315-0.837-1.953c-0.011-0.713,0.161-1.533-0.087-2.322c-0.059-0.193-0.422-0.473-0.466-0.646
				c-0.101-0.448,0.133-0.921,0.186-1.204c0.104-0.595-0.099-1.507,0.098-1.769c0.111-0.144,0.287-0.25,0.645-0.189
				c0.239,0.046,0.395,0.429,0.558,0.56c0.607,0.49,1.313,0.763,2.326,0.647c0.124-0.003,0.229-0.194,0.25-0.246
				c0.063-0.186,0.05-0.423-0.065-0.586c-0.366-0.49-1.779-0.862-1.855-1.108c-0.057-0.182-0.281-0.425-0.035-0.549
				c-0.135,0.081,0.871-0.026,1.237-0.104c0.473-0.104,0.505-0.574,0.834-0.737c0.462-0.244,1.139-0.033,1.398-0.464
				c0.152-0.279,0.032-0.68,0.181-0.935c0.185-0.329,0.736-0.394,1.021-0.655C126.771,98.059,126.73,97.77,126.714,97.68
				 M89.393,119.391c-0.181-0.2-0.027-0.595,0.31-0.765c0.621-0.291,0.875,0.048,1.01,0.207c0.601,0.937,1.382,2.147,1.96,2.627
				C92.138,121.512,90.143,120.904,89.393,119.391 M94.502,128.781c-0.326,0-2.394-1.742-2.08-2.822
				c0.612,0.451,1.986,1.411,2.161,1.394C94.768,127.459,94.914,128.657,94.502,128.781 M96.904,128.785
				c-0.27-0.234-2.273-2.354-1.771-3.336c0.55,0.554,2.079,1.96,2.626,2.1C97.913,127.949,97.891,129.058,96.904,128.785
				 M97.12,120.706c0.351,0.522,0.832,0.832,0.806,1.965c-0.033,0.276,0.057,0.333,0.29,0.309c0.209-0.061,0.094-1.365,0.728-1.28
				c0.538,0.078,0.174,0.825,0.44,1.666c0.098,0.301,0.706,1.376,0.542,3.223c-0.014,0.476-0.92,1.096-1.438,0.734
				c-0.424-0.259-0.424-0.573-0.666-2.524c-0.104-1.151-1.508-1.548-2.102-2.07c-0.597-0.44-0.257-0.656-0.367-1.455
				c-0.343-1.156-1.691-1.696-1.238-2.465c0.139-0.192,0.274-0.373,0.701-0.21C94.841,119.169,96.208,119.613,97.12,120.706
				 M87.553,117.057c-0.035,0.02-0.04,0.021,0.013-0.003C87.566,117.054,87.559,117.054,87.553,117.057
				c0.139-0.062,0.738-0.343,0.897-0.399c0.634-0.224,0.97,0.113,1.555-0.211c0.137-0.085,0.29-0.307,0.418-0.411
				c0.109-0.101,0.31-0.09,0.441-0.181c0.323-0.218,0.927-0.911,1.341-0.984c0.239-0.046,0.239,0.017,0.361,0.03
				c0,0.021,0.177-0.037,0.13,0.317c-0.111,0.69,1.505-0.006,2.568,0.244c0.721,0.175,1.423,0.418,1.236,0.885
				c0.025-0.051-0.21,0.142-0.268,0.176c-0.496,0.361-0.881-0.034-1.136-0.067c-0.433-0.055-0.739,0.081-1.185,0.024
				c0-0.007-0.534-0.179-0.534-0.179c-0.335-0.016-0.822,0.156-1.079,0.179c-0.489,0.037-0.724-0.136-1.162-0.09
				c-0.216,0.024-0.56,0.308-0.714,0.361c-0.142,0.051-0.311,0.101-0.451,0.146c-0.096,0.021-0.335,0.156-0.448,0.207
				c-0.444,0.218-0.707,0.218-1.253,0.361l-0.318,0.085C87.274,117.642,87.342,117.176,87.553,117.057 M85.9,119.709
				c0.731-0.172,0.947,0.015,1.296,0.849c0.259,0.49,0.803,1.144,1.013,1.453c-0.843,0.096-2.182-1.052-2.559-1.682
				C85.411,120.021,85.776,119.774,85.9,119.709 M76.597,116.225c0.962-0.271,1.812-0.547,2.168-0.752
				c0.129-0.011,0.254-0.011,0.383-0.015c0.053,0.252,0.153,0.516,0.306,0.771c0.033,0.057,0.065,0.103,0.098,0.148
				C78.97,116.39,77.794,116.318,76.597,116.225 M78.603,117.908c0.494-0.297,0.967-0.619,1.413-0.948
				c0.205,0.242,0.429,0.464,0.677,0.676C80.434,117.703,79.617,117.808,78.603,117.908L78.603,117.908z"/>
			<path style="fill:#910023;" d="M87.553,117.057c0.005-0.003,0.013-0.003,0.013-0.003
				C87.514,117.078,87.518,117.076,87.553,117.057L87.553,117.057z"/>
		</g>
	</g>
	<path style="fill:#910023;" d="M123.924,18.456l-2.555-0.686l-2.994,10.162c-0.262,0.872-0.473,1.377-0.678,1.633
		c-0.402,0.49-1.038,0.779-2.051,0.544c-0.682-0.161-1.729-0.832-1.729-0.832l-0.556,1.888c1.004,0.684,1.928,0.943,2.37,1.052
		c1.317,0.317,2.685,0.126,3.78-0.801c0.439-0.379,0.94-1.178,1.365-2.618L123.924,18.456z"/>
</g>
</svg>
