<?xml version="1.0" encoding="iso-8859-1"?>
<!-- Generator: Adobe Illustrator 15.1.0, SVG Export Plug-In . SVG Version: 6.00 Build 0)  -->
<!DOCTYPE svg PUBLIC "-//W3C//DTD SVG 1.1//EN" "http://www.w3.org/Graphics/SVG/1.1/DTD/svg11.dtd">
<svg version="1.1" id="&#xB808;&#xC774;&#xC5B4;_1" xmlns="http://www.w3.org/2000/svg" xmlns:xlink="http://www.w3.org/1999/xlink"
	 x="0px" y="0px" width="200px" height="200px" viewBox="0 0 200 200" style="enable-background:new 0 0 200 200;"
	 xml:space="preserve">
<g>
	<g>
		<path style="fill:#003668;" d="M125.307,95.823c-8.617-5.858-19.652-3.468-25.445,5.339c-4.84,7.357-12.142,8.271-14.972,8.271
			c-9.217,0-15.526-6.484-17.394-13.194h-0.005c-0.018-0.066-0.032-0.121-0.05-0.187c-0.019-0.074-0.042-0.149-0.06-0.229
			c-0.737-2.797-0.917-4.137-0.917-7.111c0-16.046,16.462-33.908,40.171-33.908c24.282,0,38.176,18.483,41.752,28.754
			c-0.063-0.179-0.119-0.358-0.183-0.545c-6.888-20.09-25.938-34.536-48.371-34.536c-28.231,0-51.125,22.888-51.125,51.124
			c0,25.241,18.207,46.844,43.456,46.844c20.139,0,33.672-11.293,39.882-26.854C135.453,111.08,133.043,101.078,125.307,95.823"/>
		<path style="fill:#E6002D;" d="M148.705,84.556c-2.982-10.02-16.982-29.752-42.068-29.752c-23.709,0-40.172,17.863-40.172,33.908
			c0,2.975,0.181,4.316,0.916,7.112c-0.307-1.221-0.47-2.452-0.47-3.647c0-16.708,16.73-28.288,33.928-28.288
			c23.282,0,42.156,18.875,42.156,42.152c0,18.252-10.499,34.043-25.763,41.635l0.006,0.012
			c19.671-7.124,33.718-25.962,33.718-48.087C150.956,94.365,150.252,89.748,148.705,84.556"/>
	</g>
</g>
</svg>
