<?xml version="1.0" encoding="iso-8859-1"?>
<!-- Generator: Adobe Illustrator 15.1.0, SVG Export Plug-In . SVG Version: 6.00 Build 0)  -->
<!DOCTYPE svg PUBLIC "-//W3C//DTD SVG 1.1//EN" "http://www.w3.org/Graphics/SVG/1.1/DTD/svg11.dtd">
<svg version="1.1" id="&#xB808;&#xC774;&#xC5B4;_1" xmlns="http://www.w3.org/2000/svg" xmlns:xlink="http://www.w3.org/1999/xlink"
	 x="0px" y="0px" width="200px" height="200px" viewBox="0 0 200 200" style="enable-background:new 0 0 200 200;"
	 xml:space="preserve">
<g>
	<g>
		<path style="fill-rule:evenodd;clip-rule:evenodd;fill:#FFFFFF;" d="M115.499,72.313c-3.188,1.29-7.395-1.677-9.388-6.62
			c-2.002-4.945-1.033-9.997,2.151-11.281c3.19-1.291,7.39,1.674,9.39,6.62C119.649,65.978,118.687,71.028,115.499,72.313z"/>
		<path style="fill-rule:evenodd;clip-rule:evenodd;fill:#A6A8AB;" d="M107.859,53.418c-1.381,0.557-2.466,1.685-3.133,3.261
			c-1.097,2.585-0.95,6.104,0.391,9.416c1.334,3.311,3.676,5.944,6.261,7.043c1.575,0.669,3.141,0.727,4.522,0.17
			c1.382-0.557,2.464-1.682,3.132-3.253c0.489-1.151,0.733-2.492,0.733-3.916c0-1.769-0.377-3.671-1.118-5.511
			C116.389,55.052,111.652,51.884,107.859,53.418z M112.216,71.164c-2.04-0.867-3.999-3.116-5.111-5.873
			c-1.133-2.796-1.283-5.703-0.404-7.773c0.308-0.729,0.898-1.682,1.965-2.113c2.587-1.046,6.249,1.713,7.994,6.029
			c1.113,2.759,1.267,5.741,0.4,7.781c-0.308,0.725-0.896,1.677-1.96,2.104h-0.002C114.031,71.751,112.941,71.472,112.216,71.164z
			 M115.9,73.309L115.9,73.309L115.9,73.309L115.9,73.309z"/>
		<path style="fill-rule:evenodd;clip-rule:evenodd;fill:#FFFFFF;" d="M113.656,67.753c-1.335,0.539-3.209-0.991-4.188-3.416
			c-0.986-2.423-0.692-4.825,0.637-5.366c1.338-0.539,3.212,0.991,4.193,3.416C115.277,64.81,114.99,67.212,113.656,67.753z"/>
		<path style="fill-rule:evenodd;clip-rule:evenodd;fill:#A6A8AB;" d="M109.706,57.975c-1.953,0.796-2.479,3.703-1.232,6.767
			c0.761,1.881,2.024,3.351,3.383,3.929c0.765,0.322,1.524,0.349,2.201,0.075h0.002c1.942-0.788,2.471-3.697,1.232-6.761
			C114.051,58.916,111.647,57.192,109.706,57.975z M112.694,66.694c-0.623-0.263-1.58-1.143-2.232-2.759
			c-0.83-2.039-0.521-3.739,0.049-3.973c0.563-0.226,1.967,0.786,2.793,2.827c0.361,0.894,0.503,1.722,0.503,2.389
			c0,0.859-0.235,1.451-0.554,1.582C113.079,66.829,112.854,66.763,112.694,66.694z"/>
	</g>
	<path style="fill-rule:evenodd;clip-rule:evenodd;fill:#FFFFFF;" d="M85.085,58.319c0,0-4.012-0.05-4.012,3.388
		s4.012,3.438,4.012,3.438H95.42l-4.636,77.606c0,0-8.353,0.523-17.882-13.707l3.53-0.775l-9.324-8.751l-1.838,12.452l3.469-1.107
		c0,0,5.411,12.937,13.986,18.077c8.574,5.146,13.234,6.774,17.017,13.148c0,0,5.188-5.89,12.532-10.115
		c7.348-4.223,13.634-7.34,19.132-20.845l3.776,1.19l-1.789-12.398l-8.98,7.738l3.561,1.451c0,0-4.352,10.95-18.729,13.327
		l-5.938-77.292h11.099c0,0,3.888-0.044,3.888-3.438c0-3.388-3.888-3.388-3.888-3.388H85.085z"/>
	<path style="fill-rule:evenodd;clip-rule:evenodd;fill:#A6A8AB;" d="M81.187,58.695c-0.775,0.767-1.186,1.808-1.186,3.011
		c0,3.569,3.327,4.512,5.084,4.512c0,0,7.394,0,9.196,0c-0.129,2.174-4.378,73.265-4.502,75.367
		c-2.244-0.362-8.253-2.266-15.07-11.842c0.966-0.212,3.942-0.864,3.942-0.864l-12.305-11.549l-2.388,16.182
		c0,0,3.2-1.022,4.192-1.339c1.406,3.065,6.464,13.153,14.023,17.686l4.644,2.701c5.681,3.24,9.108,5.197,12.003,10.072l0.751,1.268
		l0.976-1.107c0.051-0.056,5.168-5.811,12.262-9.892l0.963-0.55c6.923-3.959,12.919-7.462,18.218-19.916
		c1.047,0.332,4.499,1.418,4.499,1.418l-2.313-16.025l-11.789,10.16c0,0,3.084,1.257,4.129,1.683
		c-1.339,2.531-5.852,9.311-16.294,11.465c-0.178-2.317-5.588-72.712-5.758-74.917c1.858,0,9.941,0,9.941,0
		c1.726-0.021,4.96-0.991,4.96-4.512c0-3.527-3.243-4.459-4.96-4.459H85.085H85.1C84.851,57.244,82.642,57.258,81.187,58.695z
		 M82.146,61.707c0-0.633,0.177-1.117,0.542-1.479c0.693-0.691,1.959-0.838,2.388-0.836h29.327c0.468,0.002,2.816,0.136,2.816,2.315
		c0,2.242-2.544,2.36-2.833,2.365h-12.239l6.117,79.611l1.153-0.188c14.807-2.449,19.365-13.521,19.551-13.992l0.394-0.988
		c0,0-1.96-0.798-2.922-1.189c1.555-1.34,4.47-3.851,6.17-5.316c0.334,2.313,0.969,6.709,1.266,8.774
		c-1.052-0.334-3.089-0.978-3.089-0.978l-0.374,0.918c-5.118,12.565-10.953,15.904-17.709,19.766l-0.965,0.555
		c-5.681,3.265-10.021,7.427-11.85,9.317c-3.033-4.504-6.685-6.626-12.01-9.663l-4.603-2.677
		c-8.17-4.897-13.497-17.448-13.549-17.574l-0.379-0.904c0,0-1.854,0.591-2.767,0.88c0.303-2.055,0.937-6.341,1.287-8.719
		c1.708,1.604,4.646,4.359,6.346,5.954c-0.758,0.166-3.079,0.673-3.079,0.673l0.875,1.31c9.76,14.577,18.475,14.204,18.841,14.179
		l0.946-0.059l4.762-79.688H85.085C84.789,64.072,82.146,63.982,82.146,61.707z"/>
	<g>
		<path style="fill-rule:evenodd;clip-rule:evenodd;fill:#FFFFFF;" d="M127.504,95.011c-3.188,1.288-7.391-1.68-9.388-6.627
			c-1.999-4.943-1.032-9.997,2.149-11.285c3.193-1.285,7.394,1.677,9.391,6.625C131.656,88.669,130.689,93.72,127.504,95.011z"/>
		<path style="fill-rule:evenodd;clip-rule:evenodd;fill:#A6A8AB;" d="M119.865,76.103c-3.794,1.538-4.999,7.108-2.742,12.682
			c1.339,3.319,3.683,5.956,6.267,7.052c1.573,0.669,3.136,0.728,4.518,0.167l0,0c3.793-1.535,4.997-7.105,2.743-12.683
			C128.4,77.745,123.662,74.576,119.865,76.103z M124.228,93.862c-2.074-0.88-3.985-3.077-5.116-5.879
			c-1.746-4.313-1.032-8.842,1.558-9.891c2.59-1.041,6.253,1.721,7.993,6.031c0.647,1.603,0.955,3.232,0.955,4.704
			c0,2.494-0.885,4.528-2.515,5.188C126.038,94.446,124.951,94.169,124.228,93.862z"/>
		<path style="fill-rule:evenodd;clip-rule:evenodd;fill:#FFFFFF;" d="M125.664,90.449c-1.337,0.536-3.216-0.991-4.194-3.417
			c-0.98-2.423-0.692-4.83,0.64-5.366c1.339-0.541,3.213,0.985,4.193,3.414C127.279,87.505,126.997,89.907,125.664,90.449z"/>
		<path style="fill-rule:evenodd;clip-rule:evenodd;fill:#A6A8AB;" d="M121.708,80.672c-0.674,0.271-1.202,0.817-1.528,1.582
			c-0.576,1.362-0.466,3.295,0.295,5.179c1.239,3.067,3.641,4.792,5.588,4.009h0.003c1.939-0.786,2.47-3.693,1.234-6.765
			c-0.766-1.887-2.032-3.355-3.39-3.931C123.146,80.423,122.385,80.397,121.708,80.672z M122.465,86.63
			c-0.654-1.611-0.574-2.912-0.312-3.535c0.068-0.16,0.188-0.365,0.358-0.436c0.177-0.071,0.404-0.005,0.563,0.063
			c0.622,0.263,1.582,1.146,2.234,2.76c0.36,0.896,0.504,1.724,0.504,2.394c0,0.857-0.235,1.449-0.552,1.577
			C124.691,89.679,123.287,88.669,122.465,86.63z"/>
	</g>
	<path style="fill-rule:evenodd;clip-rule:evenodd;fill:#FFFFFF;" d="M99.886,37.702c-5.174,0-9.365,4.582-9.365,10.234
		c0,5.656,4.191,10.238,9.365,10.238c5.171,0,9.367-4.583,9.367-10.238C109.253,42.284,105.057,37.702,99.886,37.702z
		 M99.886,54.057c-3.09,0-5.6-2.741-5.6-6.121c0-3.377,2.51-6.115,5.6-6.115c3.091,0,5.598,2.738,5.598,6.115
		C105.483,51.316,102.977,54.057,99.886,54.057z"/>
	<path style="fill-rule:evenodd;clip-rule:evenodd;fill:#A6A8AB;" d="M89.447,47.936c0,6.239,4.682,11.311,10.438,11.311
		c5.756,0,10.44-5.072,10.44-11.311c0-6.233-4.685-11.307-10.44-11.307C94.129,36.629,89.447,41.703,89.447,47.936z M91.592,47.936
		c0-5.051,3.72-9.162,8.294-9.162s8.296,4.111,8.296,9.162c0,5.057-3.722,9.166-8.296,9.166S91.592,52.993,91.592,47.936z"/>
	<path style="fill-rule:evenodd;clip-rule:evenodd;fill:#A6A8AB;" d="M93.213,47.936c0,3.965,2.993,7.193,6.672,7.193
		c3.678,0,6.67-3.228,6.67-7.193c0-3.963-2.992-7.188-6.67-7.188C96.207,40.748,93.213,43.973,93.213,47.936z M95.357,47.936
		c0-2.78,2.032-5.043,4.528-5.043c2.495,0,4.526,2.263,4.526,5.043c0,2.783-2.031,5.049-4.526,5.049
		C97.39,52.985,95.357,50.719,95.357,47.936z"/>
	<path style="fill-rule:evenodd;clip-rule:evenodd;fill:#FFFFFF;" d="M104.641,49.965c0,0-1.305-1.099-2.397,0.065
		c-1.092,1.162,0.175,2.292,0.175,2.292l5.913,5.577c0,0,1.143,1.159,2.245-0.016c1.106-1.175-0.055-2.31-0.055-2.31L104.641,49.965
		z"/>
	<path style="fill-rule:evenodd;clip-rule:evenodd;fill:#A6A8AB;" d="M101.46,49.297c-0.641,0.684-0.751,1.383-0.73,1.85
		c0.05,1.12,0.881,1.89,0.976,1.974c-0.022-0.018,5.891,5.556,5.891,5.556c0.056,0.06,0.834,0.817,1.927,0.805
		c0.473-0.006,1.174-0.158,1.834-0.863c1.343-1.424,0.686-3.059-0.085-3.813c-0.011-0.007-5.914-5.642-5.914-5.642l-0.026-0.021
		C104.492,48.438,102.77,47.899,101.46,49.297z M109.083,57.134c-0.017-0.016-5.929-5.592-5.929-5.592
		c-0.456-0.431-0.235-0.665-0.131-0.778c0.255-0.268,0.567-0.257,0.931,0.026c0.104,0.1,5.827,5.558,5.827,5.558
		c0.153,0.161,0.204,0.302,0.204,0.418c0,0.181-0.122,0.313-0.189,0.383c-0.079,0.084-0.195,0.184-0.294,0.187
		C109.362,57.341,109.16,57.208,109.083,57.134z"/>
	<path style="fill-rule:evenodd;clip-rule:evenodd;fill:#FFFFFF;" d="M116.338,68.177c0,0-1.307-2.266-2.766-1.493
		c-1.462,0.772-0.2,3.054-0.2,3.054l5.821,11.045c0,0,1.103,2.234,2.575,1.454c1.482-0.775,0.346-2.996,0.346-2.996L116.338,68.177z
		"/>
	<path style="fill-rule:evenodd;clip-rule:evenodd;fill:#A6A8AB;" d="M113.072,65.738c-0.577,0.302-0.98,0.792-1.164,1.406
		c-0.398,1.335,0.367,2.828,0.526,3.115c-0.011-0.019,5.81,11.026,5.81,11.026c0.124,0.25,0.871,1.656,2.169,2.073
		c0.621,0.203,1.263,0.143,1.857-0.173c1.662-0.873,1.578-2.91,0.799-4.433c-0.004-0.008-5.802-11.112-5.802-11.112
		C116.589,66.466,114.943,64.745,113.072,65.738z M121.073,81.319c-0.316-0.103-0.738-0.655-0.922-1.015
		c-0.009-0.021-5.83-11.066-5.83-11.066c-0.222-0.408-0.462-1.138-0.358-1.482c0.015-0.047,0.029-0.082,0.109-0.124
		c0.375-0.199,1.103,0.683,1.334,1.075c0.037,0.071,5.758,11.03,5.758,11.03c0.064,0.129,0.293,0.701,0.293,1.122
		c0,0.194-0.049,0.357-0.187,0.428C121.17,81.342,121.122,81.335,121.073,81.319z"/>
	<g>
		<path style="fill:#FFFFFF;" d="M100.593,100.514h-4.624L83.307,89.568c0,0-2.992-1.934-6.421-1.934c-3.43,0-55.058,0-55.058,0
			s2.024,9.494,10.117,9.586h51.274H31.944c0,0-3.082,9.151,8.793,10.471h50.395H40.737c0,0,0.176,8.44,7.652,10.556h52.203"/>
		<path style="fill:#A6A8AB;" d="M21.828,86.562h-1.325l0.277,1.295c0.021,0.097,2.088,9.303,9.862,10.328
			c-0.069,0.45-0.13,0.959-0.13,1.563c0,1.343,0.272,2.983,1.252,4.52c1.478,2.321,4.198,3.745,7.989,4.325
			c0.28,2.312,1.64,8.788,8.345,10.686l0.142,0.04h52.353v-2.145c0,0-51.615,0-52.005,0c-5.097-1.504-6.355-6.257-6.665-8.412
			c2.262,0,49.209,0,49.209,0v-2.146H40.737c-3.476-0.392-5.922-1.567-7.153-3.483c-0.725-1.126-0.924-2.364-0.924-3.387
			c0-0.576,0.066-1.072,0.134-1.453c1.644,0,50.424,0,50.424,0v-2.145H31.944c-5.513-0.063-7.862-5.03-8.685-7.442
			c2.716,0,53.625,0,53.625,0c2.902,0,5.503,1.556,5.786,1.729c0.134,0.116,12.898,11.152,12.898,11.152h5.023v-2.146
			c0,0-3.559,0-4.225,0c-0.575-0.497-12.417-10.732-12.417-10.732l-0.063-0.042c-0.132-0.084-3.299-2.104-7.003-2.104H21.828z"/>
		<path style="fill:#FFFFFF;" d="M99.931,100.514h4.622l12.662-10.946c0,0,2.996-1.934,6.426-1.934s55.054,0,55.054,0
			s-2.021,9.494-10.11,9.586h-51.276h51.276c0,0,3.078,9.151-8.794,10.471h-50.397h50.397c0,0-0.179,8.44-7.655,10.556H99.931"/>
		<path style="fill:#A6A8AB;" d="M123.641,86.562c-3.704,0-6.874,2.018-7.009,2.104l-0.063,0.042c0,0-11.84,10.235-12.417,10.732
			c-0.665,0-4.221,0-4.221,0v2.146h5.021c0,0,12.765-11.036,12.897-11.149c0.282-0.176,2.89-1.732,5.791-1.732
			c0,0,50.908,0,53.622,0c-0.822,2.413-3.172,7.379-8.69,7.442c-0.021,0-51.265,0-51.265,0v2.145c0,0,48.782,0,50.427,0
			c0.069,0.381,0.135,0.875,0.135,1.451c0,1.022-0.201,2.263-0.926,3.389c-1.228,1.908-3.665,3.081-7.235,3.483
			c-0.163,0-50.315,0-50.315,0v2.146c0,0,46.948,0,49.212,0c-0.312,2.155-1.569,6.908-6.666,8.412c-0.391,0-52.008,0-52.008,0v2.145
			h52.354l0.142-0.04c6.718-1.899,8.073-8.398,8.351-10.698c3.828-0.597,6.519-2.013,7.985-4.313
			c0.983-1.537,1.255-3.18,1.255-4.522c0-0.602-0.061-1.115-0.13-1.561c7.772-1.032,9.836-10.23,9.858-10.328l0.274-1.295h-1.325
			H123.641z"/>
	</g>
	<g>
		<polygon style="fill:#EC1A2E;" points="99.822,102.775 129.732,91.826 114.209,107.56 114.211,107.596 99.822,102.775 		"/>
		<path style="fill:#A6A8AB;" d="M99.775,102.649l-0.36,0.134l14.833,4.968l0.058-0.098l15.522-15.733l-0.142-0.22L99.775,102.649z
			 M129.218,92.158c-0.8,0.808-15.104,15.305-15.104,15.306c-0.006-0.039-11.75-3.979-13.886-4.692
			C100.918,102.518,128.145,92.55,129.218,92.158z"/>
		<polygon style="fill:#F2E919;" points="99.796,67.993 90.906,89.05 90.705,89.077 99.796,102.775 		"/>
		<path style="fill:#A6A8AB;" d="M90.8,88.956c-0.021-0.021-0.112-0.012-0.112-0.012l-0.213,0.027l9.458,14.251V67.993l-0.259-0.053
			C99.672,67.94,90.835,88.871,90.8,88.956z M99.662,68.657c0,1.262,0,32.821,0,33.674c-0.46-0.695-8.519-12.838-8.733-13.16
			C91.074,88.982,98.253,71.994,99.662,68.657z"/>
		<polygon style="fill:#F2E919;" points="99.796,102.775 81.446,130.221 99.796,119.001 		"/>
		<path style="fill:#A6A8AB;" d="M99.685,102.7l-18.35,27.445l0.182,0.189l18.351-11.218l0.065-16.784L99.685,102.7z
			 M99.662,103.221c0,0.838,0,15.778,0,15.78c-0.03-0.049-14.882,9.024-17.764,10.784C82.544,128.818,99.192,103.923,99.662,103.221
			z"/>
		<polygon style="fill:#EC1A2E;" points="99.796,102.775 85.407,107.596 81.298,130.313 81.446,130.221 99.796,102.775 		"/>
		<path style="fill:#A6A8AB;" d="M99.754,102.648l-14.39,4.82c-0.089,0.103-4.198,22.822-4.198,22.822l-0.055,0.305l0.407-0.263
			c0.039-0.038,18.39-27.482,18.39-27.482l0.219-0.327L99.754,102.648z M99.466,103.029c-0.423,0.632-17.6,26.321-17.952,26.845
			c0.162-0.89,4.025-22.252,4.025-22.253C85.56,107.68,97.301,103.753,99.466,103.029z"/>
		<polygon style="fill:#F2E919;" points="99.796,102.775 69.89,91.826 85.414,107.56 85.407,107.596 99.796,102.775 		"/>
		<path style="fill:#A6A8AB;" d="M69.794,91.92l15.523,15.733c0.132,0.07,14.521-4.749,14.521-4.749l0.364-0.121L69.936,91.7
			L69.794,91.92z M85.365,107.468c0-0.135-12.578-12.896-14.958-15.31c1.071,0.392,28.292,10.359,28.982,10.613
			C98.698,103.002,85.364,107.469,85.365,107.468C85.365,107.469,85.365,107.468,85.365,107.468z"/>
		<polygon style="fill:#EC1A2E;" points="90.705,89.077 69.863,91.796 69.89,91.826 99.796,102.775 		"/>
		<path style="fill:#A6A8AB;" d="M90.688,88.944l-20.842,2.719l-0.001,0.289l30.291,11.092l-9.364-14.112L90.688,88.944z
			 M90.64,89.222c0.088,0.134,8.389,12.641,8.818,13.287c-0.74-0.271-28.209-10.329-29.072-10.645
			C71.347,91.739,90.478,89.242,90.64,89.222z"/>
		<polygon style="fill:#EC1A2E;" points="99.822,67.993 108.71,89.05 108.917,89.077 99.822,102.775 		"/>
		<path style="fill:#A6A8AB;" d="M99.687,67.993v35.229l9.462-14.251c0,0-0.421-0.053-0.422-0.053v-0.001
			c0-0.169-8.781-20.976-8.781-20.976L99.687,67.993z M99.956,68.657c0.488,1.155,8.628,20.446,8.628,20.446
			c0.044,0.032,0.07,0.026,0.127,0.042c-0.182,0.272-8.293,12.489-8.755,13.186C99.956,101.479,99.956,69.921,99.956,68.657z"/>
		<polygon style="fill:#EC1A2E;" points="99.822,102.775 118.177,130.221 99.822,119.001 		"/>
		<path style="fill:#A6A8AB;" d="M99.687,102.775v16.226c0.065,0.116,18.419,11.334,18.419,11.334l0.184-0.189l-18.603-27.813
			V102.775z M99.892,118.887c0,0,0.059-14.837,0.063-15.669c0.467,0.698,17.124,25.601,17.769,26.567
			C116.739,129.183,99.892,118.887,99.892,118.887z"/>
		<polygon style="fill:#F2E919;" points="99.822,102.775 114.211,107.596 118.321,130.313 118.177,130.221 99.822,102.775 		"/>
		<path style="fill:#A6A8AB;" d="M99.709,102.851l18.355,27.444c0.039,0.037,0.182,0.133,0.182,0.133l0.263,0.171l-4.166-23.027
			c-0.09-0.103-14.479-4.923-14.479-4.923l-0.374-0.125L99.709,102.851z M100.153,103.029c0.709,0.236,14.013,4.694,14.014,4.694
			c-0.001,0-0.001,0.002-0.001,0.004c0,0.351,3.398,19.156,3.942,22.164C116.754,127.854,102.11,105.955,100.153,103.029z"/>
		<polygon style="fill:#F2E919;" points="108.917,89.077 129.761,91.796 129.732,91.826 99.822,102.775 		"/>
		<path style="fill:#A6A8AB;" d="M108.806,89.002l-9.323,14.042l30.296-11.092l-0.001-0.289l-20.926-2.731L108.806,89.002z
			 M108.982,89.221c0.162,0.021,19.292,2.518,20.254,2.643c-0.86,0.316-28.336,10.375-29.076,10.645
			C100.589,101.862,108.893,89.356,108.982,89.221z"/>
	</g>
</g>
</svg>
