<?xml version="1.0" encoding="iso-8859-1"?>
<!-- Generator: Adobe Illustrator 15.1.0, SVG Export Plug-In . SVG Version: 6.00 Build 0)  -->
<!DOCTYPE svg PUBLIC "-//W3C//DTD SVG 1.1//EN" "http://www.w3.org/Graphics/SVG/1.1/DTD/svg11.dtd">
<svg version="1.1" id="&#xB808;&#xC774;&#xC5B4;_1" xmlns="http://www.w3.org/2000/svg" xmlns:xlink="http://www.w3.org/1999/xlink"
	 x="0px" y="0px" width="200px" height="200px" viewBox="0 0 200 200" style="enable-background:new 0 0 200 200;"
	 xml:space="preserve">
<g>
	<g>
		<path style="fill:#003668;" d="M125.475,68.35c-8.617-5.858-19.653-3.468-25.445,5.34c-4.84,7.357-12.142,8.271-14.972,8.271
			c-9.217,0-15.526-6.484-17.394-13.194h-0.005c-0.018-0.066-0.032-0.121-0.05-0.187c-0.019-0.074-0.042-0.149-0.06-0.229
			c-0.737-2.797-0.917-4.137-0.917-7.111c0-16.046,16.462-33.908,40.171-33.908c24.282,0,38.175,18.483,41.752,28.754
			c-0.063-0.179-0.12-0.358-0.183-0.545c-6.887-20.09-25.939-34.536-48.371-34.536c-28.231,0-51.125,22.888-51.125,51.124
			c0,25.241,18.207,46.844,43.456,46.844c20.138,0,33.672-11.294,39.882-26.854C135.621,83.607,133.211,73.605,125.475,68.35"/>
		<path style="fill:#E6002D;" d="M148.873,57.083c-2.983-10.02-16.982-29.752-42.069-29.752c-23.709,0-40.171,17.863-40.171,33.908
			c0,2.975,0.181,4.316,0.916,7.112c-0.307-1.221-0.47-2.452-0.47-3.647c0-16.708,16.73-28.288,33.928-28.288
			c23.282,0,42.156,18.875,42.156,42.152c0,18.252-10.499,34.043-25.762,41.635l0.005,0.012
			c19.671-7.124,33.718-25.962,33.718-48.087C151.124,66.892,150.42,62.275,148.873,57.083"/>
		<path style="fill:#575756;" d="M64.853,161.137H47.254V146.26h3.989v3.842h9.583v-3.842h4.027V161.137z M49.528,163.858h4.065
			v3.282H71.6v-3.282h4.064v14.467H49.528V163.858z M60.826,153.569h-9.583v4.174h9.583V153.569z M71.6,170.384H53.593v4.586H71.6
			V170.384z M71.526,145.739h4.139v15.809h-4.139v-6.375h-4.847v-3.618h4.847V145.739z"/>
		<path style="fill:#575756;" d="M84.343,170.421v-3.654h30.571v3.654h-13.235v8.575h-4.138v-8.575H84.343z M86.803,146.708h25.651
			v14.84H86.803V146.708z M108.354,150.325H90.867v7.606h17.487V150.325z"/>
		<path style="fill:#575756;" d="M122.175,166.744h30.571v3.654H139.51v8.575h-4.136v-8.575h-13.199V166.744z M128.697,150.488
			h17.488v-4.212h4.101v15.994h-25.651v-15.994h4.063V150.488z M146.186,154.068h-17.488v4.586h17.488V154.068z"/>
	</g>
</g>
</svg>
