<?xml version="1.0" encoding="iso-8859-1"?>
<!-- Generator: Adobe Illustrator 15.1.0, SVG Export Plug-In . SVG Version: 6.00 Build 0)  -->
<!DOCTYPE svg PUBLIC "-//W3C//DTD SVG 1.1//EN" "http://www.w3.org/Graphics/SVG/1.1/DTD/svg11.dtd">
<svg version="1.1" id="&#xB808;&#xC774;&#xC5B4;_1" xmlns="http://www.w3.org/2000/svg" xmlns:xlink="http://www.w3.org/1999/xlink"
	 x="0px" y="0px" width="200px" height="200px" viewBox="0 0 200 200" style="enable-background:new 0 0 200 200;"
	 xml:space="preserve">
<g>
	<polygon style="fill:#FCC800;" points="101.286,85.168 75.794,36.722 101.286,49.517 126.791,36.722 	"/>
	<g>
		<path style="fill:#FCC800;" d="M134.881,74.659l17.407-7.386V41.818l-31.193,13.244l-17.283,32.771
			c12.913,1.247,22.979,12.154,22.979,25.377c0,14.113-11.416,25.505-25.505,25.505c-14.095,0-25.518-11.392-25.518-25.505
			c0-13.224,10.094-24.131,22.976-25.377L81.482,55.062L50.289,41.818v25.455l17.401,7.386
			C56.95,84.025,50.139,97.828,50.139,113.21c0,28.251,22.893,51.142,51.147,51.142c28.248,0,51.142-22.891,51.142-51.142
			C152.428,97.828,145.632,84.025,134.881,74.659z"/>
	</g>
</g>
</svg>
