<?xml version="1.0" encoding="iso-8859-1"?>
<!-- Generator: Adobe Illustrator 15.1.0, SVG Export Plug-In . SVG Version: 6.00 Build 0)  -->
<!DOCTYPE svg PUBLIC "-//W3C//DTD SVG 1.1//EN" "http://www.w3.org/Graphics/SVG/1.1/DTD/svg11.dtd">
<svg version="1.1" id="&#xB808;&#xC774;&#xC5B4;_1" xmlns="http://www.w3.org/2000/svg" xmlns:xlink="http://www.w3.org/1999/xlink"
	 x="0px" y="0px" width="200px" height="200px" viewBox="0 0 200 200" style="enable-background:new 0 0 200 200;"
	 xml:space="preserve">
<g>
	<g>
		<g>
			<g>
				<path style="fill:#004DA0;" d="M40.017,88.034c-0.447,2.229-1.873,3.711-3.801,3.323c-1.989-0.392-2.881-2.469-2.479-4.399
					c0.073-0.434,0.213-0.842,0.484-1.205c-0.211,1.486,0.384,3.262,2.04,3.588c1.515,0.301,2.33-0.643,2.611-2.006
					c0.078-0.412,0.127-0.819,0.137-1.217l-7.781-1.54c-0.965-0.196-1.648-0.353-2.351,0.458l-0.058-0.014l0.686-3.399l0.055,0.014
					c0.132,0.931,1.426,1.08,2.209,1.231l6.503,1.287c0.769,0.155,2.019,0.502,2.536-0.277l0.047,0.006L40.017,88.034z"/>
				<path style="fill:#004DA0;" d="M28.474,99.759c-0.996-0.793-1.365-2.237-1.33-3.461c0.045-1.154,0.455-2.363,1.338-3.118
					c1.045-0.892,2.234-0.817,3.492-0.77l4.688,0.144c0.795,0.029,2.079,0.193,2.441-0.685h0.05l-0.113,3.312H39
					c-0.314-0.88-1.594-0.826-2.385-0.84l-4.697-0.15c-2.338-0.086-3.457,0.859-3.518,2.648c-0.029,0.982,0.336,1.993,1.135,2.587
					c0.527,0.401,0.962,0.396,1.596,0.417l5.294,0.184c0.779,0.02,2.067,0.165,2.437-0.695l0.053,0.004l-0.118,3.302l-0.052,0.01
					c-0.303-0.898-1.59-0.836-2.398-0.857l-6.633-0.225c-0.789-0.018-2.066-0.169-2.427,0.71h-0.057l0.089-2.557L28.474,99.759z"/>
				<path style="fill:#004DA0;" d="M37.76,110.398c0.599-0.76,0.866-1.889,0.739-2.858c-0.127-0.982-0.676-2.181-1.881-2.024
					c-2.392,0.301-1.571,6.25-4.798,6.657c-1.877,0.248-3.872-1.468-4.222-4.159c-0.143-1.061-0.121-2.133,0.113-3.161l2.121-0.795
					c-0.76,1.139-1.129,2.632-0.95,3.983c0.122,0.979,0.915,2.389,2.131,2.245c2.725-0.36,1.456-6.246,5.155-6.719
					c2.197-0.27,3.33,1.836,3.602,3.954c0.118,0.86,0.108,1.762-0.045,2.625L37.76,110.398z"/>
				<path style="fill:#004DA0;" d="M35.919,118.969l-0.951-3.312l4.742,0.464L35.919,118.969z M34.813,119.82l-2.132,1.57
					c-1.055,0.784-1.199,0.968-1.82,0.251l-0.045,0.019l0.995,3.437l0.043-0.016c0.227-1.094,1.087-1.666,1.937-2.315l7.674-5.947
					l-0.757-2.648l-0.058,0.016c-0.025,0.873-0.82,0.766-1.496,0.698l-7.862-0.809c-1.068-0.101-2.101-0.118-2.868-0.956
					l-0.047,0.016l0.875,3.089l0.057-0.018c0.077-0.894,0.596-0.915,1.652-0.82l2.627,0.19L34.813,119.82z"/>
				<path style="fill:#004DA0;" d="M35.077,126.7c-0.89,0.429-1.528,0.716-1.607,1.786l-0.047,0.021l-1.364-2.772l0.05-0.02
					c0.894,0.592,1.528,0.281,2.408-0.147l6.31-3.04c0.893-0.435,1.525-0.739,1.598-1.786l0.049-0.029l1.125,2.292l-0.021,0.008
					c-0.159,0.149-0.21,0.254-0.281,0.427l-0.204,0.374l-4.479,9.262l5.988-2.896c0.896-0.429,1.533-0.716,1.592-1.778l0.047-0.021
					l1.357,2.766l-0.043,0.018c-0.877-0.584-1.505-0.281-2.396,0.146l-8.867,4.295c-0.161-1.298,0.12-2.034,0.675-3.161l4.233-8.702
					L35.077,126.7z"/>
				<path style="fill:#004DA0;" d="M44.981,143.696c-0.733,0.647-1.276,1.106-1.057,2.157l-0.034,0.033l-2.085-2.292l0.036-0.04
					c1.028,0.327,1.556-0.132,2.285-0.786l5.223-4.661c0.729-0.649,1.248-1.119,1.028-2.141l0.037-0.037l1.728,1.896l-0.012,0.008
					c-0.122,0.181-0.134,0.303-0.157,0.488l-0.097,0.413l-1.727,10.13l4.949-4.423c0.734-0.655,1.271-1.105,1.033-2.145l0.047-0.035
					l2.07,2.284l-0.042,0.035c-1.005-0.32-1.524,0.13-2.257,0.793l-7.336,6.558c-0.525-1.212-0.455-1.995-0.227-3.234l1.643-9.511
					L44.981,143.696z"/>
				<path style="fill:#004DA0;" d="M59.474,153.385l-2.73-2.121l4.099-2.4L59.474,153.385z M59.089,154.704l-0.785,2.524
					c-0.378,1.247-0.388,1.489-1.303,1.262l-0.041,0.047l2.851,2.193l0.042-0.039c-0.484-1.012-0.131-1.974,0.166-2.998l2.66-9.293
					l-2.193-1.697l-0.033,0.051c0.496,0.725-0.217,1.09-0.797,1.44l-6.823,3.946c-0.927,0.545-1.765,1.132-2.892,0.917l-0.021,0.043
					l2.553,1.964l0.021-0.041c-0.466-0.758-0.055-1.09,0.841-1.627l2.245-1.392L59.089,154.704z"/>
				<path style="fill:#004DA0;" d="M65.041,161.093c-0.52,0.861-0.871,1.446-0.342,2.372l-0.018,0.042l-3.021-1.726l0.027-0.049
					c0.923,0.153,1.483-1.004,1.881-1.685l3.938-6.725l-1.338-0.771c-0.656-0.371-1.436-0.602-2.162-0.442l-0.051-0.029l1.586-1.483
					l0.043,0.025c0.138,0.187,0.336,0.297,0.514,0.435l0.392,0.221l5.67,3.271c0.262,0.146,0.505,0.271,0.765,0.291l0.044,0.024
					l-1.54,1.521l-0.042-0.027c0.11-0.644-0.456-1.072-0.95-1.363l-1.373-0.773L65.041,161.093z"/>
				<path style="fill:#004DA0;" d="M73.343,157.707c0.322-0.734,0.954-1.852,0.268-2.513l0.018-0.047l3.061,1.336l-0.014,0.041
					c-0.947-0.041-1.371,1.183-1.684,1.9l-2.666,6.019c-0.322,0.724-0.933,1.839-0.27,2.496l-0.021,0.042l-3.057-1.328l0.025-0.046
					c0.932,0.063,1.352-1.166,1.666-1.881L73.343,157.707z"/>
				<path style="fill:#004DA0;" d="M83.091,159.666c2.678,0.732,3.589,3.544,2.898,5.989c-0.705,2.504-2.875,3.919-5.451,3.199
					c-2.666-0.73-3.656-3.618-3.003-5.964C78.261,160.349,80.462,158.935,83.091,159.666z M83.56,158.483
					c-3.535-1.067-7.085,0.825-7.984,4.023c-0.983,3.441,1.187,6.611,4.539,7.543c3.368,0.938,6.934-0.765,7.892-4.194
					C88.866,162.834,87.119,159.45,83.56,158.483z"/>
				<path style="fill:#004DA0;" d="M90.875,169.619c-0.072,0.98-0.144,1.673,0.752,2.278l-0.008,0.052l-3.107-0.232v-0.045
					c0.973-0.473,1.035-1.173,1.106-2.143l0.513-6.936c0.071-0.983,0.131-1.674-0.747-2.265v-0.049l2.567,0.192l-0.002,0.012
					c0.055,0.215,0.12,0.302,0.23,0.455l0.217,0.367l5.818,8.512l0.504-6.608c0.071-0.961,0.141-1.667-0.757-2.251l0.004-0.041
					l3.089,0.218l-0.012,0.052c-0.937,0.452-0.995,1.152-1.067,2.126l-0.73,9.749c-1.219-0.508-1.715-1.113-2.416-2.158
					l-5.443-8.012L90.875,169.619z"/>
				<path style="fill:#004DA0;" d="M108.291,166.437l-3.455,0.346l1.283-4.539L108.291,166.437z M108.932,167.674l1.193,2.347
					c0.598,1.169,0.756,1.348-0.066,1.809l0.004,0.053l3.596-0.362l-0.016-0.047c-1.047-0.407-1.467-1.34-1.959-2.284l-4.561-8.538
					l-2.76,0.281v0.051c0.875,0.171,0.619,0.933,0.43,1.59l-2.18,7.527c-0.283,1.022-0.477,2.028-1.439,2.634v0.05l3.223-0.323
					l-0.004-0.055c-0.875-0.227-0.803-0.742-0.531-1.747l0.648-2.542L108.932,167.674z"/>
				<path style="fill:#004DA0;" d="M119.455,168.595c1.184-0.244,2.068-0.894,2.73-1.824l0.051-0.012l-0.271,2.469l-6.992,1.854
					l-0.016-0.053c0.779-0.533,0.346-1.755,0.137-2.513l-1.695-6.351c-0.213-0.771-0.449-2.038-1.4-2.119l-0.016-0.055l3.25-0.858
					l0.012,0.048c-0.779,0.553-0.326,1.774-0.127,2.523l1.988,7.341L119.455,168.595z"/>
				<path style="fill:#004DA0;" d="M136.787,161.071c-0.197,1.251-1.264,2.304-2.342,2.892c-1.018,0.549-2.273,0.811-3.379,0.435
					c-1.307-0.435-1.846-1.479-2.447-2.585l-2.252-4.092c-0.377-0.683-0.881-1.859-1.838-1.726l-0.02-0.043l2.936-1.59l0.023,0.045
					c-0.609,0.708,0.092,1.782,0.473,2.467l2.248,4.091c1.129,2.026,2.514,2.517,4.1,1.648c0.869-0.464,1.551-1.286,1.668-2.286
					c0.078-0.644-0.139-1.022-0.445-1.565l-2.537-4.614c-0.379-0.69-0.91-1.857-1.834-1.735l-0.023-0.031l2.932-1.592l0.039,0.042
					c-0.629,0.708,0.078,1.78,0.473,2.479l3.176,5.778c0.377,0.687,0.9,1.852,1.852,1.72l0.029,0.043l-2.275,1.226L136.787,161.071z
					"/>
				<path style="fill:#004DA0;" d="M142.584,155.816c0.629,0.749,1.074,1.302,2.129,1.121l0.043,0.037l-2.4,1.985l-0.023-0.043
					c0.361-1.01-0.092-1.545-0.725-2.294l-4.502-5.35c-0.629-0.734-1.074-1.273-2.121-1.094l-0.027-0.044l1.973-1.631l0.016,0.012
					c0.176,0.12,0.283,0.142,0.479,0.174l0.414,0.111l10.152,2.086l-4.281-5.066c-0.631-0.757-1.066-1.298-2.121-1.111l-0.027-0.039
					l2.381-1.968l0.023,0.045c-0.359,0.98,0.086,1.518,0.723,2.257l6.324,7.514c-1.232,0.475-2.02,0.382-3.254,0.103l-9.539-1.985
					L142.584,155.816z"/>
				<path style="fill:#004DA0;" d="M147.211,142.396c-0.602-0.529-1.488-1.472-2.334-1.027l-0.035-0.033l2.223-2.475l0.035,0.035
					c-0.338,0.875,0.709,1.652,1.299,2.168l4.959,4.367c0.594,0.531,1.475,1.46,2.313,1.018l0.043,0.041l-2.227,2.476l-0.043-0.042
					c0.35-0.852-0.697-1.637-1.279-2.154L147.211,142.396z"/>
				<path style="fill:#004DA0;" d="M154.588,133.785c-0.744-1.102-1.594-2.4-2.576-1.769l-0.049-0.019l1.5-2.13l7.283,10.634
					c-1.361,0.537-1.719,0.789-3.148,0.413l-7.42-1.906c-0.926-0.244-1.924-0.599-2.854-0.315l-0.039-0.027l1.465-2.094l0.16,0.132
					c0.318,0.227,1.221,0.441,1.621,0.533l7.877,2.064L154.588,133.785z"/>
				<path style="fill:#004DA0;" d="M163.748,131.441l1.174-1.898c0.598-0.993,0.803-2.232,0.496-3.358l0.008-0.043l1.738,1.702
					l-3.227,6.535l-0.043-0.025c0.113-0.933-1.117-1.415-1.822-1.757l-5.957-2.878c-0.729-0.349-1.834-1.002-2.529-0.341
					l-0.045-0.031l2.459-5.012c0.131-0.259,0.297-0.513,0.293-0.772l0.012-0.052l1.857,0.897l-0.025,0.045
					c-0.811,0.217-1.184,0.827-1.537,1.543c-0.271,0.545-0.527,1.104-0.678,1.65l2.936,1.429l0.918-1.867
					c0.121-0.252,0.246-0.502,0.246-0.736l0.018-0.049l1.684,0.82l-0.02,0.041c-0.582,0.032-0.887,0.701-1.139,1.179l-0.563,1.161
					L163.748,131.441z"/>
				<path style="fill:#004DA0;" d="M158.24,118.116c0.736-2.221,2.301-3.045,3.824-2.556c1.467,0.475,2.199,2.123,2.082,3.581
					l3.801-1.405c1.098-0.415,2.314-1.176,3.234-1.926l-0.512,1.515c-0.283,0.888-0.686,1.363-1.459,1.659l-3.199,1.208
					l-2.854,0.763c0.232-1.396,0.123-3.142-1.451-3.647c-1.205-0.384-2.248,0.423-2.559,1.549c-0.113,0.382-0.184,0.765-0.236,1.162
					l7.488,2.418c0.768,0.248,1.959,0.748,2.543-0.004l0.047,0.02l-1.043,3.174l-0.047-0.016c-0.027-0.94-1.303-1.231-2.051-1.483
					l-6.303-2.022c-0.771-0.256-1.953-0.768-2.563-0.025l-0.043-0.01L158.24,118.116z"/>
				<path style="fill:#004DA0;" d="M162.941,106.853c-0.799,0.562-1.369,1.564-1.533,2.53c-0.162,0.982,0.016,2.28,1.215,2.466
					c2.373,0.399,3.32-5.531,6.527-5.012c1.865,0.3,3.275,2.517,2.838,5.2c-0.17,1.051-0.508,2.077-1.031,2.996l-2.25,0.14
					c1.043-0.865,1.842-2.18,2.061-3.523c0.158-0.983-0.18-2.56-1.396-2.758c-2.703-0.439-3.207,5.558-6.881,4.96
					c-2.193-0.354-2.656-2.708-2.311-4.813c0.143-0.856,0.41-1.718,0.807-2.499L162.941,106.853z"/>
				<path style="fill:#004DA0;" d="M163.445,103.864c-0.807-0.043-2.09-0.236-2.471,0.624h-0.043l0.189-3.292h0.047
					c0.283,0.886,1.594,0.86,2.381,0.899l6.613,0.376c0.799,0.043,2.07,0.225,2.459-0.618h0.047l-0.188,3.294l-0.051-0.006
					c-0.264-0.888-1.566-0.853-2.361-0.903L163.445,103.864z"/>
				<path style="fill:#004DA0;" d="M170.193,94.858c1.012-0.058,1.697-0.074,2.184-1.035l0.064-0.004l0.184,3.461l-0.063,0.002
					c-0.377-0.856-1.656-0.689-2.447-0.637l-7.834,0.41l0.086,1.544c0.035,0.735,0.279,1.513,0.811,2.022l0.004,0.052l-2.121-0.5
					l-0.008-0.052c0.084-0.202,0.08-0.435,0.088-0.658l-0.02-0.447l-0.359-6.496c-0.008-0.295-0.039-0.566-0.156-0.793l-0.008-0.055
					l2.127,0.456v0.048c-0.602,0.257-0.652,0.961-0.625,1.533l0.082,1.566L170.193,94.858z"/>
				<path style="fill:#004DA0;" d="M168.635,84.409c1.031-0.207,1.543-0.305,2-1.303l0.059-0.023l0.693,3.336l-0.057,0.012
					c-0.605-0.747-1.703-0.402-2.514-0.241l-2.549,0.519l-4.018,3.77c-0.666,0.615-1.166,1.068-1.445,1.979l-0.314-1.553
					c-0.113-0.547-0.098-1.07,0.221-1.375l3.928-3.654l-3.641-1.467c-0.492-0.205-1.396-0.428-1.672,0.625l-0.047,0.008
					l-0.619-2.988l7.248,2.912L168.635,84.409z"/>
				<path style="fill:#004DA0;" d="M40.095,72.024c0,0.83-0.686,1.508-1.521,1.508c-0.854,0-1.528-0.678-1.528-1.508
					c0-0.835,0.675-1.512,1.528-1.512C39.41,70.513,40.095,71.189,40.095,72.024z"/>
				<path style="fill:#004DA0;" d="M163.084,72.024c0,0.83-0.689,1.508-1.523,1.508c-0.846,0-1.531-0.678-1.531-1.508
					c0-0.835,0.686-1.512,1.531-1.512C162.395,70.513,163.084,71.189,163.084,72.024z"/>
			</g>
		</g>
		<g>
			<path style="fill:#004DA0;" d="M104.467,28.947h-1.492v-3.579h-1.785v9.279c-0.61,0.652-1.637,0.613-1.637,0.613h-5.023
				c-0.075,0-0.133-0.064-0.133-0.138v-7.246h5.379V26.44h-7.167l0.008,8.681c0,0.862,0.704,1.548,1.57,1.548h5.315
				c0,0,0.882,0.081,1.688-0.375v4.993h1.785V30.376h1.492v10.911h1.781V25.368h-1.781V28.947z"/>
		</g>
		<polygon style="fill:#004DA0;" points="46.57,62.78 51.107,57.796 55.107,61.37 56.303,60.056 52.306,56.485 56.836,51.518 
			55.762,50.554 45.496,61.827 		"/>
		<path style="fill:#004DA0;" d="M44.458,58.462c0.64,0.575,1.639,0.527,2.222-0.113l5.717-6.272
			c0.582-0.642,0.529-1.631-0.114-2.21L47.8,45.854l-1.204,1.317l1.821,1.619l-5.432,5.968l-1.822-1.625l-1.191,1.31L44.458,58.462z
			 M49.486,49.755l1.6,1.428c0.051,0.05,0.061,0.135,0.006,0.186l-5.251,5.768c-0.051,0.054-0.132,0.06-0.187,0.011l-1.6-1.431
			L49.486,49.755z"/>
		<polygon style="fill:#004DA0;" points="74.84,29.704 73.209,30.425 77.958,40.974 79.591,40.256 76.904,34.278 79.06,33.323 
			78.47,32.019 76.312,32.973 		"/>
		<path style="fill:#004DA0;" d="M72.24,46.345l-1.764-3.916l-1.629,0.723l1.762,3.914c0.354,0.789,1.284,1.143,2.079,0.789
			l8.615-3.813l-0.591-1.303l-8.296,3.671C72.349,46.443,72.271,46.41,72.24,46.345z"/>
		<g>
			<path style="fill:#004DA0;" d="M68.324,34.673l-0.633-1.411l-1.631,0.722l0.635,1.411c1.881,4.171-1.763,6.815-2.014,6.992
				l1.591,0.606c0.833-0.732,2.54-2.489,2.689-4.742c1.79,1.393,4.237,1.305,5.346,1.171l0.61-1.569
				C74.548,37.935,70.191,38.806,68.324,34.673z"/>
		</g>
		<g>
			<polygon style="fill:#004DA0;" points="152.586,55.372 151.377,54.101 146.82,58.327 145.35,56.767 149.906,52.54 148.701,51.26 
				144.148,55.489 141.576,52.769 140.541,53.737 150.744,64.542 151.775,63.577 148.025,59.602 			"/>
			<path style="fill:#004DA0;" d="M153.9,57.095c-1.85,1.716-3.346,2.255-3.346,2.255l1.217,1.291c0,0,1.498-0.546,3.34-2.259
				l4.619-4.285l-0.004-0.008h0.004l-8.066-8.545l-1.033,0.963l6.85,7.266L153.9,57.095z"/>
		</g>
		<g>
			<polygon style="fill:#004DA0;" points="136.299,39.556 136.877,38.239 134.693,37.305 136.131,34.023 134.488,33.317 
				130.723,41.923 132.369,42.627 134.123,38.619 			"/>
			<polygon style="fill:#004DA0;" points="132.078,43.272 121.705,38.806 121.131,40.126 129.865,43.88 128.104,47.919 
				129.744,48.626 132.078,43.278 132.074,43.274 			"/>
			<path style="fill:#004DA0;" d="M132.637,34.085l-4.148-1.791l0.717-1.633l-1.645-0.709l-0.721,1.635l-4.139-1.781l-0.578,1.326
				l2.018,0.869c-0.744,0.352-1.346,0.932-1.688,1.701c-0.807,1.848,0.213,4.063,2.277,4.951c2.066,0.885,4.393,0.109,5.203-1.73
				c0.338-0.773,0.35-1.613,0.109-2.389l2.021,0.87L132.637,34.085z M125.313,37.331c-1.152-0.494-1.691-1.807-1.199-2.928
				c0.488-1.121,1.826-1.629,2.979-1.134c1.145,0.494,1.688,1.804,1.195,2.928C127.797,37.319,126.463,37.828,125.313,37.331z"/>
		</g>
		<g>
			<path style="fill:#004DA0;" d="M178.658,100.001c0,43.438-35.221,78.659-78.657,78.659c-43.446,0-78.659-35.221-78.659-78.659
				c0-43.441,35.213-78.662,78.659-78.662C143.438,21.339,178.658,56.56,178.658,100.001z M100.001,22.415
				c-42.852,0-77.589,34.733-77.589,77.586c0,42.848,34.737,77.583,77.589,77.583c42.846,0,77.583-34.735,77.583-77.583
				C177.584,57.148,142.848,22.415,100.001,22.415z"/>
			<path style="fill:#004DA0;" d="M157,100.001c0,31.482-25.521,57.001-56.999,57.001c-31.486,0-57.01-25.519-57.01-57.001
				s25.523-57.004,57.01-57.004C131.479,42.997,157,68.519,157,100.001z M100.001,44.069c-30.895,0-55.939,25.043-55.939,55.932
				c0,30.892,25.045,55.929,55.939,55.929c30.879,0,55.924-25.037,55.924-55.929C155.926,69.112,130.881,44.069,100.001,44.069z"/>
		</g>
	</g>
	<g>
		<path style="fill:#009953;" d="M135.52,130.926l-26.457-0.008c-8.18,0.06-9.201,5.456-9.201,5.456
			c-1.677-6.114-9.552-5.456-9.552-5.456H64.445V92.983h24.935c8.303,0.154,10.506,6.721,10.506,6.721
			c2.716-6.654,11.291-6.715,11.291-6.715l24.344-0.004V130.926z M109.492,89.214c-7.271,0.226-9.559,4.488-9.559,4.488
			c-2.311-4.467-9.307-4.475-9.307-4.475H60.658v45.446h29.346c4.002,0,5.418,1.881,5.893,3.23h8.106
			c1.408-3.405,5.494-3.206,5.494-3.206h29.838V89.214H109.492z"/>
		<path style="fill:#009953;" d="M84.591,110.463H73.658v11.006v0.006h15.047v-0.033h-0.014v-7.193h3.811v7.227h15.014v-7.227h3.801
			v7.213h15.027v-3.803h-10.906v-3.414h10.91v-11.423h-15.031v7.632h-3.801v-7.632h-4.119v7.628h-6.803v-7.628h-4.1v7.632h-3.791
			v-7.632H73.646v3.792h10.945V110.463z M84.595,117.691h-6.834v-3.443h6.834V117.691z M103.412,117.691h-6.809v-3.445h6.809
			V117.691z M115.438,106.605h6.807v3.85h-6.807V106.605z"/>
		<g>
			<polygon style="fill:#004DA0;" points="97.729,68.174 101.365,66.97 97.729,66.97 			"/>
			<path style="fill:#004DA0;" d="M89.876,73.388c1.338-1.401,2.731-1.223,2.731-0.628c0,0.599-0.69,1.312-0.69,1.312h-8.625
				l-4.727-6.811l0,0c-1.178-1.753-2.689-2.51-5.191-2.51c-2.516,0-7.277,0-12.705,0v20.514c7.724-0.004,26.732-0.02,28.966,0
				c8.556,0.078,10.23,3.725,10.23,3.725c1.794-2.838,5.246-3.711,10.574-3.717c2.641,0,21.275,0,28.885,0l0.01-20.521
				c-5.611,0-10.373,0-12.891,0c-2.484,0-3.994,0.757-5.176,2.51h-0.004l-4.828,6.811c0,0-3.848,0-7.156,0v-6.064l4.898-4.789
				l-5.057,0.002l1.279-1.119h-10.251c-2.062,0-3.688,0.84-4.276,2.01h-3.607c-3.318,0-4.528,1.871-3.854,4.329L89.876,73.388z
				 M135.52,81.495c-13.617,0-14.16,0-24.131,0c-6.43,0-9.432,0.435-11.479,2.658c-2.204-2.135-3.92-2.648-10.357-2.648
				c-5.447,0-20.574,0-25.1,0V68.542h7.889c0.781-0.018,1.433,0.165,1.857,0.389c0.314,0.176,0.885,0.563,1.303,1.13
				c0.525,0.728,5.199,7.576,5.199,7.576h13.485c0,0,1.255-2.595,2.024-4.405c0.789-1.827,0.516-3.109-1.153-3.234
				c-1.406-0.109-2.288,0.227-2.438,0.803l-0.599-2.044c-0.361-1.036-0.104-1.792,1.34-1.792h4.368c0,0.043,0.089-1.414,2.491-1.414
				h7.202l-2.031,1.87v10.217h13.977c0,0,4.447-6.849,4.971-7.576c0.404-0.567,0.979-0.954,1.299-1.13
				c0.42-0.224,1.078-0.412,1.852-0.426l8.031,0.004V81.495z"/>
		</g>
		<path style="fill:#009953;" d="M93.948,125.508c0.523-0.181,0.981-0.553,1.247-1.003h0.021v3.24c0,0.328-0.029,0.588,0.285,0.791
			v0.021h-1.209v-0.021c0.357-0.172,0.328-0.443,0.328-0.791v-2.222h-0.673V125.508z"/>
		<path style="fill:#009953;" d="M96.92,128.312c0.94-0.19,1.782-1.037,1.782-1.997c0-0.58-0.33-1.229-1.001-1.229
			c-0.496,0-0.849,0.39-0.849,0.866c0,0.53,0.353,0.939,0.886,0.939c0.215,0,0.431-0.061,0.614-0.181l-0.392,0.482
			c-0.147,0.051-0.315,0.076-0.476,0.076c-0.68,0-1.213-0.507-1.213-1.182c0-0.851,0.688-1.409,1.508-1.409
			c0.91,0,1.506,0.712,1.506,1.58c0,0.651-0.354,1.296-0.869,1.701c-0.527,0.42-1.123,0.626-1.78,0.711L96.92,128.312z"/>
		<path style="fill:#009953;" d="M101.527,127.316c-0.508,0-0.924-0.024-1.239-0.042l1.239-2.083V127.316z M101.527,127.772v0.147
			c0,0.299,0.035,0.504-0.283,0.616v0.021h1.125v-0.021c-0.256-0.124-0.268-0.396-0.268-0.646v-0.118h0.465l0.279-0.694
			c-0.201,0.171-0.473,0.238-0.744,0.238v-2.546h-0.799l-1.803,3.002H101.527z"/>
		<path style="fill:#009953;" d="M105.627,125.026c-0.385,0.053-0.85,0.352-1.137,0.611c-0.395,0.368-0.629,0.854-0.629,1.397
			c0,0.592,0.338,1.231,1.018,1.231c0.512,0,0.807-0.388,0.807-0.878c0-0.566-0.299-0.956-0.893-0.956
			c-0.221,0-0.441,0.069-0.637,0.191l0.373-0.467c0.154-0.07,0.322-0.11,0.508-0.11c0.725,0,1.24,0.49,1.24,1.216
			c0,0.814-0.65,1.386-1.461,1.386c-0.908,0-1.543-0.729-1.543-1.605c0-1.374,1.391-2.267,2.637-2.375L105.627,125.026z"/>
	</g>
</g>
</svg>
