<?xml version="1.0" encoding="iso-8859-1"?>
<!-- Generator: Adobe Illustrator 15.1.0, SVG Export Plug-In . SVG Version: 6.00 Build 0)  -->
<!DOCTYPE svg PUBLIC "-//W3C//DTD SVG 1.1//EN" "http://www.w3.org/Graphics/SVG/1.1/DTD/svg11.dtd">
<svg version="1.1" id="&#xB808;&#xC774;&#xC5B4;_1" xmlns="http://www.w3.org/2000/svg" xmlns:xlink="http://www.w3.org/1999/xlink"
	 x="0px" y="0px" width="200px" height="200px" viewBox="0 0 200 200" style="enable-background:new 0 0 200 200;"
	 xml:space="preserve">
<g>
	<polygon style="fill:#1F60A9;" points="35.897,126.374 32.382,132.451 37.248,135.188 44.252,131.144 	"/>
	<polygon style="fill:#1F60A9;" points="38.129,142.402 45.151,142.396 45.196,132.787 38.192,136.832 	"/>
	<polygon style="fill:#1F60A9;" points="161.691,57.795 154.67,57.799 154.628,67.42 161.629,63.378 	"/>
	<polygon style="fill:#1F60A9;" points="163.922,73.825 167.438,67.745 162.583,65.015 155.578,69.061 	"/>
	<polygon style="fill:#1F60A9;" points="155.575,131.045 162.58,135.088 167.438,132.354 163.922,126.277 	"/>
	<polygon style="fill:#1F60A9;" points="154.628,132.687 154.67,142.304 161.691,142.304 161.629,136.729 	"/>
	<polygon style="fill:#1F60A9;" points="44.25,68.959 37.245,64.915 32.382,67.648 35.897,73.727 	"/>
	<polygon style="fill:#1F60A9;" points="45.196,67.32 45.151,57.704 38.129,57.697 38.192,63.273 	"/>
	<polygon style="fill:#1F60A9;" points="105.741,25.295 100.951,28.135 100.951,36.224 109.245,31.381 	"/>
	<polygon style="fill:#1F60A9;" points="99.053,28.142 94.255,25.295 90.741,31.381 99.053,36.229 	"/>
	<polygon style="fill:#1F60A9;" points="99.053,40.392 88.959,34.396 85.476,40.426 99.053,48.472 	"/>
	<polygon style="fill:#1F60A9;" points="111.027,34.396 100.951,40.387 100.951,48.465 114.514,40.426 	"/>
	<polygon style="fill:#1F60A9;" points="100.951,171.773 105.741,174.61 109.245,168.525 100.951,163.686 	"/>
	<polygon style="fill:#1F60A9;" points="94.255,174.61 99.053,171.768 99.053,163.68 90.741,168.525 	"/>
	<path style="fill:#1F60A9;" d="M102.996,20.372c0,2.442-1.34,4.421-2.998,4.421c-1.652,0-2.993-1.979-2.993-4.421
		c0-2.443,1.34-4.422,2.993-4.422C101.656,15.949,102.996,17.928,102.996,20.372z"/>
	<path style="fill:#1F60A9;" d="M102.996,179.632c0,2.44-1.34,4.419-2.998,4.419c-1.652,0-2.993-1.979-2.993-4.419
		c0-2.445,1.34-4.426,2.993-4.426C101.656,175.206,102.996,177.187,102.996,179.632z"/>
	<path style="fill:#1F60A9;" d="M170.46,62.78c-2.117,1.221-4.5,1.048-5.329-0.382c-0.83-1.436,0.216-3.586,2.332-4.808
		c2.114-1.222,4.501-1.051,5.33,0.383C173.618,59.408,172.572,61.558,170.46,62.78z"/>
	
		<ellipse transform="matrix(0.4998 0.8662 -0.8662 0.4998 136.628 43.0515)" style="fill:#1F60A9;" cx="31.041" cy="139.815" rx="2.997" ry="4.423"/>
	<path style="fill:#1F60A9;" d="M32.535,57.591c2.116,1.22,3.158,3.371,2.333,4.807c-0.829,1.431-3.216,1.605-5.329,0.382
		c-2.116-1.223-3.162-3.369-2.331-4.807C28.037,56.54,30.42,56.369,32.535,57.591z"/>
	<path style="fill:#1F60A9;" d="M170.46,137.219c2.112,1.222,3.158,3.375,2.331,4.81c-0.829,1.431-3.214,1.604-5.33,0.383
		c-2.114-1.22-3.16-3.371-2.33-4.808C165.96,136.172,168.343,135.997,170.46,137.219z"/>
	<polygon style="fill:#1F60A9;" points="143.737,121.5 156.922,114.074 153.468,108.035 140.235,115.489 	"/>
	<polygon style="fill:#1F60A9;" points="133.484,127.057 133.646,142.366 140.605,142.34 140.438,127.057 	"/>
	<polygon style="fill:#1F60A9;" points="59.752,115.675 46.356,108.13 42.904,114.171 56.272,121.701 	"/>
	<polygon style="fill:#1F60A9;" points="59.383,127.057 59.22,142.437 66.175,142.463 66.337,127.057 	"/>
	<polygon style="fill:#1F60A9;" points="144.202,57.759 144.031,72.907 145.125,72.907 151.022,69.501 151.165,57.763 	"/>
	<polygon style="fill:#1F60A9;" points="151.976,71.14 145.803,74.703 145.394,75.414 158.724,82.91 162.204,76.878 	"/>
	<polygon style="fill:#1F60A9;" points="158.724,117.195 145.545,124.604 146.117,125.585 151.972,128.966 162.204,123.225 	"/>
	<polygon style="fill:#1F60A9;" points="151.022,130.604 144.881,127.057 144.03,127.057 144.202,142.341 151.165,142.34 	"/>
	<g>
		<polygon style="fill:#1F60A9;" points="98.556,151.73 85.476,159.481 88.959,165.513 99.053,159.518 99.053,152.598 		"/>
		<polygon style="fill:#1F60A9;" points="100.951,152.567 100.951,159.522 111.027,165.513 114.514,159.481 101.434,151.73 		"/>
	</g>
	<polygon style="fill:#1F60A9;" points="55.124,127.057 48.8,130.707 48.655,142.437 55.617,142.438 55.792,127.057 	"/>
	<polygon style="fill:#1F60A9;" points="54.475,124.807 41.098,117.288 37.618,123.323 47.857,129.064 54.098,125.459 	"/>
	<polygon style="fill:#1F60A9;" points="54.212,74.71 47.852,71.038 37.618,76.779 41.098,82.813 54.529,75.262 	"/>
	<polygon style="fill:#1F60A9;" points="55.792,72.907 55.617,57.663 48.655,57.667 48.8,69.399 54.876,72.907 	"/>
	<polygon style="fill:#1F60A9;" points="93.308,142.582 80.175,150.352 83.676,156.362 96.769,148.615 	"/>
	<polygon style="fill:#1F60A9;" points="103.24,148.625 116.314,156.362 119.816,150.352 106.736,142.614 	"/>
	<polygon style="fill:#1F60A9;" points="143.604,78.529 140.138,84.556 153.468,92.064 156.922,86.028 	"/>
	<polygon style="fill:#1F60A9;" points="140.44,72.907 140.602,57.763 133.646,57.734 133.484,72.907 	"/>
	<polygon style="fill:#1F60A9;" points="106.633,57.355 119.816,49.559 116.314,43.549 103.147,51.339 	"/>
	<polygon style="fill:#1F60A9;" points="96.84,51.336 83.676,43.549 80.175,49.559 93.367,57.359 	"/>
	<polygon style="fill:#1F60A9;" points="56.321,78.374 42.904,85.93 46.356,91.969 59.789,84.402 	"/>
	<polygon style="fill:#1F60A9;" points="66.339,72.907 66.175,57.638 59.22,57.667 59.382,72.907 	"/>
	<polygon style="fill:#1F60A9;" points="134.922,106.369 138.43,112.388 151.683,104.924 149.276,100.769 144.846,100.769 	"/>
	<polygon style="fill:#1F60A9;" points="121.421,60.744 123.848,56.537 121.616,52.659 108.431,60.461 111.809,66.293 	"/>
	<polygon style="fill:#1F60A9;" points="122.969,72.907 129.897,72.907 130.063,57.725 125.261,57.731 122.969,61.702 	"/>
	<polygon style="fill:#1F60A9;" points="138.351,87.668 135.029,93.445 144.578,98.949 149.498,98.949 151.683,95.177 	"/>
	<polygon style="fill:#1F60A9;" points="122.969,127.057 122.969,137.947 125.506,142.341 130.063,142.374 129.896,127.057 	"/>
	<polygon style="fill:#1F60A9;" points="112.021,133.522 108.54,139.511 121.616,147.25 123.94,143.274 121.463,138.983 	"/>
	<polygon style="fill:#1F60A9;" points="78.289,138.945 75.926,143.041 78.375,147.25 91.522,139.471 88.013,133.351 	"/>
	<polygon style="fill:#1F60A9;" points="76.715,127.057 69.927,127.057 69.763,142.473 74.153,142.469 76.715,138.03 	"/>
	<polygon style="fill:#1F60A9;" points="55.196,100.769 50.569,100.769 48.14,105.022 61.546,112.571 65.076,106.466 	"/>
	<polygon style="fill:#1F60A9;" points="64.924,93.324 61.579,87.51 48.143,95.081 50.383,98.949 55.217,98.949 	"/>
	<polygon style="fill:#1F60A9;" points="80.866,62.237 88.144,66.418 91.574,60.469 78.375,52.659 76.003,56.772 78.274,60.706 	"/>
	<polygon style="fill:#1F60A9;" points="76.715,72.907 76.715,61.643 74.4,57.635 69.763,57.628 69.926,72.907 	"/>
	<path style="fill:#1F60A9;" d="M79.468,69.837c0.683-0.328,1.54-0.401,2.373-0.135l3.735,1.175l1.66-2.883l-8.695-4.998v7.634
		C78.768,70.296,79.09,70.025,79.468,69.837z"/>
	<path style="fill:#1F60A9;" d="M117.423,70.167l1.041,0.076c0,0,1.539,0.064,2.688,1.159v-8.405l-8.433,4.868l1.333,2.302H117.423z
		"/>
	<path style="fill:#1F60A9;" d="M81.657,131.161c-0.345,0.053-0.742,0.069-1.024,0.069c-0.099,0-0.203-0.002-0.304-0.017
		c-0.11,0.015-0.329-0.053-0.329-0.053c-0.466-0.112-0.895-0.338-1.24-0.655c-0.082-0.073-0.15-0.161-0.22-0.242v6.442l8.568-4.933
		l-0.824-1.438C84.575,130.763,82.976,131.022,81.657,131.161z"/>
	<path style="fill:#1F60A9;" d="M119.447,131.222c0,0-0.215,0.07-0.326,0.057c-0.107,0.014-0.302,0-0.431-0.014
		c-0.277-0.028-0.584-0.051-0.79-0.091c-0.972-0.101-2.038-0.275-3.238-0.529c-0.273-0.057-0.565-0.141-0.847-0.207l-0.863,1.482
		l8.2,4.756l-0.007-6.653C120.766,130.616,120.16,131.057,119.447,131.222z"/>
	<path style="fill:#0C2D83;" d="M110.277,129.396c-0.749-0.275-1.472-0.579-2.154-0.905c-0.497-0.239-0.976-0.483-1.435-0.745
		c-0.035-0.023-0.078-0.048-0.12-0.07c-0.334-0.192-0.648-0.376-0.956-0.579c-0.386-0.254-0.766-0.511-1.127-0.783
		c-0.044-0.028-0.083-0.061-0.12-0.084c-0.389-0.3-0.762-0.605-1.123-0.916c-1.371-1.216-2.518-2.598-3.428-4.133
		c-0.919,1.545-2.076,2.928-3.46,4.149c-0.404,0.348-0.814,0.689-1.258,1.012c-0.021,0.013-0.04,0.028-0.059,0.042
		c-0.688,0.51-1.425,0.98-2.207,1.417c-0.217,0.121-0.433,0.239-0.653,0.351c-0.23,0.129-0.464,0.237-0.712,0.357
		c-0.676,0.32-1.386,0.612-2.121,0.888c-0.419,0.155-0.836,0.298-1.249,0.429l11.891,20.739l11.897-20.645
		C111.35,129.757,110.819,129.6,110.277,129.396z"/>
	<polygon style="fill:#1F60A9;" points="133.988,104.762 142.531,99.865 134.122,95.021 131.236,100.042 	"/>
	<polygon style="fill:#1F60A9;" points="65.833,94.906 57.271,99.865 65.988,104.89 68.788,100.042 	"/>
	<path style="fill:#0C2D83;" d="M143.668,74.741h-21.29c-0.001,0.059,0.006,0.108,0.004,0.168l0.001,0.085
		c-0.05,2.765-0.195,2.883-0.501,5.149c-0.078,0.539-0.158,1.066-0.247,1.57c-0.007,0.049-0.019,0.097-0.023,0.141
		c-0.14,0.846-0.302,1.647-0.473,2.425c-0.007,0.042-0.021,0.085-0.032,0.131c-0.108,0.49-0.23,0.97-0.354,1.425
		c-0.576,2.239-1.272,4.167-1.999,5.802c1.097,1.69,2.419,3.44,4.01,5.167c0.046,0.036,0.088,0.08,0.12,0.116
		c0.423,0.427,0.688,0.994,0.688,1.609c0,0.203-0.03,0.4-0.09,0.596c-0.103,0.4-0.327,0.753-0.62,1.04
		c-0.021,0.021-0.048,0.045-0.068,0.068c-0.46,0.41-1.084,0.668-1.761,0.668c-0.661,0-1.269-0.243-1.729-0.64l-0.025,0.032
		c0,0-1.447-1.425-3.283-3.777c-1.74,2.423-3.145,3.393-3.145,3.393l-0.035-0.023c-0.447,0.389-1.057,0.628-1.721,0.628
		c-1.111,0-2.065-0.675-2.401-1.603c-0.446,0.652-1.222,1.083-2.126,1.083c-0.568,0-1.094-0.174-1.519-0.468
		c0,0-0.01-0.012-0.032-0.029c-0.253-0.186-0.465-0.416-0.624-0.677c-1.026-1.322-2.849-4.758-2.21-12.044c0,0,0,0,0-0.005
		c0-0.008,0-0.025,0.007-0.038c0.034-0.324,0.154-0.632,0.324-0.896c0.434-0.688,1.239-1.146,2.161-1.146
		c0.926,0,1.727,0.458,2.167,1.146c0.218,0.343,0.343,0.75,0.343,1.178c0,0.163-0.023,0.325-0.061,0.48
		c-0.045,0.537-0.425,5.201,1.607,8.999c0.081,0.129,0.148,0.273,0.207,0.415c0.136-0.214,0.317-0.402,0.514-0.567
		c1.346-1.398,2.472-2.89,3.389-4.417c-1.11-1.834-2.149-3.903-2.927-6.088c-0.18-0.467-0.335-0.941-0.476-1.425
		c-0.016-0.045-0.021-0.089-0.04-0.131c-0.229-0.798-0.426-1.607-0.57-2.425c-0.016-0.044-0.018-0.092-0.022-0.141
		c-0.094-0.517-0.168-1.036-0.217-1.57c-0.04-0.414-0.064-0.821-0.079-1.233h0.01c0-0.039-0.009-0.066-0.009-0.096
		c0-1.283,1.129-2.324,2.515-2.324c1.315,0,2.396,0.937,2.496,2.135h0.003c0,0,0.062,0.556,0.278,1.518
		c0.102,0.444,0.231,0.972,0.402,1.57c0.006,0.049,0.03,0.097,0.036,0.141c0.21,0.715,0.463,1.537,0.799,2.425
		c0.017,0.042,0.029,0.085,0.044,0.131c0.162,0.423,0.338,0.861,0.528,1.307c0.139-0.44,0.267-0.871,0.38-1.307
		c0.009-0.045,0.021-0.089,0.034-0.131c0.218-0.839,0.397-1.645,0.541-2.425c0-0.044,0.017-0.092,0.017-0.141
		c0.106-0.536,0.183-1.062,0.25-1.57c0.28-2.094,0.352-2.846,0.315-4.147c-0.172-1.095-1.081-0.996-1.081-0.996h-0.492h-4.818
		l-0.326,0.014c-1.331-0.019-2.402-1.095-2.402-2.385c0-0.315-0.006-0.691,0.075-0.979c0.239-0.854,0.929-1.493,1.959-1.504
		l0.463,0.023h1.405L99.986,49.542L87.337,71.482c1.16,0.595,1.767,1.807,1.348,2.877c-0.454,1.234-2.041,1.841-3.513,1.359
		l-3.132-0.978H56.335l14.563,25.301l-14.563,25.19h26.838c0.879-0.189,1.759-0.377,2.758-0.694
		c2.394-0.775,5.107-1.815,7.032-3.794c0.46-0.471,0.879-0.899,1.267-1.457c0.032-0.05,0.058-0.094,0.086-0.133
		c0.477-0.716,0.879-1.491,1.202-2.352c0.021-0.041,0.03-0.089,0.049-0.133c0.154-0.445,0.292-0.902,0.396-1.381
		c0.066-0.28,0.124-0.58,0.171-0.884H81.603c-1.621,0-2.953-1.233-2.953-2.738v-0.248c0-1.503,1.332-2.734,2.953-2.734h15.1v-3.564
		c0-1.495,1.389-2.73,3.092-2.73h0.277c1.707,0,3.102,1.235,3.102,2.73v3.564h14.996c1.615,0,2.95,1.231,2.95,2.734v0.248
		c0,1.505-1.335,2.738-2.95,2.738h-14.688c0.051,0.304,0.102,0.604,0.173,0.884c0.104,0.479,0.24,0.936,0.397,1.381
		c0.012,0.044,0.031,0.092,0.048,0.133c0.328,0.86,0.724,1.636,1.195,2.352c0.037,0.039,0.066,0.083,0.097,0.133
		c0.385,0.558,0.776,1.085,1.262,1.525c2.396,2.172,4.947,3.105,7.699,3.88c0.746,0.212,1.297,0.387,1.817,0.54h27.498
		l-14.541-25.19L143.668,74.741z M77.673,78.189c0.167-0.448,0.488-0.814,0.908-1.076c0.707-0.444,1.68-0.577,2.621-0.281
		l5.805,1.88c0.826,0.276,1.458,0.836,1.763,1.491c0.223,0.503,0.267,1.049,0.083,1.569c0,0.008,0,0.027-0.017,0.029
		c-0.004,0.043-0.019,0.075-0.03,0.115c-0.518,1.146-2.055,1.702-3.481,1.24l-3.844-1.24l-0.425-0.144l-1.539-0.491
		c-0.651-0.209-1.168-0.603-1.518-1.078c-0.07-0.091-0.129-0.184-0.19-0.287C77.522,79.378,77.455,78.768,77.673,78.189z
		 M87.118,87.617c0.296,6.312-5.132,11.896-5.523,12.291c-0.481,0.544-1.208,0.896-2.033,0.896c-0.519,0-1.001-0.141-1.412-0.387
		c-0.511-0.294-0.904-0.755-1.093-1.292c-0.004-0.01-0.004-0.013-0.008-0.021c-0.072-0.224-0.106-0.463-0.106-0.711
		c0-0.732,0.351-1.389,0.913-1.834c0.052-0.049,0.101-0.099,0.159-0.152c4.162-4.257,3.944-9.365,3.944-9.365l0.062,0.006
		c0.059-0.461,0.27-0.878,0.584-1.21c0.471-0.493,1.18-0.816,1.969-0.816c0.793,0,1.498,0.323,1.98,0.816
		c0.363,0.393,0.593,0.901,0.593,1.459C87.146,87.404,87.138,87.508,87.118,87.617z M91.953,98.818
		c-0.156,0.262-0.362,0.492-0.619,0.677c-0.018,0.017-0.031,0.029-0.031,0.029c-0.43,0.294-0.954,0.468-1.52,0.468
		c-1.383,0-2.511-1.04-2.511-2.316c0-0.429,0.135-0.836,0.348-1.184c2.034-3.798,1.651-8.462,1.602-8.999
		c-0.036-0.155-0.057-0.317-0.057-0.48c0-0.429,0.128-0.835,0.348-1.178c0.434-0.688,1.244-1.146,2.16-1.146
		c0.924,0,1.732,0.458,2.164,1.146c0.169,0.264,0.283,0.571,0.325,0.896h0.002c0.006,0.013,0.006,0.03,0.006,0.038
		c0,0.005,0,0.005,0,0.005C94.803,94.06,92.995,97.496,91.953,98.818z M101.199,84.279v0.131v1.425v12.786
		c0,1.546-1.372,2.823-3.054,2.823h-0.042c-1.679,0-3.049-1.276-3.049-2.823V85.835V84.41v-0.131v-1.673h-2.173
		c-0.873,0-1.654-0.289-2.218-0.751c-0.049-0.044-0.108-0.092-0.157-0.141c-0.422-0.409-0.676-0.928-0.676-1.491
		c0-0.028,0-0.051,0.002-0.08c0.049-1.272,1.404-2.305,3.049-2.305h2.173V71.76v-1.622c0-0.605,0.21-1.171,0.568-1.635
		c0.55-0.713,1.459-1.182,2.48-1.182h0.042c1.682,0,3.054,1.271,3.054,2.817v0.805h2.939c1.67,0,3.046,1.072,3.046,2.383
		c0,1.309-1.376,2.382-3.046,2.382h-2.939v2.129h3.168c1.646,0,2.992,1.033,3.042,2.305c0,0.029,0.007,0.051,0.007,0.08
		c0,0.563-0.256,1.082-0.678,1.491c-0.055,0.049-0.108,0.097-0.163,0.141c-0.548,0.463-1.336,0.751-2.208,0.751h-3.168V84.279z"/>
</g>
</svg>
