<?xml version="1.0" encoding="iso-8859-1"?>
<!-- Generator: Adobe Illustrator 15.1.0, SVG Export Plug-In . SVG Version: 6.00 Build 0)  -->
<!DOCTYPE svg PUBLIC "-//W3C//DTD SVG 1.1//EN" "http://www.w3.org/Graphics/SVG/1.1/DTD/svg11.dtd">
<svg version="1.1" id="&#xB808;&#xC774;&#xC5B4;_1" xmlns="http://www.w3.org/2000/svg" xmlns:xlink="http://www.w3.org/1999/xlink"
	 x="0px" y="0px" width="200px" height="200px" viewBox="0 0 200 200" style="enable-background:new 0 0 200 200;"
	 xml:space="preserve">
<path style="fill:#6F6FB9;" d="M100.457,35.514c-35.898,0-65,29.102-65,65s29.102,65,65,65s65-29.102,65-65
	S136.355,35.514,100.457,35.514z M152.646,76.848l-14.426,2.485l-14.245-5.907l11.288-2.991L152.646,76.848z M156.465,88.358
	l-11.132-1.125l-5.145-5.819l5.275-1.099L156.465,88.358z M141.03,71.286l-4.606-1.789l1.15-3.302l8.569,0.397L141.03,71.286z
	 M134.957,68.885l-11.751,3.021l4.017-9.933l12.134-3.321L134.957,68.885z M130.641,52.62l0.231,6.769l-3.811,1.206l-1.91-4.125
	L130.641,52.62z M125.726,61.403l-4.226,9.68l-5.389-12.67l3.933-11.123L125.726,61.403z M109.645,45.943l6.864,7.967l-1.657,3.738
	l-5.557-3.297L109.645,45.943z M114.251,59.112l5.496,12.219l-15.353-6.063L93.349,45.132L114.251,59.112z M97.15,57.957
	l4.188,7.319l-10.204,0.313L78.388,53.581L97.15,57.957z M103.594,66.987l15.245,5.861l-14.119,4.028l-35.573-8.001L103.594,66.987z
	 M92.02,77.667l9.861,1.47l-6.033,8.834l-22.725,4.971L92.02,77.667z M105.364,79.228l14.37-4.515l-4.912,11.886l-29.136,19.922
	L105.364,79.228z M97.467,131.697l6.826-34.871l10.479-6.196l2.865,12.65L97.467,131.697z M124.305,124.987l-6.987-37.022
	l4.094-12.306l6.26,13.406L124.305,124.987z M129.09,101.586l0.877-10.32l9.235,5.037l6.406,26.43L129.09,101.586z M130.242,88.063
	l-7.194-13.179l14.606,6.262l18.278,21L130.242,88.063z"/>
</svg>
