<?xml version="1.0" encoding="iso-8859-1"?>
<!-- Generator: Adobe Illustrator 15.1.0, SVG Export Plug-In . SVG Version: 6.00 Build 0)  -->
<!DOCTYPE svg PUBLIC "-//W3C//DTD SVG 1.1//EN" "http://www.w3.org/Graphics/SVG/1.1/DTD/svg11.dtd">
<svg version="1.1" id="&#xB808;&#xC774;&#xC5B4;_1" xmlns="http://www.w3.org/2000/svg" xmlns:xlink="http://www.w3.org/1999/xlink"
	 x="0px" y="0px" width="200px" height="200px" viewBox="0 0 200 200" style="enable-background:new 0 0 200 200;"
	 xml:space="preserve">
<g>
	<path style="fill:#DC2715;" d="M24.445,170.396h33.672V29.604H24.445V170.396z M45.431,44.938c3.71,0,6.655,0.847,8.041,1.55
		l-1.045,3.547c-1.715-0.85-3.855-1.45-7.096-1.45c-7.806,0-12.896,5.1-12.896,13.544c0,8.547,4.85,13.591,12.37,13.591
		c2.71,0,4.571-0.404,5.525-0.894V64.78h-6.475v-3.504h10.571v16.195c-1.865,0.75-5.57,1.849-9.906,1.849
		c-4.85,0-8.85-1.29-11.996-4.454c-2.765-2.791-4.476-7.29-4.476-12.531C28.05,52.285,34.666,44.938,45.431,44.938z"/>
	<path style="fill:#4F5B54;" d="M63.592,170.396h33.667V29.604H63.592V170.396z M79.164,81.617h4.38v33.685h-4.38V81.617z"/>
	<path style="fill:#4F5B54;" d="M102.745,170.396h33.656V29.604h-33.656V170.396z M119.961,141.484
		c-5.471-2.004-8.855-4.902-8.855-9.601c0-5.244,4.325-9.142,10.846-9.142c3.395,0,5.924,0.797,7.371,1.647l-1.195,3.549
		c-1.04-0.646-3.287-1.596-6.325-1.596c-4.57,0-6.32,2.751-6.32,5.048c0,3.15,2.044,4.693,6.675,6.494
		c5.671,2.245,8.504,4.948,8.504,9.896c0,5.2-3.779,9.744-11.688,9.744c-3.237,0-6.767-1.003-8.571-2.203l1.149-3.646
		c1.95,1.25,4.73,2.196,7.71,2.196c4.437,0,7.027-2.297,7.027-5.74C126.287,145.03,124.496,143.185,119.961,141.484z"/>
	<path style="fill:#4F5B54;" d="M141.888,29.604v140.793h33.667V29.604H141.888z M171.529,85.321h-10.257v29.981h-4.375V85.321
		h-10.2v-3.704h24.832V85.321z"/>
</g>
</svg>
