<?xml version="1.0" encoding="iso-8859-1"?>
<!-- Generator: Adobe Illustrator 15.1.0, SVG Export Plug-In . SVG Version: 6.00 Build 0)  -->
<!DOCTYPE svg PUBLIC "-//W3C//DTD SVG 1.1//EN" "http://www.w3.org/Graphics/SVG/1.1/DTD/svg11.dtd">
<svg version="1.1" id="&#xB808;&#xC774;&#xC5B4;_1" xmlns="http://www.w3.org/2000/svg" xmlns:xlink="http://www.w3.org/1999/xlink"
	 x="0px" y="0px" width="200px" height="200px" viewBox="0 0 200 200" style="enable-background:new 0 0 200 200;"
	 xml:space="preserve">
<g>
	<path style="fill:#76161B;" d="M100.006,10.044c-49.686,0-89.965,40.278-89.965,89.971c0,49.67,40.279,89.941,89.965,89.941
		c49.669,0,89.953-40.271,89.953-89.941C189.959,50.322,149.676,10.044,100.006,10.044z M100.006,165.089
		c-35.95,0-65.1-29.137-65.1-65.088c0-35.955,29.15-65.097,65.1-65.097c35.949,0,65.087,29.142,65.087,65.097
		C165.094,135.952,135.955,165.089,100.006,165.089z"/>
	<g>
		
			<linearGradient id="SVGID_1_" gradientUnits="userSpaceOnUse" x1="4128.1484" y1="2663.9893" x2="3993.155" y2="2823.0334" gradientTransform="matrix(0.6767 0 0 0.6767 -2638.9326 -1776.5957)">
			<stop  offset="0" style="stop-color:#454648"/>
			<stop  offset="0.5169" style="stop-color:#EEEEEF"/>
			<stop  offset="1" style="stop-color:#5C6063"/>
		</linearGradient>
		<path style="fill:url(#SVGID_1_);" d="M98.97,49.207L98.97,49.207c0,0-38.408,10.476-40.455,11.034c0,2.135,0,45.227,0,45.227
			l0.256,3.975c0.447,4.305,2.282,9.781,4.036,13.168c7.829,15.947,24.27,28.238,30.966,32.787c1.619,1.098,4.047,2.357,4.322,2.506
			c0,0,1.229,0.641,2.024,1.051c0.757-0.395,2.021-1.051,2.021-1.051c0.119-0.059,2.709-1.408,4.42-2.572
			c6.678-4.531,23.084-16.834,30.904-32.775c0-0.006,1.41-3.129,1.41-3.129c1.342-3.328,2.234-6.727,2.621-10.033
			c0-0.037,0.262-4.012,0.262-4.012s-0.01-43.006-0.01-45.141c-2.041-0.555-40.88-11.15-41.613-11.346
			C99.69,49.011,98.97,49.207,98.97,49.207z"/>
		<g>
			<path style="fill:#004B9D;" d="M137.354,82.577V63.608l-20.764-5.664C127.535,64.173,133.836,72.649,137.354,82.577z"/>
			<g>
				
					<radialGradient id="SVGID_2_" cx="680.248" cy="-654.4717" r="151.1537" gradientTransform="matrix(1.0431 0 0 1.0431 -539.024 702.8979)" gradientUnits="userSpaceOnUse">
					<stop  offset="0.0393" style="stop-color:#76161B"/>
					<stop  offset="0.2921" style="stop-color:#BF6167"/>
					<stop  offset="0.9382" style="stop-color:#5C070C"/>
				</radialGradient>
				<path style="fill:url(#SVGID_2_);" d="M117.246,139.038c3.104-20.709,1.713-41.732-1.484-57.729
					c-8.365,2.002-18.824,5.338-31.912,10.598c-6.698,2.715-13.807,6.992-20.935,11.049v2.521c0,1.133,0.096,2.266,0.219,3.387
					c0.371,3.066,1.19,6.049,2.358,8.949c0.374,0.945,0.798,1.885,1.248,2.813c7.393,15.066,23.431,27.008,29.508,31.129
					c1.446,0.988,3.871,2.238,3.871,2.238h0.035c0,0,2.412-1.25,3.861-2.238c2.781-1.881,7.633-5.396,12.793-10.096
					C116.955,140.794,117.104,139.923,117.246,139.038z"/>
				
					<radialGradient id="SVGID_3_" cx="680.2471" cy="-654.4673" r="151.1432" gradientTransform="matrix(1.0431 0 0 1.0431 -539.024 702.8979)" gradientUnits="userSpaceOnUse">
					<stop  offset="0.0393" style="stop-color:#76161B"/>
					<stop  offset="0.2921" style="stop-color:#BF6167"/>
					<stop  offset="0.9382" style="stop-color:#5C070C"/>
				</radialGradient>
				<path style="fill:url(#SVGID_3_);" d="M110.031,76.835C98.115,68.929,84.51,63.8,72.642,60.96l-9.727,2.648v24.896
					c7.906-2.965,15.819-5.494,23.174-7.332C95.35,78.931,103.262,77.562,110.031,76.835z"/>
				
					<radialGradient id="SVGID_4_" cx="680.2588" cy="-654.4663" r="151.164" gradientTransform="matrix(1.0431 0 0 1.0431 -539.0054 702.9184)" gradientUnits="userSpaceOnUse">
					<stop  offset="0.0393" style="stop-color:#76161B"/>
					<stop  offset="0.2921" style="stop-color:#BF6167"/>
					<stop  offset="0.9382" style="stop-color:#5C070C"/>
				</radialGradient>
				<path style="fill:url(#SVGID_4_);" d="M113.783,57.179l-4.516-1.232c3.357,5.379,6.525,11.992,9.242,20.27
					c3.26-0.117,6.18-0.066,8.793,0.105c2.27,0.191,4.279,0.461,6.092,0.811C129.508,69.257,123.313,62.45,113.783,57.179z"/>
				
					<radialGradient id="SVGID_5_" cx="680.2412" cy="-654.4688" r="151.1381" gradientTransform="matrix(1.0431 0 0 1.0431 -539.024 702.8979)" gradientUnits="userSpaceOnUse">
					<stop  offset="0.0393" style="stop-color:#76161B"/>
					<stop  offset="0.2921" style="stop-color:#BF6167"/>
					<stop  offset="0.9382" style="stop-color:#5C070C"/>
				</radialGradient>
				<path style="fill:url(#SVGID_5_);" d="M85.346,57.489c9.952,3.563,19.971,9.295,28.65,16.191
					c-1.977-7.49-4.186-13.426-6.553-18.228l-7.308-1.995l-12.625,3.34L85.346,57.489z"/>
				
					<radialGradient id="SVGID_6_" cx="680.25" cy="-654.4849" r="151.1772" gradientTransform="matrix(1.0431 0 0 1.0431 -539.024 702.8979)" gradientUnits="userSpaceOnUse">
					<stop  offset="0.0393" style="stop-color:#76161B"/>
					<stop  offset="0.2921" style="stop-color:#BF6167"/>
					<stop  offset="0.9382" style="stop-color:#5C070C"/>
				</radialGradient>
				<path style="fill:url(#SVGID_6_);" d="M126.969,79.226c-1.732,0.215-3.611,0.504-5.643,0.883
					c7.316,7.08,13.051,14.92,16.027,22.674V88.489c-0.756-3.336-1.783-6.539-3.135-9.598
					C132.135,78.813,129.74,78.917,126.969,79.226z"/>
				
					<radialGradient id="SVGID_7_" cx="680.251" cy="-654.4722" r="151.1582" gradientTransform="matrix(1.0431 0 0 1.0431 -539.024 702.8979)" gradientUnits="userSpaceOnUse">
					<stop  offset="0.0393" style="stop-color:#76161B"/>
					<stop  offset="0.2921" style="stop-color:#BF6167"/>
					<stop  offset="0.9382" style="stop-color:#5C070C"/>
				</radialGradient>
				<path style="fill:url(#SVGID_7_);" d="M121.141,85.563c3.354,14.193,4.713,31.418,3.436,48.189
					c3.453-3.973,6.631-8.393,8.951-13.127c0.443-0.928,0.867-1.867,1.25-2.813c1.162-2.875,1.98-5.852,2.352-8.896
					C133.699,99.763,128.037,92.022,121.141,85.563z"/>
			</g>
		</g>
	</g>
	<g>
		<path style="fill:#FFFFFF;" d="M47.768,154.864c0.363-0.203,0.678-0.426,0.936-0.672l2.03-1.902l-6.026-6.426l-0.854,0.799
			l4.614,4.92l-1.213,1.139c-0.264,0.246-0.533,0.473-0.803,0.688c-0.273,0.209-0.543,0.373-0.807,0.479l-5.414-5.771l-0.851,0.799
			l3.267,3.486l-1.478,1.387l-2.337-2.492l-0.847,0.797l4.622,4.93l-2.499,2.346l1.409,1.502l3.353-3.143l-2.288-2.438l1.476-1.385
			l3.323,3.541l0.855-0.797l-1.354-1.445C47.106,155.175,47.403,155.063,47.768,154.864z"/>
	</g>
	<g>
		<path style="fill:#FFFFFF;" d="M157.344,150.653c0.697,0.65,1.248,1.205,1.662,1.668c0.412,0.463,0.693,0.938,0.832,1.436
			l1.244-1.332c-0.127-0.459-0.373-0.953-0.738-1.486c-0.373-0.531-0.865-1.09-1.492-1.674l-3.604-3.365l-6.252,6.697l0.857,0.803
			l4.855-5.201L157.344,150.653z"/>
		<polygon style="fill:#FFFFFF;" points="156.98,151.86 155.621,153.317 159.357,156.806 158.65,157.56 154.918,154.075 
			153.559,155.53 157.295,159.019 155.908,160.505 156.768,161.306 164.504,153.019 163.643,152.218 160.721,155.353 		"/>
	</g>
	<g>
		<path style="fill:#FFFFFF;" d="M58.401,164.601c-0.259-0.061-0.56-0.172-0.896-0.332c-0.339-0.162-0.681-0.367-1.041-0.621
			l-3.254-2.316l0.804-1.131l3.587,2.551l2.319-3.26l-5.384-3.83l-0.681,0.957l3.704,2.635l-0.969,1.359l-3.587-2.553l-1.371,1.926
			c-0.242,0.342-0.327,0.68-0.258,1.025c0.072,0.348,0.279,0.646,0.635,0.898l3.672,2.611c0.379,0.271,0.751,0.473,1.125,0.609
			c0.375,0.137,0.723,0.223,1.035,0.254l-0.513,0.721l1.687,1.193l4.034-5.67l-1.685-1.199L58.401,164.601z"/>
		<path style="fill:#FFFFFF;" d="M56.029,167.696l-3.521-2.504l0.765-1.08l-1.683-1.197l-2.083,2.928
			c-0.232,0.33-0.315,0.676-0.245,1.039c0.065,0.363,0.275,0.674,0.626,0.92l5.707,4.061l2.88-4.049l-1.682-1.193L56.029,167.696z
			 M54.594,169.714l-3.522-2.506l0.759-1.066l3.522,2.506L54.594,169.714z"/>
	</g>
	<g>
		<path style="fill:#FFFFFF;" d="M131.371,164.522l1.328,3.047l-1.131,0.492l-1.324-3.047l-1.799,0.783l2.613,6.012
			c-0.123,0.133-0.293,0.279-0.504,0.436c-0.213,0.158-0.477,0.307-0.799,0.445l-1.902,0.826l-2.262-5.199l2.355-1.023l-0.467-1.078
			l-4.232,1.842l2.658,6.113c0.164,0.379,0.414,0.631,0.752,0.75c0.332,0.125,0.697,0.098,1.096-0.076l2.396-1.041
			c0.342-0.148,0.621-0.32,0.832-0.51c0.209-0.186,0.371-0.367,0.482-0.547l1.996,4.588l1.801-0.783l-3.227-7.412l1.131-0.492
			l3.227,7.416l1.799-0.783l-5.018-11.539L131.371,164.522z"/>
	</g>
	<g>
		<polygon style="fill:#FFFFFF;" points="146.414,158.038 144.988,156.015 143.295,157.21 147.475,163.13 149.168,161.935 
			147.094,158.999 148.787,157.802 148.109,156.843 		"/>
		<g>
			<polygon style="fill:#FFFFFF;" points="142.199,167.884 142.877,168.849 148.637,164.78 150.547,167.489 152.244,166.292 
				149.652,162.622 			"/>
			<path style="fill:#FFFFFF;" d="M143.488,159.354l-0.66-0.938l-2.146,1.516l-0.686-0.967l-1.691,1.193l0.682,0.971l-2.146,1.514
				l0.664,0.938L143.488,159.354z"/>
			<path style="fill:#FFFFFF;" d="M140.045,160.821c-1.512,1.07-1.943,3.063-0.963,4.459c0.986,1.391,3.01,1.652,4.525,0.586
				c1.512-1.07,1.941-3.064,0.961-4.455C143.586,160.015,141.561,159.755,140.045,160.821z M142.82,164.749
				c-0.604,0.426-1.533,0.141-2.084-0.637c-0.549-0.777-0.508-1.752,0.096-2.178c0.604-0.422,1.535-0.135,2.086,0.639
				C143.463,163.351,143.424,164.327,142.82,164.749z"/>
		</g>
	</g>
	<g>
		<polygon style="fill:#FFFFFF;" points="101.473,176.321 99.499,176.321 99.499,181.405 98.467,181.405 98.467,176.321 
			96.489,176.321 96.489,181.405 94.468,181.405 94.468,182.573 105.732,182.573 105.732,181.405 101.473,181.405 		"/>
		<path style="fill:#FFFFFF;" d="M102.479,176.597c0,0.945-0.029,1.723-0.084,2.334c-0.055,0.615-0.217,1.141-0.48,1.582h1.814
			c0.246-0.402,0.441-0.92,0.578-1.549c0.135-0.623,0.203-1.365,0.203-2.217v-4.752h-9.105v1.168h7.074V176.597z"/>
	</g>
	<g>
		<polygon style="fill:#FFFFFF;" points="75.239,170.091 76.211,167.812 74.301,167.001 70.671,175.538 72.576,176.353 
			74.78,171.175 76.689,171.985 77.148,170.901 		"/>
		<path style="fill:#FFFFFF;" d="M72.581,168.292l0.45-1.055l-2.418-1.025l0.462-1.092l-1.907-0.809l-0.462,1.088l-2.417-1.029
			l-0.452,1.057L72.581,168.292z"/>
		<path style="fill:#FFFFFF;" d="M69.521,166.14c-1.704-0.727-3.627-0.043-4.296,1.527c-0.667,1.566,0.177,3.428,1.88,4.152
			c1.707,0.727,3.627,0.043,4.296-1.525C72.069,168.726,71.226,166.862,69.521,166.14z M67.641,170.565
			c-0.678-0.289-0.926-1.232-0.554-2.105c0.374-0.877,1.224-1.355,1.902-1.066c0.676,0.285,0.925,1.23,0.552,2.107
			C69.17,170.378,68.318,170.854,67.641,170.565z"/>
		<path style="fill:#FFFFFF;" d="M66.917,173.091l-1.895-0.807l-1.065,2.502c-0.165,0.389-0.171,0.748-0.018,1.084
			c0.152,0.332,0.416,0.578,0.795,0.74l6.574,2.795l0.458-1.074l-5.993-2.549L66.917,173.091z"/>
	</g>
	<g>
		<path style="fill:#FFFFFF;" d="M89.203,174.997c0.175-0.375,0.304-0.74,0.375-1.09l0.56-2.727l-8.629-1.768l-0.235,1.145
			l6.608,1.355l-0.336,1.635c-0.071,0.348-0.159,0.688-0.26,1.02c-0.104,0.33-0.227,0.615-0.381,0.857l-7.75-1.59l-0.235,1.146
			l4.679,0.957l-0.406,1.984l-3.346-0.684l-0.234,1.141l6.62,1.357l-0.686,3.359l2.018,0.416l0.921-4.502l-3.275-0.674l0.41-1.982
			l4.76,0.975l0.236-1.145l-1.943-0.398C88.841,175.634,89.02,175.372,89.203,174.997z"/>
	</g>
	<g>
		<path style="fill:#FFFFFF;" d="M116.408,175.06l3.514-0.719l-0.225-1.117l-6.787,1.387l-0.164-0.805l6.58-1.352l-0.23-1.115
			l-6.578,1.348l-0.172-0.834l6.65-1.363l-0.23-1.125l-8.67,1.773l0.754,3.686c0.082,0.402,0.279,0.697,0.582,0.887
			c0.303,0.182,0.666,0.232,1.086,0.145l1.873-0.383l0.191,0.928l-4.711,0.965l0.23,1.131l11.443-2.342l-0.234-1.131l-4.711,0.963
			L116.408,175.06z"/>
		<path style="fill:#FFFFFF;" d="M115.908,177.753c-1.838,0.377-3.078,1.891-2.773,3.379c0.305,1.49,2.041,2.395,3.879,2.018
			c1.836-0.375,3.076-1.887,2.773-3.377C119.482,178.278,117.744,177.376,115.908,177.753z M116.771,181.956
			c-0.734,0.152-1.461-0.402-1.631-1.238c-0.172-0.828,0.279-1.623,1.012-1.775c0.729-0.148,1.457,0.404,1.629,1.238
			C117.955,181.013,117.498,181.808,116.771,181.956z"/>
	</g>
	<path style="fill:#FFFFFF;" d="M165.994,143.214c-0.02,1.037-0.885,1.861-1.928,1.844c-1.043-0.025-1.867-0.887-1.846-1.926
		c0.025-1.045,0.887-1.871,1.928-1.848C165.191,141.31,166.012,142.171,165.994,143.214z"/>
	<path style="fill:#FFFFFF;" d="M33.747,143.214c0.02,1.037,0.885,1.861,1.926,1.844c1.046-0.025,1.869-0.887,1.847-1.926
		c-0.027-1.045-0.89-1.871-1.931-1.848C34.548,141.31,33.725,142.171,33.747,143.214z"/>
	<g>
		<path style="fill:#FFFFFF;" d="M27.955,134.397c-0.741-0.121-1.813-0.477-1.785,0.484l-0.035,0.018l-1.024-2.123l0.012-0.004
			l4.784,1.031l1.973-3.887c0.308-0.598,0.421-1.205,0.426-1.947l0.036-0.018l0.534,1.107c0.279,0.578,0.316,1.229,0.135,1.576
			l-2.259,4.316L27.955,134.397z M29.331,137.308c-0.53,0.256-1.423,0.602-1.358,1.309l-0.035,0.018l-1.092-2.262l0.036-0.018
			c0.502,0.498,1.34,0.006,1.87-0.248l4.443-2.145c0.542-0.262,1.436-0.605,1.37-1.314l0.034-0.018l1.092,2.264l-0.036,0.016
			c-0.513-0.492-1.35-0.002-1.881,0.254L29.331,137.308z"/>
		<path style="fill:#FFFFFF;" d="M25.256,120.958c2.526-0.861,5.073,0.607,5.914,3.07c0.835,2.453-0.218,5.121-2.754,5.986
			c-2.353,0.803-5.02-0.568-5.845-3.191C21.671,124.228,23.027,121.72,25.256,120.958z M27.821,128.642
			c1.734-0.592,3.098-2.426,2.435-4.371c-0.642-1.881-2.426-2.613-4.271-1.984c-1.808,0.617-3.161,2.365-2.493,4.32
			C24.147,128.526,25.952,129.278,27.821,128.642z"/>
		<path style="fill:#FFFFFF;" d="M20.297,117.909c-0.371-1.713,0.323-2.842,1.486-3.092c1.125-0.244,2.221,0.551,2.69,1.545
			l1.917-2.34c0.549-0.682,1.039-1.631,1.343-2.459l0.255,1.176c0.146,0.678,0.071,1.135-0.319,1.621l-1.594,1.979l-1.547,1.566
			c-0.377-0.99-1.106-2.078-2.309-1.818c-0.919,0.199-1.286,1.109-1.062,1.957c0.076,0.291,0.175,0.564,0.29,0.848l5.73-1.238
			c0.588-0.127,1.538-0.252,1.627-0.955l0.039-0.008l0.528,2.443l-0.039,0.008c-0.371-0.604-1.297-0.309-1.873-0.184l-4.821,1.041
			c-0.588,0.127-1.542,0.24-1.644,0.945l-0.038,0.008L20.297,117.909z"/>
		<path style="fill:#FFFFFF;" d="M26.449,109.702l-0.042-1.67c-0.026-0.865-0.407-1.73-1.057-2.309l-0.004-0.039l1.771,0.379
			l0.654,5.416l-0.038,0.004c-0.314-0.633-1.266-0.439-1.851-0.369l-4.897,0.592c-0.596,0.072-1.555,0.107-1.721,0.801l-0.039,0.004
			l-0.502-4.156c-0.028-0.221-0.028-0.445-0.14-0.604l-0.004-0.039l1.521-0.182l0.004,0.039c-0.42,0.459-0.406,0.996-0.334,1.596
			c0.054,0.453,0.123,0.906,0.25,1.313l2.417-0.291l-0.188-1.547c-0.024-0.207-0.05-0.414-0.147-0.563l-0.005-0.037l1.377-0.166
			l0.004,0.037c-0.351,0.254-0.273,0.799-0.224,1.201l0.116,0.961L26.449,109.702z"/>
		<path style="fill:#FFFFFF;" d="M23.694,102.589l1.853,0.66c0.735,0.268,1.116,0.355,1.346-0.275h0.039l0.025,2.406h-0.039
			c-0.389-0.754-1.122-0.969-1.872-1.248l-5.479-2.125c-0.472-0.18-1.026-0.422-1.215,0.209h-0.039l-0.022-2.066l6.682-2.795
			c0.743-0.309,1.473-0.553,1.844-1.303h0.039l0.03,2.682h-0.04c-0.295-0.637-0.438-0.531-1.35-0.168l-1.836,0.727L23.694,102.589z
			 M19.413,101.001l3.311,1.258l-0.029-2.576L19.413,101.001z"/>
		<path style="fill:#FFFFFF;" d="M25.785,90.282c0.722,0.121,1.236,0.221,1.751-0.396l0.038,0.006l-0.382,2.285l-0.039-0.006
			c-0.285-0.752-0.801-0.838-1.524-0.959l-5.149-0.861c-0.723-0.121-1.239-0.207-1.738,0.398l-0.039-0.008l0.315-1.883l0.013,0.002
			c0.163-0.025,0.237-0.066,0.355-0.141l0.288-0.137l6.752-3.725l-4.891-0.818c-0.722-0.121-1.236-0.221-1.738,0.398l-0.038-0.006
			l0.379-2.271l0.039,0.006c0.274,0.736,0.791,0.822,1.514,0.943l7.238,1.213c-0.463,0.863-0.956,1.193-1.787,1.639l-6.354,3.484
			L25.785,90.282z"/>
		<path style="fill:#FFFFFF;" d="M26.394,79.728l1.569,1.186c0.622,0.475,0.958,0.672,1.367,0.139l0.037,0.012l-0.697,2.305
			l-0.037-0.012c-0.145-0.836-0.782-1.262-1.411-1.752l-4.59-3.672c-0.397-0.311-0.851-0.709-1.221-0.164l-0.038-0.012l0.597-1.979
			l7.213-0.662c0.801-0.07,1.571-0.086,2.15-0.689l0.038,0.012l-0.776,2.566l-0.039-0.01c-0.09-0.697-0.258-0.639-1.236-0.566
			l-1.971,0.143L26.394,79.728z M22.784,76.927l2.781,2.193l0.746-2.467L22.784,76.927z"/>
		<path style="fill:#FFFFFF;" d="M30.948,71.278c0.692,0.281,1.16,0.486,1.795-0.002l0.037,0.014l-0.977,2.4l-0.036-0.016
			c0.015-0.699-0.899-0.988-1.443-1.209l-5.403-2.203l-0.436,1.064c-0.212,0.521-0.302,1.121-0.103,1.641l-0.014,0.035l-1.269-1.012
			l0.015-0.035c0.12-0.121,0.184-0.279,0.272-0.426l0.124-0.305l1.842-4.518c0.084-0.207,0.151-0.404,0.143-0.594l0.015-0.035
			l1.283,0.977l-0.014,0.035c-0.489-0.014-0.747,0.445-0.91,0.846l-0.445,1.09L30.948,71.278z"/>
		<path style="fill:#FFFFFF;" d="M27.862,65.579c-0.539-0.27-1.352-0.779-1.873-0.293l-0.036-0.018l1.113-2.225l0.035,0.02
			c-0.071,0.695,0.83,1.059,1.357,1.322l4.411,2.207c0.526,0.264,1.346,0.76,1.86,0.287l0.036,0.018l-1.113,2.223l-0.035-0.018
			c0.081-0.689-0.819-1.053-1.346-1.318L27.862,65.579z"/>
		<path style="fill:#FFFFFF;" d="M36.006,56.042c2.291,1.369,2.817,4.262,1.481,6.496c-1.33,2.223-4.046,3.145-6.348,1.768
			c-2.133-1.275-2.811-4.197-1.344-6.521C31.195,55.419,33.986,54.833,36.006,56.042z M31.805,62.966
			c1.572,0.939,3.854,0.795,4.908-0.967c1.02-1.709,0.426-3.543-1.247-4.543c-1.64-0.98-3.848-0.885-4.909,0.891
			C29.517,60.087,30.109,61.95,31.805,62.966z"/>
		<path style="fill:#FFFFFF;" d="M39.842,55.47c0.575,0.457,0.977,0.793,1.725,0.502l0.032,0.025l-1.442,1.813l-0.031-0.025
			c0.114-0.795-0.295-1.119-0.869-1.576l-4.086-3.249c-0.575-0.456-0.984-0.78-1.713-0.493l-0.031-0.024l1.189-1.495l0.009,0.008
			c0.156,0.057,0.24,0.057,0.379,0.051l0.318,0.02l7.712,0.013l-3.882-3.086c-0.573-0.456-0.975-0.792-1.713-0.494l-0.031-0.023
			l1.433-1.804l0.031,0.025c-0.117,0.776,0.294,1.103,0.867,1.559l5.746,4.567c-0.825,0.532-1.415,0.581-2.356,0.567l-7.249-0.029
			L39.842,55.47z"/>
		<path style="fill:#FFFFFF;" d="M45.501,46.522l0.796,1.797c0.314,0.717,0.513,1.053,1.127,0.785l0.028,0.027l-1.727,1.678
			l-0.028-0.028c0.28-0.801-0.071-1.481-0.384-2.216l-2.235-5.438c-0.196-0.465-0.4-1.031-0.987-0.734l-0.027-0.029l1.482-1.44
			l6.629,2.919c0.734,0.324,1.414,0.686,2.214,0.438l0.027,0.028l-1.923,1.869l-0.029-0.028c0.26-0.653,0.084-0.683-0.807-1.095
			l-1.792-0.832L45.501,46.522z M43.702,42.323l1.368,3.268l1.848-1.796L43.702,42.323z"/>
		<path style="fill:#FFFFFF;" d="M55.176,41.065c0.733-0.505,1.158-1.217,1.338-2.053l0.032-0.023l0.531,1.791l-4.245,3.301
			l-0.024-0.03c0.383-0.597-0.273-1.312-0.636-1.776l-3.027-3.893c-0.369-0.476-0.896-1.277-1.574-1.064l-0.025-0.031l1.973-1.534
			l0.024,0.032c-0.374,0.606,0.294,1.314,0.655,1.778l3.503,4.503L55.176,41.065z"/>
		<path style="fill:#FFFFFF;" d="M69.496,31.67c0.274,0.68,0.459,1.169,1.253,1.286l0.014,0.037l-2.146,0.868l-0.015-0.037
			c0.491-0.636,0.295-1.123,0.02-1.8l-1.956-4.84c-0.275-0.679-0.471-1.165-1.249-1.273l-0.015-0.037l1.771-0.716l0.004,0.012
			c0.107,0.126,0.18,0.167,0.305,0.229l0.267,0.174l6.706,3.809l-1.858-4.597c-0.275-0.679-0.459-1.169-1.248-1.273l-0.015-0.037
			l2.135-0.863l0.015,0.036c-0.484,0.62-0.288,1.105-0.013,1.784l2.751,6.805c-0.979,0.058-1.517-0.19-2.33-0.666l-6.293-3.594
			L69.496,31.67z"/>
		<path style="fill:#FFFFFF;" d="M75.89,23.879c-0.177-0.575-0.371-1.515-1.082-1.556l-0.01-0.038l2.375-0.732l0.012,0.038
			c-0.552,0.43-0.192,1.332-0.02,1.895l1.452,4.714c0.174,0.563,0.381,1.499,1.079,1.543l0.012,0.038l-2.375,0.732l-0.014-0.037
			c0.557-0.418,0.197-1.32,0.024-1.883L75.89,23.879z"/>
		<path style="fill:#FFFFFF;" d="M84.358,22.208c0.138-0.984,0.333-2.129-0.531-2.268l-0.009-0.039l1.901-0.433l-1.368,9.544
			c-1.026-0.383-1.343-0.419-1.943-1.342l-3.114-4.779c-0.392-0.596-0.75-1.292-1.41-1.598l-0.011-0.039l1.863-0.424l0.022,0.156
			c0.064,0.281,0.45,0.851,0.615,1.108l3.291,5.087L84.358,22.208z"/>
		<path style="fill:#FFFFFF;" d="M89.828,26.507l1.668-0.053c0.867-0.031,1.728-0.417,2.306-1.07l0.039-0.005l-0.369,1.775
			l-5.414,0.684L88.053,27.8c0.633-0.318,0.434-1.269,0.358-1.853l-0.618-4.894c-0.077-0.597-0.119-1.554-0.812-1.717l-0.006-0.039
			l4.154-0.526c0.222-0.029,0.446-0.03,0.604-0.143l0.039-0.004l0.192,1.518l-0.039,0.005c-0.462-0.417-1-0.401-1.598-0.326
			c-0.455,0.058-0.906,0.128-1.313,0.259l0.306,2.415l1.544-0.196c0.208-0.026,0.416-0.053,0.563-0.15l0.039-0.004l0.174,1.375
			L91.6,23.526c-0.255-0.35-0.798-0.269-1.2-0.218l-0.96,0.122L89.828,26.507z"/>
		<path style="fill:#FFFFFF;" d="M97.21,18.291c1.752-0.058,2.737,0.826,2.776,2.017c0.037,1.15-0.939,2.086-2.004,2.369
			l1.961,2.305c0.571,0.663,1.417,1.315,2.179,1.761l-1.203,0.039c-0.693,0.023-1.131-0.133-1.539-0.603l-1.661-1.922l-1.263-1.804
			c1.042-0.191,2.241-0.715,2.201-1.944c-0.03-0.941-0.859-1.464-1.735-1.396c-0.299,0.023-0.585,0.072-0.885,0.134l0.193,5.858
			c0.02,0.602-0.028,1.559,0.647,1.771l0,0.04l-2.497,0.082l-0.001-0.039c0.66-0.257,0.537-1.222,0.518-1.81l-0.162-4.93
			c-0.021-0.602,0.041-1.56-0.636-1.785v-0.04L97.21,18.291z"/>
		<path style="fill:#FFFFFF;" d="M107.572,20.131c-0.479-0.554-1.27-0.903-2-0.947c-0.746-0.046-1.703,0.184-1.758,1.085
			c-0.109,1.79,4.387,2.037,4.238,4.453c-0.086,1.397-1.627,2.615-3.664,2.49c-0.797-0.049-1.586-0.214-2.314-0.534l-0.279-1.656
			c0.73,0.713,1.775,1.197,2.795,1.259c0.744,0.045,1.895-0.332,1.949-1.245c0.125-2.038-4.391-1.945-4.223-4.714
			c0.102-1.645,1.822-2.17,3.416-2.073c0.654,0.04,1.314,0.172,1.93,0.406L107.572,20.131z"/>
		<path style="fill:#FFFFFF;" d="M109.598,20.716c0.078-0.596,0.293-1.532-0.336-1.865l0.004-0.039l2.465,0.32l-0.004,0.04
			c-0.682,0.162-0.729,1.133-0.803,1.716l-0.635,4.891c-0.078,0.583-0.277,1.521,0.338,1.851l-0.006,0.039l-2.463-0.319l0.004-0.039
			c0.68-0.149,0.727-1.12,0.803-1.704L109.598,20.716z"/>
		<path style="fill:#FFFFFF;" d="M114.838,26.684c-0.143,0.732-0.254,1.23,0.35,1.761l-0.008,0.038l-2.543-0.495l0.008-0.039
			c0.689-0.118,0.795-1.071,0.908-1.649l1.115-5.727l-1.131-0.22c-0.553-0.108-1.158-0.079-1.629,0.216l-0.039-0.007l0.75-1.441
			l0.037,0.007c0.143,0.095,0.309,0.127,0.471,0.186l0.32,0.062l4.791,0.933c0.219,0.042,0.426,0.07,0.607,0.025l0.039,0.008
			l-0.709,1.448l-0.039-0.008c-0.078-0.481-0.58-0.646-1.002-0.729l-1.158-0.225L114.838,26.684z"/>
		<path style="fill:#FFFFFF;" d="M121.633,28.375c-0.217,0.755-0.326,1.131,0.18,1.782l-0.01,0.038l-2.451-0.707l0.01-0.037
			c0.707-0.137,0.854-0.98,1.025-1.571l0.537-1.86l-1.119-3.958c-0.18-0.651-0.313-1.139-0.82-1.64l1.145,0.33
			c0.4,0.116,0.752,0.313,0.84,0.624l1.064,3.86l2.234-1.889c0.305-0.252,0.766-0.772,0.16-1.315l0.01-0.037l2.201,0.634
			l-4.432,3.76L121.633,28.375z"/>
		<path style="fill:#FFFFFF;" d="M137.596,32.017c-1.115,2.425-3.934,3.259-6.301,2.17c-2.352-1.083-3.559-3.686-2.438-6.121
			c1.041-2.258,3.871-3.245,6.338-2.036C137.697,27.167,138.582,29.879,137.596,32.017z M130.262,28.583
			c-0.766,1.665-0.377,3.918,1.488,4.777c1.807,0.832,3.568,0.043,4.383-1.729c0.797-1.734,0.465-3.919-1.414-4.783
			C132.877,26,131.088,26.789,130.262,28.583z"/>
		<path style="fill:#FFFFFF;" d="M138.836,35.927c-0.309,0.503-0.895,1.263-0.465,1.817l-0.021,0.033l-2.111-1.29l0.021-0.033
			c0.691,0.146,1.131-0.72,1.438-1.224l2.572-4.208c0.314-0.513,0.877-1.287,0.439-1.847l0.02-0.033l3.572,2.183
			c0.189,0.116,0.365,0.254,0.559,0.265l0.033,0.021l-0.789,1.294l-0.033-0.02c-0.109-0.603-0.539-0.927-1.053-1.241
			c-0.391-0.239-0.789-0.467-1.188-0.618l-1.268,2.077l1.34,0.818c0.166,0.102,0.344,0.211,0.52,0.227l0.035,0.02l-0.723,1.184
			l-0.035-0.02c0.025-0.444-0.457-0.709-0.803-0.92l-0.826-0.505L138.836,35.927z"/>
		<path style="fill:#FFFFFF;" d="M147.213,41.975c-0.467,0.583-0.795,0.974-0.508,1.724l-0.023,0.029l-2.023-1.617l0.023-0.029
			c0.668,0.213,1.201-0.582,1.568-1.041l3.645-4.559l-0.9-0.72c-0.439-0.351-0.988-0.606-1.541-0.563l-0.031-0.025l1.33-0.93
			l0.029,0.024c0.082,0.149,0.215,0.256,0.332,0.382l0.254,0.205l3.813,3.046c0.174,0.139,0.348,0.26,0.529,0.305l0.029,0.024
			l-1.299,0.954l-0.031-0.024c0.154-0.464-0.213-0.841-0.551-1.11l-0.922-0.736L147.213,41.975z"/>
		<path style="fill:#FFFFFF;" d="M156.529,40.994c1.268,1.212,1.326,2.533,0.504,3.395c-0.795,0.831-2.146,0.789-3.096,0.228
			l-0.273,3.014c-0.072,0.871,0.053,1.933,0.268,2.789l-0.869-0.832c-0.504-0.479-0.697-0.9-0.646-1.522l0.211-2.53l0.404-2.166
			c0.865,0.609,2.078,1.101,2.928,0.212c0.652-0.681,0.445-1.64-0.215-2.216c-0.227-0.199-0.463-0.369-0.717-0.539l-4.049,4.238
			c-0.416,0.434-1.133,1.07-0.813,1.702l-0.027,0.027l-1.807-1.726l0.027-0.029c0.645,0.291,1.248-0.472,1.654-0.898l3.408-3.565
			c0.416-0.435,1.141-1.062,0.83-1.702l0.027-0.029L156.529,40.994z"/>
		<path style="fill:#FFFFFF;" d="M157.447,49.729l-1.852,0.662c-0.738,0.259-1.086,0.433-0.865,1.065l-0.031,0.025l-1.543-1.847
			l0.029-0.026c0.777,0.34,1.482,0.039,2.24-0.218l5.586-1.824c0.479-0.161,1.061-0.322,0.809-0.931l0.029-0.025l1.326,1.586
			l-3.402,6.393c-0.379,0.711-0.791,1.361-0.604,2.176l-0.029,0.025l-1.721-2.057l0.029-0.025c0.633,0.307,0.676,0.135,1.15-0.725
			l0.963-1.727L157.447,49.729z M161.768,48.247l-3.359,1.122l1.652,1.978L161.768,48.247z"/>
		<path style="fill:#FFFFFF;" d="M161.551,57.419c-0.617,0.395-1.064,0.664-1.033,1.467l-0.033,0.021l-1.248-1.951l0.033-0.021
			c0.717,0.367,1.158,0.084,1.775-0.311l4.398-2.812c0.615-0.395,1.057-0.677,1.021-1.462l0.033-0.021l1.027,1.61l-0.01,0.007
			c-0.105,0.129-0.133,0.208-0.172,0.342l-0.121,0.295l-2.512,7.291l4.178-2.672c0.617-0.395,1.064-0.666,1.021-1.461l0.035-0.021
			l1.238,1.939l-0.033,0.021c-0.695-0.361-1.139-0.08-1.756,0.316l-6.184,3.953c-0.234-0.953-0.09-1.527,0.229-2.414l2.379-6.847
			L161.551,57.419z"/>
		<path style="fill:#FFFFFF;" d="M172.764,66.347c0.24-0.689,0.15-1.551-0.174-2.207c-0.33-0.668-1.008-1.385-1.816-0.982
			c-1.605,0.795,0.414,4.816-1.754,5.891c-1.254,0.621-3.078-0.111-3.982-1.939c-0.355-0.715-0.604-1.482-0.688-2.273l1.297-1.066
			c-0.256,0.988-0.156,2.137,0.299,3.049c0.33,0.67,1.229,1.48,2.049,1.074c1.828-0.906-0.496-4.777,1.988-6.008
			c1.477-0.732,2.789,0.502,3.498,1.932c0.289,0.586,0.506,1.225,0.605,1.875L172.764,66.347z"/>
		<path style="fill:#FFFFFF;" d="M176.311,70.837c0.613,1.586,0.313,3.092-1.055,3.621c-1.402,0.543-2.797-0.418-3.332-1.797
			c-0.117-0.307-0.199-0.625-0.174-0.957c0.467,1.025,1.553,1.91,2.725,1.457c1.072-0.416,1.207-1.338,0.83-2.314
			c-0.113-0.293-0.246-0.563-0.404-0.826l-5.504,2.131c-0.682,0.266-1.174,0.441-1.291,1.229l-0.037,0.016l-0.938-2.428l0.035-0.016
			c0.461,0.537,1.336,0.115,1.885-0.098l4.602-1.779c0.547-0.213,1.467-0.484,1.475-1.189l0.037-0.014L176.311,70.837z"/>
		<path style="fill:#FFFFFF;" d="M176.188,85.101c-2.582,0.674-5.014-0.977-5.672-3.496c-0.654-2.506,0.592-5.09,3.188-5.768
			c2.406-0.627,4.963,0.936,5.594,3.611C180.004,82.103,178.467,84.507,176.188,85.101z M174.193,77.251
			c-1.771,0.463-3.268,2.191-2.75,4.18c0.502,1.924,2.229,2.785,4.115,2.293c1.848-0.482,3.326-2.125,2.803-4.125
			C177.85,77.636,176.104,76.753,174.193,77.251z"/>
		<path style="fill:#FFFFFF;" d="M180.93,88.812c0.244,1.736-0.531,2.809-1.709,2.975c-1.141,0.16-2.174-0.711-2.568-1.74
			l-2.086,2.195c-0.598,0.639-1.156,1.549-1.52,2.354l-0.166-1.193c-0.096-0.686,0.012-1.137,0.436-1.592l1.736-1.857l1.658-1.447
			c0.303,1.014,0.951,2.152,2.168,1.982c0.934-0.131,1.363-1.01,1.203-1.873c-0.053-0.297-0.133-0.576-0.227-0.867l-5.805,0.814
			c-0.596,0.082-1.553,0.139-1.693,0.832l-0.039,0.006l-0.348-2.475l0.039-0.006c0.326,0.627,1.273,0.402,1.855,0.32l4.885-0.684
			c0.596-0.084,1.555-0.127,1.707-0.822l0.041-0.004L180.93,88.812z"/>
		<path style="fill:#FFFFFF;" d="M174.768,97.737c-0.746,0.029-1.256,0.037-1.633,0.746l-0.041,0.002l-0.102-2.59l0.039-0.002
			c0.275,0.645,1.227,0.529,1.814,0.506l5.83-0.227l-0.045-1.15c-0.02-0.563-0.188-1.145-0.582-1.535l-0.002-0.039l1.574,0.396
			v0.039c-0.059,0.16-0.053,0.328-0.072,0.5l0.014,0.326l0.191,4.879c0.008,0.221,0.029,0.43,0.113,0.598l0.002,0.039l-1.572-0.359
			l-0.002-0.039c0.453-0.188,0.496-0.713,0.479-1.145l-0.045-1.176L174.768,97.737z"/>
		<path style="fill:#FFFFFF;" d="M176.316,102.425l-1.805-0.781c-0.717-0.314-1.09-0.428-1.359,0.188l-0.039-0.004l0.131-2.402
			l0.041,0.002c0.336,0.779,1.055,1.041,1.783,1.369l5.328,2.482c0.461,0.211,0.994,0.488,1.225-0.127h0.039l-0.113,2.064
			l-6.852,2.348c-0.762,0.26-1.506,0.453-1.926,1.178l-0.039-0.002l0.148-2.68l0.039,0.004c0.252,0.656,0.4,0.559,1.336,0.256
			l1.881-0.604L176.316,102.425z M180.484,104.294l-3.221-1.477l-0.143,2.574L180.484,104.294z"/>
		<path style="fill:#FFFFFF;" d="M173.883,111.708c-0.736-0.111-1.24-0.199-1.744,0.426l-0.039-0.006l0.387-2.563l0.039,0.006
			c0.148,0.684,1.104,0.748,1.686,0.836l5.771,0.871l0.17-1.139c0.084-0.557,0.029-1.16-0.285-1.617l0.006-0.039l1.471,0.686
			l-0.004,0.037c-0.088,0.146-0.113,0.314-0.166,0.479l-0.049,0.324l-0.727,4.826c-0.033,0.219-0.053,0.428,0,0.607l-0.006,0.039
			l-1.477-0.646l0.006-0.039c0.479-0.1,0.621-0.607,0.686-1.033l0.176-1.164L173.883,111.708z"/>
		<path style="fill:#FFFFFF;" d="M178.213,116.513c0.588,0.127,1.502,0.418,1.887-0.182l0.039,0.01l-0.525,2.43l-0.039-0.01
			c-0.104-0.691-1.066-0.818-1.643-0.943l-4.824-1.041c-0.574-0.123-1.49-0.402-1.871,0.186l-0.039-0.01l0.525-2.428l0.039,0.008
			c0.092,0.689,1.055,0.816,1.629,0.941L178.213,116.513z"/>
		<path style="fill:#FFFFFF;" d="M172.514,127.886c-2.545-0.799-3.729-3.49-2.949-5.975c0.777-2.471,3.205-3.998,5.764-3.193
			c2.373,0.744,3.709,3.428,2.822,6.029C177.34,127.372,174.762,128.593,172.514,127.886z M174.994,120.177
			c-1.748-0.551-3.934,0.121-4.551,2.08c-0.596,1.896,0.41,3.543,2.27,4.127c1.822,0.572,3.947-0.033,4.566-2.006
			C177.889,122.442,176.879,120.769,174.994,120.177z"/>
		<path style="fill:#FFFFFF;" d="M168.904,129.155c-0.666-0.307-1.135-0.539-1.793-0.076l-0.037-0.018l0.969-2.104l0.035,0.018
			c0.08,0.799,0.555,1.018,1.221,1.324l4.74,2.182c0.666,0.309,1.143,0.527,1.783,0.072l0.035,0.016l-0.797,1.736l-0.014-0.006
			c-0.164-0.018-0.246,0.002-0.379,0.041l-0.314,0.059l-7.492,1.822l4.504,2.072c0.664,0.307,1.135,0.537,1.781,0.072l0.035,0.016
			l-0.963,2.092l-0.035-0.016c-0.072-0.783-0.547-1.002-1.213-1.309l-6.666-3.068c0.672-0.713,1.234-0.902,2.154-1.111l7.045-1.697
			L168.904,129.155z"/>
	</g>
	<path style="fill:#FFFFFF;" d="M61.611,27.899l0.02,0.04c0.705-0.109,1.111,0.779,1.401,1.302l1.739,3.108
		c0.822,1.471,0.579,2.626-0.623,3.312c-1.218,0.666-2.313,0.256-3.134-1.211l-1.737-3.109c-0.291-0.524-0.835-1.334-0.372-1.882
		l-0.016-0.036l-2.22,1.237l0.021,0.037c0.72-0.116,1.111,0.784,1.402,1.307l1.739,3.109c0.465,0.833,0.881,1.622,1.872,1.956
		c0.842,0.281,2.161-0.139,2.921-0.564c0.772-0.433,1.814-1.333,2.022-2.197c0.235-1.021-0.224-1.785-0.688-2.619l-1.737-3.111
		c-0.291-0.521-0.848-1.326-0.376-1.879l-0.021-0.037L61.611,27.899z"/>
</g>
</svg>
