<?xml version="1.0" encoding="iso-8859-1"?>
<!-- Generator: Adobe Illustrator 15.1.0, SVG Export Plug-In . SVG Version: 6.00 Build 0)  -->
<!DOCTYPE svg PUBLIC "-//W3C//DTD SVG 1.1//EN" "http://www.w3.org/Graphics/SVG/1.1/DTD/svg11.dtd">
<svg version="1.1" id="&#xB808;&#xC774;&#xC5B4;_1" xmlns="http://www.w3.org/2000/svg" xmlns:xlink="http://www.w3.org/1999/xlink"
	 x="0px" y="0px" width="200px" height="200px" viewBox="0 0 200 200" style="enable-background:new 0 0 200 200;"
	 xml:space="preserve">
<g>
	
		<rect x="114.436" y="45.268" transform="matrix(0.9659 -0.2588 0.2588 0.9659 -15.952 36.2692)" style="fill:#0095B7;" width="30.668" height="66.901"/>
	
		<rect x="71.999" y="75.408" transform="matrix(0.2588 0.9659 -0.9659 0.2588 169.8773 -3.6741)" style="fill:#306A9B;" width="30.667" height="66.901"/>
	
		<rect x="84.302" y="2.833" transform="matrix(0.2587 0.9659 -0.9659 0.2587 108.9031 -69.3469)" style="fill:#DFAE75;" width="30.667" height="66.902"/>
	
		<rect x="41.87" y="32.973" transform="matrix(0.9659 -0.2588 0.2588 0.9659 -15.2417 17.0671)" style="fill:#E3605A;" width="30.667" height="66.903"/>
</g>
<g>
	<path style="fill:#7D7D7D;" d="M36.758,169.594c0-3.88,2.381-6.427,5.901-6.427c3.512,0,5.901,2.547,5.901,6.427
		c0,3.864-2.389,6.424-5.901,6.424C39.154,176.018,36.758,173.458,36.758,169.594z M42.66,173.134c1.95,0,3.27-1.429,3.27-3.596
		c0-2.186-1.323-3.597-3.27-3.597c-1.948,0-3.269,1.411-3.269,3.597C39.391,171.702,40.708,173.134,42.66,173.134z"/>
	<polygon style="fill:#7D7D7D;" points="23.086,165.72 23.086,164.354 22.596,164.354 22.596,160.079 14.921,160.079 
		14.921,161.439 21.294,161.439 21.294,164.354 14.671,164.354 14.671,165.72 18.171,165.72 18.171,167.665 14.742,167.665 
		14.742,169.027 21.407,169.027 21.407,172.253 22.701,172.253 22.701,167.665 19.467,167.665 19.467,165.72 	"/>
	<polygon style="fill:#7D7D7D;" points="20.384,180.754 20.384,179.439 16.017,179.439 16.017,178.259 20.054,178.259 
		20.054,174.555 14.72,174.555 14.72,175.873 18.754,175.873 18.754,176.947 14.72,176.947 14.72,180.754 	"/>
	<rect x="21.385" y="174.234" style="fill:#7D7D7D;" width="1.298" height="6.751"/>
	<path style="fill:#7D7D7D;" d="M21.381,182.435h-4.804v-1.06h-1.295v5.075h7.401v-5.075h-1.302V182.435z M21.381,183.797v1.292
		h-4.804v-1.292H21.381z"/>
	<g>
		<polygon style="fill:#7D7D7D;" points="89.152,164.814 86.745,164.814 86.745,158.839 84.035,158.839 84.035,173.649 
			86.745,173.649 86.745,167.853 89.152,167.853 		"/>
		<path style="fill:#7D7D7D;" d="M81.221,159.423h-2.699v3.587h-5.867v-3.587h-2.699v13.483h11.265V159.423z M78.522,165.959v3.978
			h-5.867v-3.978H78.522z"/>
		<polygon style="fill:#7D7D7D;" points="74.33,183.537 74.33,181.927 86.771,181.927 86.771,179.148 74.33,179.148 74.33,177.545 
			86.771,177.545 86.771,174.776 71.626,174.776 71.626,186.402 87.054,186.402 87.054,183.537 		"/>
	</g>
	<polygon style="fill:#7D7D7D;" points="117.572,159.131 117.572,167.148 115.448,167.148 115.448,159.131 112.751,159.131 
		112.751,177.214 105.339,177.214 105.339,162.901 110.377,162.901 110.377,159.849 102.637,159.849 102.637,180.291 
		112.751,180.291 112.751,187.184 115.448,187.184 115.448,170.191 117.572,170.191 117.572,187.184 120.263,187.184 
		120.263,159.131 	"/>
	<g>
		<polygon style="fill:#7D7D7D;" points="178.355,182.118 178.355,168.258 175.655,168.258 175.655,182.118 173.038,182.118 
			173.038,168.258 170.335,168.258 170.335,182.118 166.647,182.118 166.647,185.17 185.328,185.17 185.328,182.118 		"/>
		<polygon style="fill:#7D7D7D;" points="183.945,159.854 168.192,159.854 168.192,162.904 181.245,162.904 181.245,179.521 
			183.945,179.521 		"/>
	</g>
	<polygon style="fill:#7D7D7D;" points="41.163,183.358 41.163,176.877 38.456,176.877 38.456,186.402 54.5,186.402 54.5,183.358 	
		"/>
	<polygon style="fill:#7D7D7D;" points="56.416,166.687 54.046,166.687 54.046,158.793 51.349,158.793 51.349,177.894 
		54.046,177.894 54.046,169.732 56.416,169.732 	"/>
	<polygon style="fill:#7D7D7D;" points="44.029,160.364 44.029,158.255 41.33,158.255 41.33,160.364 36.67,160.364 36.67,163.269 
		48.791,163.269 48.791,160.364 	"/>
	<path style="fill:#7D7D7D;" d="M135.467,169.594c0-3.88,2.38-6.427,5.901-6.427c3.516,0,5.9,2.547,5.9,6.427
		c0,3.864-2.385,6.424-5.9,6.424C137.865,176.018,135.467,173.458,135.467,169.594z M141.368,173.134
		c1.954,0,3.272-1.429,3.272-3.596c0-2.186-1.325-3.597-3.272-3.597c-1.944,0-3.269,1.411-3.269,3.597
		C138.1,171.702,139.418,173.134,141.368,173.134z"/>
	<polygon style="fill:#7D7D7D;" points="142.738,160.364 142.738,158.255 140.038,158.255 140.038,160.364 135.38,160.364 
		135.38,163.269 147.5,163.269 147.5,160.364 	"/>
	<g>
		<polygon style="fill:#7D7D7D;" points="155.043,165.461 152.437,165.461 152.437,158.798 149.736,158.798 149.736,176.591 
			152.437,176.591 152.437,168.514 155.043,168.514 		"/>
		<polygon style="fill:#7D7D7D;" points="135.898,177.85 135.898,180.904 149.736,180.904 149.736,187.175 152.437,187.175 
			152.437,177.85 		"/>
	</g>
</g>
</svg>
