<?xml version="1.0" encoding="iso-8859-1"?>
<!-- Generator: Adobe Illustrator 15.1.0, SVG Export Plug-In . SVG Version: 6.00 Build 0)  -->
<!DOCTYPE svg PUBLIC "-//W3C//DTD SVG 1.1//EN" "http://www.w3.org/Graphics/SVG/1.1/DTD/svg11.dtd">
<svg version="1.1" id="&#xB808;&#xC774;&#xC5B4;_1" xmlns="http://www.w3.org/2000/svg" xmlns:xlink="http://www.w3.org/1999/xlink"
	 x="0px" y="0px" width="200px" height="200px" viewBox="0 0 200 200" style="enable-background:new 0 0 200 200;"
	 xml:space="preserve">
<g>
	<g>
		<path style="fill:#7CBD27;" d="M154.676,63.333c-5.767,0-8.498,1.5-11.343,6.748l-6.885,12.677h-0.202
			c-1.165-4.969-3.256-9.822-6.458-12.904c-4.807-4.613-11.117-6.521-18.56-6.521H92.042c12.167,5.181,22.109,19.861,22.109,36.175
			c0,13.534-6.825,24.944-16.805,30.222c4.5,3.722,9.774,6.137,15.554,6.137c14.771,0,24.959-8.673,32.759-22.641
			c24.675-44.179,28.066-49.893,28.066-49.893H154.676z"/>
		<path style="fill:#00683D;" d="M79.291,100.096c0-13.685,6.934-25.475,16.908-30.816c-4.499-3.758-9.879-5.943-15.66-5.943
			c-12.574,0-23.262,10.364-27.118,24.783h-0.33V71.311c0-2.784-0.036-4.464-1.324-5.752c-1.289-1.29-3.028-1.323-5.819-1.323
			H26.274v72.433h19.673c2.792,0,4.53-0.036,5.819-1.323c1.288-1.296,1.324-2.969,1.324-5.764v-17.703h0.33
			c3.855,14.424,14.544,24.79,27.118,24.79c3.662,0,14.356,0,21.4,0v-0.09C89.471,131.354,79.291,116.55,79.291,100.096z"/>
	</g>
</g>
</svg>
