<?xml version="1.0" encoding="iso-8859-1"?>
<!-- Generator: Adobe Illustrator 15.1.0, SVG Export Plug-In . SVG Version: 6.00 Build 0)  -->
<!DOCTYPE svg PUBLIC "-//W3C//DTD SVG 1.1//EN" "http://www.w3.org/Graphics/SVG/1.1/DTD/svg11.dtd">
<svg version="1.1" id="&#xB808;&#xC774;&#xC5B4;_1" xmlns="http://www.w3.org/2000/svg" xmlns:xlink="http://www.w3.org/1999/xlink"
	 x="0px" y="0px" width="200px" height="200px" viewBox="0 0 200 200" style="enable-background:new 0 0 200 200;"
	 xml:space="preserve">
<g>
	<path style="fill:#0052A4;" d="M9.731,100.001C9.731,50.153,50.141,9.728,100,9.728c49.857,0,90.27,40.425,90.27,90.274
		c0,49.844-40.413,90.27-90.27,90.27C50.141,190.271,9.731,149.846,9.731,100.001z M100,188.166
		c48.683,0,88.163-39.475,88.163-88.165c0-48.688-39.479-88.163-88.163-88.163c-48.684,0-88.162,39.476-88.162,88.163
		C11.837,148.691,51.315,188.166,100,188.166z"/>
	<path style="fill:#0052A4;" d="M38.278,100.001c0-33.776,27.393-61.171,61.166-61.171c33.778,0,61.16,27.396,61.16,61.171
		c0,33.772-27.382,61.161-61.16,61.161C65.671,161.162,38.278,133.773,38.278,100.001z M99.444,159.473
		c32.85,0,59.478-26.619,59.478-59.471c0-32.851-26.628-59.483-59.478-59.483c-32.852,0-59.478,26.632-59.478,59.483
		C39.967,132.854,66.593,159.473,99.444,159.473z"/>
	<polygon style="fill:#0052A4;" points="143.545,61.222 102.971,61.222 102.971,54.517 97.023,54.517 97.023,61.222 56.449,61.222 
		55.864,61.222 55.864,78.226 61.815,78.226 61.815,67.187 83.449,67.187 83.449,78.226 89.406,78.226 89.406,67.187 
		110.506,67.187 110.506,78.226 116.476,78.226 116.476,67.187 137.978,67.187 137.978,78.226 143.933,78.226 143.933,61.222 	"/>
	<path style="fill:#0052A4;" d="M144.147,80.677H55.864c0,0-0.786,21.516,0,27.036C61.815,150.484,100,159.152,100,159.152
		s38.182-8.668,44.148-51.439C144.91,102.193,144.147,80.677,144.147,80.677z M77.375,94.633c0.138-1.646,0.292-3.428,1.348-3.283
		c1.03,0.153,0.894,0.899,1.624,1.34c0.751,0.452,1.642,1.049,2.089,0.298c0.458-0.738,0.595-1.186,1.201-1.186
		c0.592,0,0.747,0.148,1.04,1.34c0.298,1.188,0.446,1.188,1.192,1.043c0.751-0.142,1.942-0.596,3.125,0.145
		c0,0,1.506-1.037,2.99,0.152c0,0,1.943-0.152,2.539-1.34c0,0-0.155,0.901,1.043,0.901c1.196,0,3.279-2.992,3.279-2.992
		s4.623,6.858,5.67,7.007c0,0,4.175,0.455,5.075-0.75c0.894-1.179,0.44-0.881-1.05-1.484c-1.492-0.595-5.521-2.234-5.521-2.234
		s2.684-0.602,4.476,0c1.797,0.596,3.429,1.489,5.658,0.893c2.244-0.6,8.358-3.729,10.001-7.448
		c0.685-1.564,1.347,0.138,0.748,1.327c-0.6,1.199-3.586,4.932-9.396,8.514c-0.732,0.452-1.192,1.035,0.148,1.494
		c1.341,0.449,4.173,0.293,8.801,5.364c1.35,1.473,1.636,1.627,0.894,2.385c-0.742,0.746-1.785-0.297-2.982-1.191
		c-1.192-0.9-4.471-3.873-11.185-4.333c-2.427-0.154-5.521,0.757-7.455,0.595c-1.939-0.135-5.965-0.433-8.958-1.186
		c-2.969-0.75-7.899-1.943-11.332-1.943c-0.584,0-1.031,0.151-1.626,0.604c-0.615,0.447-1.056-0.148-1.947-1.042
		C77.971,96.718,77.22,96.273,77.375,94.633z M88.847,106.117c2.694-0.758,6.717-2.992,8.207-2.992c1.497,0,1.497,0,2.39,0.75
		c0.889,0.748,1.64,2.242,5.52,1.35c1.055-0.25,1.337,0,1.042,1.346c-0.304,1.336-0.744,3.123-1.191,3.873
		c-0.453,0.746-0.453,0.889-1.937,0.285c-1.494-0.59-6.873-2.383-10.004-2.383c-3.129,0-6.109,0.602-7.602,1.203
		c-1.493,0.59-2.53,1.037-3.421,0c-0.896-1.049-1.505-1.793-1.505-1.793c-0.73-0.447-0.289-1.186,0.903-1.186
		C82.435,106.57,86.172,106.863,88.847,106.117z M82.832,101.938c0-1.506,1.226-2.736,2.744-2.736c1.503,0,2.734,1.229,2.734,2.736
		c0,1.51-1.231,2.74-2.734,2.74C84.058,104.678,82.832,103.447,82.832,101.938z M125.542,129.229c-0.576,2-3.879,6.412-8.498,8.506
		c-2.023,0.912-2.688,1.186-3.291,0.143c-0.601-1.037-0.735-1.789,1.644-4.172c2.392-2.385,8.391-10.621,7.905-14.465
		c-0.299-2.391-0.299-4.469-5.063-5.811c-1.01-0.285-0.605,0.59-0.161,1.49c0.456,0.889,1.498,5.215-1.183,10.137
		c-2.682,4.916-8.355,12.527-12.533,14.305c-4.165,1.799-6.71,2.396-7.601,1.061c-0.901-1.346,0.151-2.234,2.083-3.434
		c1.943-1.197,12.08-7.76,13.576-12.688c0,0-8.2,8.654-22.675,12.824c-5.112,1.482-13.514,3.557-17.739-1.184
		c-1.192-1.35-3.731-5.818,0.597-4.775c4.329,1.049,7.456,1.938,11.932,1.348c4.459-0.602,19.533-2.1,31.025-15.953
		c0.681-0.834,0.896-1.199,0-3.291c-0.905-2.08-1.806-4.322-2.845-4.322c-1.041,0-1.338,1.191-1.338,2.385
		c0,1.191,0,0.75-0.754,1.049c-0.743,0.293-1.636,0.143-1.636,0.143c-0.6-0.143-1.341-0.299-1.187-1.477
		c0.143-1.211,0.143-3,0.298-3.893c0.153-0.889,0.441-1.334,2.083-1.199c1.642,0.162,6.565-0.445,10.878,3.738
		C125.393,113.877,128.819,117.744,125.542,129.229z"/>
	<path style="fill:#0052A4;" d="M161.604,134.252c-0.845-0.527-2.3-0.957-3.402,0.811l-2.309,3.746l4.27,2.656l2.183-3.537
		C163.32,136.355,163.182,135.227,161.604,134.252z M68.001,28.586l-0.826-1.598l-2.313,1.195l0.829,1.595L68.001,28.586z
		 M63.488,32.901l-2.363-4.575l-4.86,2.508l2.362,4.575L63.488,32.901z M66.431,36.731c-1.344,0.689-2.353,1.471-3.03,2.334
		c-0.677,0.857-0.881,1.555-0.609,2.083c0.28,0.537,0.966,0.785,2.067,0.742c1.097-0.05,2.315-0.422,3.663-1.115
		c1.342-0.695,2.3-1.449,2.874-2.262c0.572-0.82,0.721-1.497,0.448-2.037c-0.276-0.527-0.913-0.788-1.918-0.778
		C68.926,35.701,67.759,36.042,66.431,36.731z M100,14.364c-47.294,0-85.628,38.34-85.628,85.637
		c0,47.286,38.333,85.633,85.628,85.633c47.292,0,85.631-38.348,85.631-85.633C185.631,52.705,147.292,14.364,100,14.364z
		 M181.543,80.697l0.672,3.476l-6.973,1.354l-10.385,7.964l-0.802-4.102l7.354-5.005l-8.647-1.727l-0.774-3.941l12.64,3.321
		L181.543,80.697z M163.276,100.001c0,34.946-28.326,63.272-63.277,63.272c-34.947,0-63.267-28.326-63.267-63.272
		c0-34.95,28.32-63.27,63.267-63.27C134.95,36.731,163.276,65.052,163.276,100.001z M169.842,74.582
		c-1.124,0-2.026-0.895-2.026-2.03c0-1.111,0.902-2.018,2.026-2.018c1.117,0,2.018,0.907,2.018,2.018
		C171.859,73.687,170.959,74.582,169.842,74.582z M148.737,52.608l1.503,2.093l6.758-4.848l1.818,2.542l-6.754,4.848l1.229,1.713
		l6.754-4.848l1.826,2.538l-6.754,4.849l1.124,1.565c0.03,0,0.207-0.024,0.533-0.065c0.33-0.04,0.614-0.121,0.86-0.232
		c0.542-0.239,1.076-0.509,1.598-0.81c0.521-0.301,1.08-0.663,1.67-1.083l6.822-4.898l-7.444-10.367l1.609-1.155l9.417,13.117
		l-6.642,4.769c-0.765,0.545-1.472,1.055-2.126,1.526c-0.655,0.465-1.277,0.857-1.859,1.173c-0.635,0.323-1.174,0.553-1.638,0.692
		c-0.462,0.14-0.704,0.208-0.737,0.208l1.213,1.696l-1.606,1.154l-10.784-15.021L148.737,52.608z M145.568,30.548l-1.709,3.129
		l2.169,1.186l-0.943,1.738l-2.173-1.186l-2.371,4.346l-2.975-1.624l5.029-9.212L145.568,30.548z M126.489,26.904
		c0.354-0.648,0.854-1.098,1.489-1.343c0.637-0.246,1.271-0.382,1.904-0.416l-1.739-0.947l0.949-1.738l4.023,2.197l0.57-1.046
		l3.222,1.76l-0.57,1.042l4.091,2.235l-0.942,1.735l-1.856-1.009c0.384,0.673,0.645,1.322,0.781,1.95
		c0.131,0.621,0.022,1.253-0.331,1.905c-0.615,1.124-1.704,1.753-3.264,1.897c-1.557,0.14-3.134-0.227-4.736-1.103
		c-1.602-0.872-2.756-1.993-3.457-3.371C125.921,29.276,125.877,28.028,126.489,26.904z M125.003,32.293l15.109,8.251l-3.272,5.996
		l-2.973-1.626l2.322-4.256l-12.137-6.624L125.003,32.293z M89.43,17.413h8.311v1.98h-4.952v11.9h2.555
		c0.4,0,0.835-0.003,1.313-0.009c0.481-0.007,0.929-0.034,1.344-0.09c0.503-0.066,0.885-0.137,1.145-0.217
		c0.261-0.081,0.397-0.118,0.417-0.118v-13.84h3.385v5.938h1.822v-5.938h3.415v18.217h-3.415V24.937h-1.822v10.299h-3.385v-2.359
		c-0.02,0.012-0.212,0.057-0.587,0.13c-0.37,0.075-0.729,0.124-1.077,0.148c-0.417,0.026-0.853,0.051-1.304,0.068
		c-0.454,0.019-0.956,0.032-1.508,0.032H89.43V17.413z M63.227,25.014l0.646,1.251l2.316-1.195l-0.832-1.602l3.011-1.552
		l5.177,10.029l-2.591,1.337c0.921-0.102,1.75-0.041,2.485,0.186c0.732,0.23,1.272,0.68,1.614,1.344
		c0.378,0.733,0.407,1.502,0.08,2.316c-0.322,0.813-0.834,1.589-1.544,2.347c-0.579,0.608-1.235,1.182-1.969,1.707
		c-0.738,0.528-1.464,0.981-2.191,1.354c-0.676,0.354-1.428,0.671-2.24,0.968c-0.82,0.292-1.628,0.509-2.434,0.646
		c-1.142,0.214-2.197,0.242-3.154,0.077c-0.967-0.164-1.649-0.63-2.048-1.406c-0.387-0.751-0.384-1.552,0.007-2.396
		c0.394-0.856,0.982-1.664,1.776-2.446c0.603-0.608,1.275-1.167,2.017-1.688c0.739-0.512,1.461-0.953,2.172-1.319
		c0.728-0.376,1.52-0.711,2.384-1.008c0.863-0.298,1.707-0.503,2.545-0.621l-1.458-2.831l-2.316,1.192l0.724,1.402l-10.874,5.616
		l-4.178-8.089L63.227,25.014z M37.359,44.591l14.173,11.441l-1.962,2.434L35.394,47.024L37.359,44.591z M30.062,54.266l5.007,4.038
		c0.236,0.192,0.913,0.683,2.023,1.465c1.111,0.789,2.607,1.049,4.489,0.782c0.726-0.106,1.316-0.23,1.759-0.373
		c0.447-0.143,0.748-0.249,0.907-0.322l-5.466-4.414l-1.639,2.024l-1.539-1.243l1.632-2.023l-4.618-3.73l1.961-2.435l14.176,11.441
		l-1.965,2.434l-2.434-1.967l0.026,2.399c-0.019,0.003-0.181,0.068-0.485,0.193c-0.304,0.12-0.727,0.258-1.267,0.4
		c-0.987,0.273-1.881,0.418-2.684,0.428c-0.805,0.006-1.233,0.016-1.285,0.016c0.018,0.059,0.108,0.531,0.272,1.405
		c0.165,0.882,0.214,1.739,0.146,2.583c-0.031,0.419-0.074,0.823-0.122,1.208c-0.045,0.382-0.077,0.593-0.089,0.627l-2.471,0.481
		c0.013-0.036,0.044-0.305,0.101-0.801c0.055-0.502,0.061-1.185,0.014-2.048c-0.127-1.887-0.68-3.281-1.66-4.188
		c-0.987-0.904-1.605-1.462-1.863-1.667l-5.052-4.079L30.062,54.266z M28.754,70.534c1.118,0,2.018,0.907,2.018,2.018
		c0,1.136-0.899,2.03-2.018,2.03c-1.123,0-2.033-0.895-2.033-2.03C26.722,71.44,27.631,70.534,28.754,70.534z M16.62,83.621
		c1.219-6.06,5.306-6.321,7.604-5.85l-0.673,3.322c-1.035-0.173-3.077-0.117-3.691,2.912c-0.328,1.645-0.267,3.557,1.694,3.96
		c1.431,0.286,2.067-0.888,2.889-2.552l0.82-1.682c1.228-2.545,2.424-5.01,6.479-4.185c2.054,0.411,5.475,2.143,4.391,7.53
		c-1.033,5.085-5,5.698-7.27,5.265l0.685-3.322c0.829,0.075,2.84,0.186,3.452-2.83c0.27-1.335,0.04-3.01-1.625-3.34
		c-1.429-0.298-1.968,0.708-2.284,1.354l-1.921,3.836c-1.08,2.136-2.518,4.011-5.825,3.34C15.787,90.256,16.329,85.079,16.62,83.621
		z M15.384,95.806l18.803-0.404l0.268,12.448l-3.328,0.074l-0.191-8.996l-3.955,0.088l0.174,8.255l-3.322,0.074l-0.185-8.25
		l-4.864,0.105l0.196,9.38l-3.325,0.068L15.384,95.806z M19.877,127.23l15.141-4.229l-0.012-0.043l-15.986,1.178l-0.927-3.344
		l14.306-7.197l-0.011-0.033l-15.135,4.211l-0.901-3.184l18.13-5.041l1.381,4.967l-13.461,6.936l0.021,0.043l15.092-1.074
		l1.378,4.928l-18.117,5.061L19.877,127.23z M27.476,143.26l-1.757-3.072l6.17-3.527l7.272-10.883l2.064,3.627l-5.351,7.1
		l8.765-1.141l1.987,3.475l-13.031,0.926L27.476,143.26z M37.501,157.414c-1.064-1.143-2.322-3.123-1.985-5.494
		c0.223-1.459,1.101-2.746,2.452-4.072l9.141-8.486l2.456,2.643l-8.95,8.313c-1.926,1.789-1.847,3.57-0.716,4.787
		c1.645,1.789,3.28,1.619,4.96,0.057l9.085-8.424l2.449,2.643l-8.97,8.32C43.784,161.064,40.404,160.555,37.501,157.414z
		 M56.039,171.977l1.626-15.004l-0.036-0.023l-7.401,11.189l-2.75-1.803l10.361-15.707l3.111,2.043l-1.599,14.637l0.031,0.031
		l7.214-10.934l2.765,1.814L59,173.92L56.039,171.977z M83.301,169.523l-3.349-1.148c0.241-0.682-0.125-3.313-2.485-4.121
		c-2.387-0.826-5.227,0.236-6.806,4.799c-1.679,4.855,0.276,6.941,2.549,7.723c0.732,0.26,3.296,0.789,5.229-2.57l-3.715-1.285
		l1.025-2.992l6.692,2.311l-3.313,9.578l-2.23-0.77l0.438-2.348c-1.227,0.814-3.012,1.994-5.933,0.977
		c-3.845-1.336-6.292-5.613-4.127-11.854c1.667-4.854,5.686-8.59,11.071-6.715C83.258,162.813,83.956,167.029,83.301,169.523z
		 M99.804,184.484c-1.565,0.008-3.873-0.395-5.381-2.252c-0.937-1.148-1.292-2.676-1.348-4.563l-0.062-12.479l3.607-0.006
		l0.061,12.211c0.003,2.613,1.389,3.762,3.032,3.756c2.432-0.014,3.412-1.336,3.409-3.602l-0.059-12.402l3.606-0.006l0.05,12.229
		C106.745,182.332,104.075,184.455,99.804,184.484z M123.077,180.654l-9.967-11.328l-0.045,0.006l3.252,13.025l-3.197,0.807
		l-4.568-18.258l3.603-0.914l9.713,11.084h0.05l-3.186-12.723l3.194-0.811l4.588,18.262L123.077,180.654z M131.284,177.727
		l-7.52-17.252l3.249-1.416l7.512,17.252L131.284,177.727z M143.055,171.779l-14.92-12.828l3.203-2.035l10.718,10.088l0.046-0.023
		l-4.56-14.006l3.117-1.969l5.232,18.975L143.055,171.779z M154.595,163.598l-13.31-13.281l8.81-8.814l2.354,2.354l-6.352,6.352
		l2.801,2.807l5.825-5.842l2.354,2.35l-5.834,5.836l3.459,3.447l6.63-6.637l2.358,2.352L154.595,163.598z M172.697,141.223
		c-0.884-0.26-1.775-0.652-3.42-1.67c-2.199-1.352-3.114-1.764-4.495,0.461l-1.928,3.109l6.267,3.879l-1.824,2.943l-16.003-9.896
		l4.506-7.279c2.375-3.826,5.953-2.596,7.338-1.734c1.757,1.094,2.774,2.826,2.425,4.588c1.316-0.832,2.2-1.16,5.179,0.684
		c2.348,1.453,2.931,1.799,3.592,1.334l0.426,0.26L172.697,141.223z M179.573,126.721c-1.965,5.854-6.051,5.592-8.277,4.861
		l1.091-3.223c0.999,0.316,3.041,0.498,4.023-2.426c0.528-1.59,0.702-3.49-1.189-4.129c-1.394-0.465-2.162,0.609-3.182,2.16
		l-1.024,1.57c-1.545,2.365-3.032,4.656-6.959,3.334c-1.985-0.658-5.164-2.813-3.41-8.008c1.647-4.918,5.667-5.035,7.862-4.332
		l-1.081,3.232c-0.825-0.186-2.813-0.553-3.78,2.385c-0.44,1.266-0.429,2.961,1.183,3.5c1.399,0.475,2.046-0.459,2.445-1.061
		l2.378-3.551c1.326-1.998,3.004-3.676,6.202-2.602C181.222,120.232,180.041,125.305,179.573,126.721z M181.91,115.889
		l-18.556-3.186l0.596-3.482l18.56,3.18L181.91,115.889z M167.874,103.256l-0.118,5.113l-3.321-0.078l0.305-13.757l3.326,0.069
		l-0.108,5.107l15.474,0.359l-0.074,3.532L167.874,103.256z M131.008,32.324c0.686,0.372,1.438,0.546,2.257,0.509
		c0.819-0.031,1.441-0.44,1.863-1.216c0.413-0.751,0.415-1.478,0.009-2.183c-0.407-0.704-0.954-1.242-1.643-1.617
		c-0.701-0.378-1.44-0.547-2.221-0.491c-0.784,0.05-1.379,0.459-1.789,1.211c-0.421,0.776-0.446,1.508-0.057,2.204
		C129.807,31.43,130.335,31.958,131.008,32.324z"/>
</g>
</svg>
