<?xml version="1.0" encoding="iso-8859-1"?>
<!-- Generator: Adobe Illustrator 15.1.0, SVG Export Plug-In . SVG Version: 6.00 Build 0)  -->
<!DOCTYPE svg PUBLIC "-//W3C//DTD SVG 1.1//EN" "http://www.w3.org/Graphics/SVG/1.1/DTD/svg11.dtd">
<svg version="1.1" id="&#xB808;&#xC774;&#xC5B4;_1" xmlns="http://www.w3.org/2000/svg" xmlns:xlink="http://www.w3.org/1999/xlink"
	 x="0px" y="0px" width="100px" height="100px" viewBox="0 0 100 100" style="enable-background:new 0 0 100 100;"
	 xml:space="preserve">
<g>
	<path style="fill:#00A23E;" d="M47.565,49.804L43.379,3.642c-7.591,2.636-13.039,9.849-13.039,18.335
		c0,2.054,0.335,4.024,0.925,5.88c-3.177-2.27-7.066-3.614-11.271-3.614c-6.556,0-12.354,3.255-15.866,8.234L47.565,49.804z"/>
	<path style="fill:#00A23E;" d="M46.344,54.072L1.217,43.499c0.106,8.035,5.237,15.478,13.292,18.154
		c1.948,0.644,3.924,0.95,5.872,0.973c-3.158,2.299-5.655,5.569-6.983,9.558c-2.066,6.224-0.804,12.753,2.814,17.653L46.344,54.072z
		"/>
	<path style="fill:#00A23E;" d="M50.095,56.236l-23.811,39.77c7.685,2.34,16.336-0.277,21.336-7.139
		c1.209-1.657,2.101-3.445,2.718-5.296c1.229,3.707,3.581,7.084,6.979,9.56c5.296,3.863,11.899,4.65,17.669,2.694L50.095,56.236z"/>
	<path style="fill:#00A23E;" d="M52.165,49.804l42.642-18.17c-4.841-6.413-13.379-9.379-21.454-6.772
		c-1.954,0.631-3.729,1.556-5.313,2.687c1.186-3.722,1.267-7.834-0.023-11.836C66.001,9.475,61.123,4.957,55.304,3.143
		L52.165,49.804z"/>
	<path style="fill:#00A23E;" d="M53.447,53.747l30.494,34.907c4.596-6.59,4.77-15.632-0.213-22.499
		c-1.204-1.658-2.634-3.06-4.201-4.217c3.905-0.026,7.84-1.224,11.245-3.691c5.307-3.852,8.09-9.887,8.008-15.981L53.447,53.747z"/>
</g>
</svg>
