<?xml version="1.0" encoding="iso-8859-1"?>
<!-- Generator: Adobe Illustrator 15.1.0, SVG Export Plug-In . SVG Version: 6.00 Build 0)  -->
<!DOCTYPE svg PUBLIC "-//W3C//DTD SVG 1.1//EN" "http://www.w3.org/Graphics/SVG/1.1/DTD/svg11.dtd">
<svg version="1.1" id="&#xB808;&#xC774;&#xC5B4;_1" xmlns="http://www.w3.org/2000/svg" xmlns:xlink="http://www.w3.org/1999/xlink"
	 x="0px" y="0px" width="100px" height="100px" viewBox="0 0 100 100" style="enable-background:new 0 0 100 100;"
	 xml:space="preserve">
<g>
	<path style="fill:#F8B61E;" d="M10.829,28.227c-0.929,0.227-1.941,0.341-3.036,0.341c-1.135,0-2.179-0.181-3.135-0.541
		c-0.955-0.361-1.776-0.868-2.464-1.523c-0.688-0.654-1.227-1.439-1.614-2.355C0.193,23.234,0,22.215,0,21.094
		c0-1.135,0.198-2.165,0.591-3.085c0.394-0.922,0.938-1.707,1.633-2.354c0.695-0.648,1.509-1.146,2.445-1.493
		c0.935-0.347,1.944-0.521,3.025-0.521c1.122,0,2.163,0.17,3.125,0.511c0.962,0.341,1.743,0.799,2.344,1.373l-2.164,2.465
		c-0.333-0.389-0.774-0.705-1.322-0.952c-0.548-0.247-1.169-0.371-1.863-0.371c-0.602,0-1.155,0.11-1.663,0.331
		c-0.508,0.221-0.949,0.528-1.323,0.922c-0.375,0.394-0.664,0.861-0.872,1.402c-0.207,0.541-0.31,1.133-0.31,1.774
		c0,0.654,0.093,1.256,0.28,1.803c0.187,0.548,0.463,1.019,0.832,1.413c0.367,0.394,0.821,0.7,1.363,0.92
		c0.541,0.221,1.158,0.331,1.853,0.331c0.401,0,0.781-0.03,1.143-0.09c0.36-0.06,0.694-0.156,1-0.29v-2.585H7.413v-2.765h5.85v7.513
		C12.568,27.705,11.758,27.999,10.829,28.227"/>
	<polygon style="fill:#F8B61E;" points="16.068,28.207 16.068,14.021 25.605,14.021 25.605,16.906 19.374,16.906 19.374,19.59 
		25.265,19.59 25.265,22.335 19.374,22.335 19.374,25.281 25.965,25.281 25.965,28.207 	"/>
	<polygon style="fill:#F8B61E;" points="37.246,28.207 31.535,18.929 31.476,18.929 31.555,28.207 28.229,28.207 28.229,14.021 
		32.137,14.021 37.827,23.277 37.886,23.277 37.806,14.021 41.132,14.021 41.132,28.207 	"/>
	<path style="fill:#F8B61E;" d="M57.301,21.074c0,1.242-0.23,2.314-0.692,3.215c-0.461,0.901-1.067,1.643-1.823,2.225
		c-0.754,0.581-1.605,1.008-2.554,1.282c-0.948,0.273-1.91,0.411-2.885,0.411h-5.29V14.021h5.13c1.001,0,1.99,0.118,2.965,0.351
		c0.975,0.234,1.844,0.622,2.604,1.162c0.763,0.542,1.377,1.267,1.844,2.175C57.066,18.616,57.301,19.738,57.301,21.074
		 M53.733,21.074c0-0.802-0.13-1.466-0.39-1.994c-0.262-0.527-0.607-0.948-1.041-1.261c-0.436-0.314-0.93-0.537-1.484-0.671
		c-0.555-0.134-1.125-0.201-1.712-0.201h-1.703v8.295h1.622c0.614,0,1.206-0.07,1.772-0.21c0.568-0.14,1.069-0.371,1.504-0.69
		c0.434-0.323,0.779-0.75,1.041-1.282C53.604,22.522,53.733,21.861,53.733,21.074"/>
	<polygon style="fill:#F8B61E;" points="59.564,28.207 59.564,14.021 69.102,14.021 69.102,16.906 62.871,16.906 62.871,19.59 
		68.761,19.59 68.761,22.335 62.871,22.335 62.871,25.281 69.462,25.281 69.462,28.207 	"/>
	<path style="fill:#F8B61E;" d="M79.319,28.207l-3.08-5.63h-1.168v5.63h-3.345V14.02h5.409c0.681,0,1.345,0.071,1.994,0.211
		c0.646,0.14,1.229,0.378,1.743,0.711c0.514,0.334,0.924,0.775,1.231,1.322c0.309,0.548,0.461,1.229,0.461,2.045
		c0,0.96-0.26,1.77-0.781,2.424c-0.521,0.654-1.242,1.122-2.164,1.402l3.706,6.071H79.319z M79.18,18.369
		c0-0.333-0.071-0.604-0.212-0.812c-0.142-0.208-0.321-0.368-0.545-0.481c-0.22-0.114-0.469-0.191-0.744-0.23
		c-0.275-0.04-0.54-0.061-0.796-0.061h-1.83v3.306h1.63c0.282,0,0.57-0.022,0.866-0.07c0.296-0.046,0.563-0.13,0.805-0.25
		s0.438-0.293,0.595-0.521C79.102,19.023,79.18,18.73,79.18,18.369"/>
	<rect x="0.661" y="55.865" style="fill:#F8B61E;" width="82.654" height="14.186"/>
	<polygon style="fill:#4C4948;" points="0.661,45.227 0.661,31.043 10.199,31.043 10.199,33.927 3.967,33.927 3.967,36.613 
		9.857,36.613 9.857,39.357 3.967,39.357 3.967,42.304 10.559,42.304 10.559,45.227 	"/>
	<path style="fill:#4C4948;" d="M19.654,45.227c-1.122,0-2.15-0.159-3.084-0.48c-0.935-0.321-1.733-0.791-2.395-1.412
		c-0.662-0.621-1.175-1.382-1.543-2.284c-0.366-0.902-0.551-1.933-0.551-3.096c0-1.082,0.195-2.069,0.582-2.965
		c0.387-0.895,0.925-1.663,1.612-2.304c0.688-0.642,1.504-1.139,2.445-1.493c0.942-0.353,1.96-0.531,3.056-0.531
		s2.11,0.178,3.045,0.531c0.935,0.354,1.744,0.848,2.425,1.483c0.681,0.635,1.211,1.396,1.593,2.283
		c0.381,0.889,0.571,1.868,0.571,2.936c0,0.548-0.059,1.059-0.18,1.532c-0.12,0.475-0.28,0.905-0.48,1.293s-0.428,0.731-0.681,1.032
		s-0.508,0.551-0.762,0.751v0.06l2.985-0.06v2.724H19.654z M23.782,37.995c0-0.614-0.097-1.182-0.291-1.703
		c-0.194-0.521-0.467-0.969-0.822-1.343c-0.354-0.374-0.778-0.664-1.272-0.872c-0.494-0.207-1.035-0.31-1.623-0.31
		c-0.575,0-1.105,0.103-1.593,0.31c-0.488,0.208-0.912,0.498-1.272,0.872c-0.36,0.374-0.641,0.822-0.841,1.343
		c-0.2,0.521-0.3,1.088-0.3,1.703c0,0.642,0.097,1.226,0.291,1.753c0.193,0.528,0.467,0.982,0.821,1.362
		c0.354,0.381,0.774,0.675,1.262,0.882c0.489,0.208,1.025,0.311,1.613,0.311c0.574,0,1.109-0.103,1.603-0.311
		c0.494-0.207,0.922-0.501,1.283-0.882c0.36-0.38,0.641-0.834,0.842-1.362C23.682,39.221,23.782,38.637,23.782,37.995"/>
	<path style="fill:#4C4948;" d="M41.583,42.212c-0.288,0.702-0.699,1.303-1.233,1.804c-0.534,0.5-1.179,0.891-1.934,1.171
		c-0.755,0.281-1.593,0.421-2.514,0.421c-0.936,0-1.776-0.141-2.524-0.421c-0.749-0.28-1.382-0.67-1.903-1.171
		c-0.522-0.501-0.921-1.102-1.203-1.804c-0.28-0.7-0.42-1.478-0.42-2.333v-8.835h3.406v8.555c0,0.387,0.049,0.755,0.149,1.102
		c0.101,0.348,0.254,0.659,0.462,0.932c0.207,0.273,0.48,0.491,0.821,0.651c0.34,0.16,0.751,0.24,1.232,0.24
		c0.481,0,0.89-0.08,1.232-0.24c0.341-0.16,0.618-0.377,0.832-0.651c0.214-0.273,0.367-0.584,0.46-0.932
		c0.093-0.347,0.141-0.715,0.141-1.102v-8.555h3.426v8.835C42.014,40.734,41.87,41.512,41.583,42.212"/>
	<path style="fill:#4C4948;" d="M54.035,45.227l-1.103-2.784h-5.489l-1.042,2.784h-3.726l5.95-14.184h3.327l5.891,14.184H54.035z
		 M50.229,34.829l-1.803,4.868h3.566L50.229,34.829z"/>
	<polygon style="fill:#4C4948;" points="59.023,45.227 59.023,31.043 62.47,31.043 62.47,42.243 67.959,42.243 67.959,45.227 	"/>
	<rect x="69.563" y="31.043" style="fill:#4C4948;" width="3.446" height="14.185"/>
	<polygon style="fill:#4C4948;" points="95.668,31.043 92.643,36.292 89.618,31.043 85.471,31.043 74.57,31.043 74.57,33.969 
		78.578,33.969 78.578,45.227 82.004,45.227 82.004,33.969 86.011,33.969 86.011,31.871 90.8,39.218 90.8,45.227 94.226,45.227 
		94.226,39.218 99.675,31.043 	"/>
	<rect x="0.661" y="72.178" style="fill:#4C4948;" width="99.003" height="14.184"/>
</g>
</svg>
