<?xml version="1.0" encoding="iso-8859-1"?>
<!-- Generator: Adobe Illustrator 15.1.0, SVG Export Plug-In . SVG Version: 6.00 Build 0)  -->
<!DOCTYPE svg PUBLIC "-//W3C//DTD SVG 1.1//EN" "http://www.w3.org/Graphics/SVG/1.1/DTD/svg11.dtd">
<svg version="1.1" id="&#xB808;&#xC774;&#xC5B4;_1" xmlns="http://www.w3.org/2000/svg" xmlns:xlink="http://www.w3.org/1999/xlink"
	 x="0px" y="0px" width="50px" height="50px" viewBox="0 0 50 50" style="enable-background:new 0 0 50 50;" xml:space="preserve">
<g>
	<path d="M13.332,20.157v6.34c0,0.949-0.01,1.56-0.029,1.831s-0.109,0.517-0.268,0.735c-0.159,0.219-0.374,0.37-0.646,0.454
		s-0.68,0.126-1.227,0.126H9.927v-1.658c0.148,0.012,0.256,0.018,0.322,0.018c0.176,0,0.314-0.043,0.416-0.129
		s0.16-0.191,0.176-0.316s0.023-0.367,0.023-0.727v-6.674H13.332z"/>
	<path d="M20.134,20.157v6.34c0,0.719-0.023,1.224-0.07,1.515s-0.186,0.59-0.416,0.896s-0.534,0.539-0.911,0.697
		s-0.821,0.237-1.333,0.237c-0.566,0-1.066-0.094-1.5-0.281s-0.758-0.432-0.973-0.732s-0.342-0.618-0.381-0.952
		s-0.059-1.036-0.059-2.106v-5.613h2.467v7.113c0,0.414,0.022,0.679,0.067,0.794s0.136,0.173,0.272,0.173
		c0.156,0,0.257-0.063,0.302-0.19s0.067-0.427,0.067-0.899v-6.99H20.134z"/>
	<path d="M27.002,20.157v9.486h-2.467v-3.984h-0.738v3.984H21.33v-9.486h2.467v3.393h0.738v-3.393H27.002z"/>
	<path d="M32.496,20.157l1.41,9.486h-2.521l-0.133-1.705h-0.883l-0.146,1.705h-2.551l1.258-9.486H32.496z M31.188,26.257
		c-0.125-1.074-0.25-2.402-0.375-3.984c-0.252,1.816-0.41,3.145-0.475,3.984H31.188z"/>
	<path d="M40.072,20.157v9.486H37.91l-1.283-4.313v4.313h-2.063v-9.486h2.063l1.383,4.271v-4.271H40.072z"/>
</g>
</svg>
