<?xml version="1.0" encoding="iso-8859-1"?>
<!-- Generator: Adobe Illustrator 15.1.0, SVG Export Plug-In . SVG Version: 6.00 Build 0)  -->
<!DOCTYPE svg PUBLIC "-//W3C//DTD SVG 1.1//EN" "http://www.w3.org/Graphics/SVG/1.1/DTD/svg11.dtd">
<svg version="1.1" id="&#xB808;&#xC774;&#xC5B4;_1" xmlns="http://www.w3.org/2000/svg" xmlns:xlink="http://www.w3.org/1999/xlink"
	 x="0px" y="0px" width="100px" height="100px" viewBox="0 0 100 100" style="enable-background:new 0 0 100 100;"
	 xml:space="preserve">
<g>
	<g>
		<g>
			<path style="fill:#004A9E;" d="M35.063,43.868h3.271v5.001h0.035l3.686-5.001h3.935l-4.532,5.707l4.884,6.555h-4.165
				l-3.808-5.571h-0.035v5.571h-3.271V43.868z"/>
			<path style="fill:#004A9E;" d="M48.698,43.868h3.267V56.13h-3.267V43.868z"/>
			<path style="fill:#004A9E;" d="M57.31,46.291h-3.024v-2.422h9.306v2.422h-3.019v9.839H57.31V46.291z"/>
			<path style="fill:#004A9E;" d="M65.67,43.868h8.64v2.32h-5.372v2.525h5.072v2.32h-5.072v2.775h5.566v2.321H65.67V43.868z"/>
			<path style="fill:#004A9E;" d="M87.106,55.847c-0.93,0.229-1.97,0.494-3.636,0.494c-3.267,0-7.043-1.653-7.043-6.29
				c0-4.267,2.987-6.391,7.022-6.391c1.25,0,2.461,0.28,3.635,0.632l-0.264,2.651c-1.052-0.582-2.067-0.862-3.195-0.862
				c-2.315,0-3.821,1.685-3.821,3.97c0,2.406,1.695,3.865,4.087,3.865c1.07,0,2.163-0.28,3.054-0.634L87.106,55.847z"/>
			<path style="fill:#004A9E;" d="M89.391,43.868h3.268v4.688h3.861v-4.688h3.27V56.13h-3.27v-5.255h-3.861v5.255h-3.268V43.868z"/>
		</g>
	</g>
	<g>
		<g>
			<path style="fill:none;" d="M14.34,46.384c-0.839,0.234-1.625,0.678-2.282,1.336c-0.657,0.657-1.101,1.442-1.333,2.279
				c0.232,0.837,0.676,1.626,1.333,2.284c0.656,0.656,1.443,1.102,2.282,1.334c0.835-0.232,1.625-0.678,2.284-1.334
				c0.656-0.656,1.1-1.445,1.334-2.281c-0.236-0.838-0.677-1.625-1.334-2.282C15.965,47.058,15.177,46.617,14.34,46.384z"/>
			<path style="fill:#91848B;" d="M18.03,44.77c-0.764,0.77-1.705,1.25-2.69,1.437c-0.198,0.035-0.396,0.061-0.589,0.08
				c-0.138,0.027-0.275,0.061-0.41,0.098c0.837,0.232,1.625,0.673,2.284,1.336c0.658,0.657,1.099,1.443,1.334,2.282
				c0.037-0.137,0.072-0.273,0.098-0.413c0.017-0.194,0.039-0.392,0.077-0.588c0.191-0.984,0.67-1.927,1.433-2.69
				c1.126-1.126,2.642-1.627,4.115-1.507c-0.006,0-0.012-0.001-0.018-0.001c-0.986-0.191-1.924-0.67-2.689-1.433
				c-0.759-0.761-1.236-1.7-1.434-2.678C19.649,42.154,19.148,43.654,18.03,44.77z"/>
			<path style="fill:#7FBE26;" d="M4.974,55.195c-0.046-0.006-0.092-0.012-0.138-0.016C4.882,55.184,4.928,55.189,4.974,55.195z"/>
			<path style="fill:#7FBE26;" d="M19.539,40.691c-0.006-0.078-0.014-0.156-0.025-0.236c0.009,0.073,0.017,0.147,0.021,0.224
				C19.537,40.683,19.537,40.688,19.539,40.691z"/>
			<path style="fill:#7FBE26;" d="M19.539,40.691c-0.002-0.003-0.002-0.008-0.003-0.012c-0.004-0.077-0.012-0.15-0.021-0.224
				c-0.011-0.093-0.024-0.188-0.04-0.283c-0.006-0.027-0.009-0.055-0.014-0.083c-0.008-0.034-0.017-0.067-0.024-0.101
				c-0.021-0.105-0.048-0.211-0.077-0.317c-0.019-0.06-0.037-0.121-0.057-0.181c-0.028-0.085-0.057-0.171-0.089-0.255
				c-0.021-0.058-0.044-0.116-0.069-0.173c-0.046-0.11-0.096-0.217-0.15-0.325c-0.021-0.044-0.046-0.089-0.069-0.131
				c-0.062-0.113-0.127-0.225-0.198-0.334c-0.029-0.046-0.061-0.09-0.092-0.134c-0.061-0.089-0.124-0.176-0.191-0.262
				c-0.032-0.042-0.064-0.082-0.097-0.121c-0.101-0.123-0.207-0.24-0.32-0.354c-2.034-2.042-5.343-2.042-7.38,0
				c-0.112,0.11-0.213,0.227-0.312,0.344c-0.04,0.047-0.078,0.098-0.117,0.147c-0.058,0.075-0.115,0.151-0.168,0.229
				c-0.037,0.052-0.072,0.104-0.107,0.156c-0.07,0.112-0.139,0.225-0.202,0.341c-0.016,0.029-0.031,0.058-0.044,0.087
				c-0.063,0.122-0.121,0.246-0.173,0.37c-0.017,0.043-0.034,0.086-0.049,0.127c-0.041,0.106-0.078,0.213-0.112,0.32
				c-0.014,0.043-0.027,0.086-0.04,0.129c-0.034,0.116-0.062,0.232-0.086,0.35c-0.006,0.029-0.014,0.057-0.02,0.086
				c-0.005,0.02-0.006,0.038-0.011,0.058c-0.021,0.125-0.04,0.252-0.054,0.379c-0.004,0.039-0.008,0.077-0.012,0.117
				c0,0.011-0.001,0.023-0.003,0.035c-0.193,0.982-0.67,1.925-1.434,2.69c-0.761,0.762-1.702,1.241-2.689,1.433
				c-0.006,0-0.011,0.001-0.016,0.001c1.472-0.12,2.986,0.381,4.109,1.507c0.767,0.764,1.244,1.707,1.434,2.697
				c0.038,0.19,0.066,0.387,0.081,0.582c0.027,0.138,0.06,0.274,0.098,0.41c0.232-0.837,0.676-1.622,1.333-2.279
				c0.656-0.658,1.443-1.102,2.282-1.336c0.135-0.037,0.272-0.071,0.41-0.098c0.193-0.019,0.392-0.044,0.589-0.08
				c0.985-0.187,1.927-0.667,2.69-1.437C19.148,43.654,19.649,42.154,19.539,40.691z"/>
			<path style="fill:#91848B;" d="M9.932,61.697c-0.037-0.057-0.069-0.114-0.104-0.173C9.863,61.583,9.896,61.641,9.932,61.697z"/>
			<path style="fill:#91848B;" d="M10.65,62.601c-0.107-0.107-0.205-0.221-0.301-0.334C10.443,62.38,10.544,62.493,10.65,62.601z"/>
			<path style="fill:#91848B;" d="M9.32,60.329c-0.024-0.09-0.046-0.181-0.065-0.272C9.274,60.148,9.295,60.239,9.32,60.329z"/>
			<path style="fill:#91848B;" d="M9.207,59.826c-0.02-0.112-0.037-0.226-0.049-0.337C9.168,59.601,9.185,59.714,9.207,59.826z"/>
			<path style="fill:#91848B;" d="M9.464,60.758c-0.032-0.081-0.06-0.165-0.087-0.248C9.404,60.593,9.432,60.675,9.464,60.758z"/>
			<path style="fill:#91848B;" d="M9.646,61.181c-0.038-0.078-0.075-0.155-0.109-0.233C9.571,61.025,9.608,61.103,9.646,61.181z"/>
			<path style="fill:#91848B;" d="M10.2,62.078c-0.043-0.055-0.084-0.109-0.123-0.166C10.116,61.969,10.159,62.023,10.2,62.078z"/>
			<path style="fill:#91848B;" d="M4.836,44.82c0.055-0.006,0.11-0.012,0.167-0.017C4.946,44.808,4.891,44.814,4.836,44.82z"/>
			<path style="fill:#91848B;" d="M12.058,52.283c-0.657-0.658-1.101-1.447-1.333-2.284c-0.039-0.136-0.071-0.272-0.098-0.41
				c-0.015-0.194-0.043-0.392-0.081-0.582c-0.19-0.99-0.667-1.933-1.434-2.697c-1.124-1.126-2.637-1.627-4.109-1.507
				c-0.057,0.004-0.112,0.011-0.167,0.017c-0.135,0.014-0.27,0.032-0.404,0.058c-0.151,0.029-0.3,0.067-0.448,0.11
				c-0.037,0.009-0.074,0.021-0.11,0.034c-0.113,0.035-0.228,0.075-0.338,0.12c-0.038,0.014-0.075,0.027-0.111,0.042
				c-0.285,0.118-0.561,0.263-0.825,0.433c-0.037,0.024-0.072,0.049-0.108,0.074c-0.097,0.067-0.191,0.138-0.287,0.211
				c-0.035,0.029-0.072,0.057-0.107,0.086c-0.123,0.103-0.243,0.208-0.358,0.323c-2.036,2.036-2.036,5.342,0,7.379
				c0.113,0.111,0.229,0.216,0.35,0.315c0.043,0.036,0.087,0.071,0.133,0.105c0.08,0.063,0.162,0.124,0.247,0.183
				c0.047,0.033,0.096,0.066,0.145,0.1c0.107,0.066,0.216,0.131,0.326,0.19c0.042,0.022,0.081,0.044,0.124,0.065
				c0.113,0.059,0.228,0.112,0.344,0.159c0.049,0.021,0.1,0.04,0.15,0.06c0.098,0.037,0.198,0.072,0.297,0.104
				c0.048,0.014,0.092,0.029,0.14,0.043c0.144,0.041,0.289,0.078,0.438,0.107c0.136,0.023,0.27,0.041,0.404,0.059
				c0.046,0.004,0.092,0.01,0.138,0.016c0.014,0.001,0.029,0.002,0.044,0.004c0.987,0.189,1.928,0.667,2.689,1.43
				c0.764,0.77,1.243,1.708,1.434,2.695c0.001,0.007,0.001,0.017,0.003,0.025c-0.124-1.476,0.378-2.995,1.506-4.125
				c0.767-0.764,1.705-1.241,2.689-1.43c0.196-0.041,0.395-0.067,0.591-0.081c0.138-0.026,0.274-0.06,0.41-0.097
				C13.501,53.385,12.714,52.939,12.058,52.283z"/>
			<path style="fill:#004A9E;" d="M10.349,62.267c-0.052-0.061-0.101-0.124-0.148-0.188C10.249,62.143,10.296,62.206,10.349,62.267z
				"/>
			<path style="fill:#004A9E;" d="M10.078,61.912c-0.051-0.07-0.1-0.142-0.146-0.215C9.978,61.771,10.027,61.842,10.078,61.912z"/>
			<path style="fill:#004A9E;" d="M23.68,44.803c0.052,0.004,0.104,0.011,0.156,0.017C23.784,44.814,23.732,44.808,23.68,44.803z"/>
			<path style="fill:#004A9E;" d="M9.537,60.947c-0.026-0.063-0.05-0.125-0.073-0.189C9.487,60.822,9.511,60.885,9.537,60.947z"/>
			<path style="fill:#004A9E;" d="M9.376,60.51c-0.02-0.06-0.038-0.121-0.057-0.181C9.338,60.389,9.357,60.45,9.376,60.51z"/>
			<path style="fill:#004A9E;" d="M9.158,59.489c-0.004-0.048-0.011-0.094-0.014-0.14C9.148,59.396,9.153,59.441,9.158,59.489z"/>
			<path style="fill:#004A9E;" d="M9.828,61.524c-0.064-0.113-0.125-0.228-0.182-0.344C9.703,61.297,9.764,61.411,9.828,61.524z"/>
			<path style="fill:#004A9E;" d="M9.207,59.826c0.014,0.078,0.031,0.154,0.048,0.23c-0.011-0.049-0.025-0.098-0.034-0.146
				C9.216,59.883,9.211,59.854,9.207,59.826z"/>
			<path style="fill:#004A9E;" d="M26.942,46.311c-0.117-0.116-0.239-0.225-0.364-0.329c-0.028-0.023-0.057-0.046-0.086-0.069
				c-0.107-0.084-0.214-0.164-0.326-0.239c-0.023-0.015-0.044-0.03-0.067-0.046c-0.277-0.181-0.566-0.332-0.865-0.455
				c-0.016-0.006-0.032-0.012-0.049-0.02c-0.136-0.054-0.275-0.103-0.415-0.144c-0.017-0.006-0.035-0.012-0.052-0.017
				c-0.153-0.044-0.308-0.084-0.467-0.115c-0.134-0.027-0.275-0.044-0.415-0.058c-0.052-0.006-0.104-0.012-0.156-0.017
				c-1.474-0.12-2.989,0.381-4.115,1.507c-0.762,0.764-1.241,1.707-1.433,2.69c-0.038,0.196-0.06,0.394-0.077,0.588
				c-0.026,0.14-0.061,0.276-0.098,0.413c-0.234,0.836-0.678,1.625-1.334,2.281c-0.658,0.656-1.448,1.102-2.284,1.334
				c-0.136,0.037-0.272,0.07-0.41,0.097c-0.196,0.014-0.395,0.04-0.591,0.081c-0.984,0.188-1.922,0.666-2.689,1.43
				c-1.128,1.13-1.63,2.649-1.506,4.125c0.003,0.046,0.009,0.092,0.014,0.14c0.012,0.111,0.029,0.225,0.049,0.337
				c0.005,0.028,0.009,0.057,0.014,0.084c0.009,0.049,0.023,0.098,0.034,0.146c0.02,0.092,0.041,0.183,0.065,0.272
				c0.019,0.06,0.037,0.121,0.057,0.181c0.028,0.083,0.055,0.167,0.087,0.248c0.023,0.064,0.047,0.127,0.073,0.189
				c0.034,0.078,0.071,0.155,0.109,0.233c0.057,0.116,0.118,0.23,0.182,0.344c0.035,0.059,0.067,0.116,0.104,0.173
				c0.046,0.073,0.095,0.145,0.146,0.215c0.038,0.057,0.08,0.111,0.123,0.166c0.047,0.064,0.096,0.128,0.148,0.188
				c0.096,0.113,0.194,0.227,0.301,0.334c2.037,2.038,5.346,2.038,7.38,0c0.11-0.11,0.211-0.225,0.309-0.343
				c0.044-0.052,0.086-0.107,0.127-0.161c0.052-0.065,0.101-0.133,0.148-0.2c0.044-0.063,0.089-0.127,0.13-0.192
				c0.04-0.062,0.075-0.126,0.112-0.188c0.07-0.124,0.136-0.25,0.197-0.377c0.027-0.06,0.057-0.117,0.083-0.178
				c0.032-0.076,0.062-0.154,0.09-0.23c0.023-0.064,0.046-0.127,0.066-0.19c0.024-0.076,0.049-0.151,0.07-0.226
				c0.023-0.083,0.043-0.166,0.061-0.248c0.013-0.053,0.026-0.104,0.037-0.156c0.006-0.032,0.009-0.064,0.015-0.095
				c0.019-0.102,0.031-0.202,0.043-0.302c0.006-0.054,0.012-0.107,0.018-0.161c0-0.009,0.002-0.02,0.003-0.028
				c0.189-0.986,0.67-1.931,1.432-2.695c0.766-0.763,1.707-1.24,2.689-1.43c0.015-0.002,0.03-0.003,0.046-0.004
				c0.041-0.006,0.084-0.01,0.127-0.015c0.141-0.017,0.28-0.036,0.416-0.06c0.152-0.029,0.3-0.068,0.449-0.111
				c0.035-0.01,0.069-0.021,0.103-0.031c0.115-0.037,0.227-0.074,0.338-0.119c0.042-0.016,0.082-0.031,0.121-0.046
				c0.135-0.056,0.266-0.116,0.396-0.183c0.012-0.008,0.024-0.014,0.037-0.02c0.128-0.069,0.254-0.145,0.379-0.225
				c0.043-0.028,0.086-0.058,0.129-0.087c0.09-0.063,0.179-0.127,0.265-0.196c0.042-0.029,0.081-0.063,0.123-0.094
				c0.119-0.102,0.239-0.207,0.352-0.32C28.977,51.652,28.977,48.349,26.942,46.311z"/>
		</g>
		<path style="fill:#FFFFFF;" d="M24.7,48.556c0.8,0.794,0.8,2.093,0,2.894c-0.799,0.803-2.099,0.803-2.896,0
			c-0.797-0.801-0.8-2.092,0-2.894C22.601,47.757,23.901,47.757,24.7,48.556z"/>
	</g>
</g>
</svg>
