<?xml version="1.0" encoding="iso-8859-1"?>
<!-- Generator: Adobe Illustrator 15.1.0, SVG Export Plug-In . SVG Version: 6.00 Build 0)  -->
<!DOCTYPE svg PUBLIC "-//W3C//DTD SVG 1.1//EN" "http://www.w3.org/Graphics/SVG/1.1/DTD/svg11.dtd">
<svg version="1.1" id="&#xB808;&#xC774;&#xC5B4;_1" xmlns="http://www.w3.org/2000/svg" xmlns:xlink="http://www.w3.org/1999/xlink"
	 x="0px" y="0px" width="100px" height="100px" viewBox="0 0 100 100" style="enable-background:new 0 0 100 100;"
	 xml:space="preserve">
<g>
	<g>
		<circle style="fill:#E83434;" cx="87.644" cy="36.004" r="1.855"/>
		<circle style="fill:#E83434;" cx="80.685" cy="38.887" r="1.856"/>
		<circle style="fill:#E83434;" cx="77.803" cy="45.845" r="1.855"/>
		<circle style="fill:#E83434;" cx="87.644" cy="55.685" r="1.855"/>
		<circle style="fill:#E83434;" cx="94.601" cy="52.803" r="1.856"/>
		<circle style="fill:#E83434;" cx="97.484" cy="45.844" r="1.856"/>
		<circle style="fill:#E83434;" cx="94.601" cy="38.887" r="1.856"/>
	</g>
	<path style="fill:#E83434;" d="M0.661,44.841h3.327V56.71l4.617-5.454h3.987L7.315,57.43l5.755,8.094H9.083l-5.035-7.194H3.988
		v7.194H0.661V44.841z"/>
	<path style="fill:#E83434;" d="M17.165,58.39c0-2.669,0.36-5.126,2.757-5.126c2.399,0,2.758,2.457,2.758,5.126
		c0,2.667-0.359,5.125-2.758,5.125C17.525,63.515,17.165,61.057,17.165,58.39z M19.922,65.853c4.107,0,6.295-2.787,6.295-7.463
		c0-4.677-2.188-7.465-6.295-7.465c-4.106,0-6.294,2.788-6.294,7.465C13.627,63.065,15.816,65.853,19.922,65.853z"/>
	<path style="fill:#E83434;" d="M31.87,58.39c0-2.397,0.629-5.336,2.637-5.336c2.219,0,2.489,2.757,2.489,5.336
		c0,2.337-0.361,5.125-2.489,5.125C32.41,63.515,31.87,61.956,31.87,58.39z M31.87,44.841h-3.328v14.628
		c0,4.256,2.219,6.384,5.965,6.384c4.646,0,6.026-3.478,6.026-7.463c0-4.557-1.5-7.465-4.917-7.465c-2.188,0-3.237,1.319-3.687,2.04
		h-0.06V44.841z"/>
	<path style="fill:#E83434;" d="M45.793,61.807c0-1.919,2.577-2.578,4.734-2.578c0,1.948-0.809,4.286-2.966,4.286
		C46.421,63.515,45.793,62.915,45.793,61.807z M50.527,65.523h3.177V55.361c0-2.907-1.647-4.437-5.185-4.437
		c-3.627,0-5.425,1.8-5.425,4.526h3.237c0-0.959,0.36-2.188,2.188-2.188c1.648,0,2.008,1.199,2.008,2.607v1.408
		c-1.978,0.061-7.973,0.091-7.973,4.826c0,2.309,1.799,3.747,4.196,3.747c2.278,0,3.267-1.05,3.717-1.979h0.06V65.523z"/>
	<path style="fill:#E83434;" d="M67.803,65.193c-1.26,0.39-2.669,0.659-4.167,0.659c-4.286,0-7.644-2.308-7.644-8.093
		c0-3.717,1.888-6.835,6.534-6.835c4.286,0,5.425,2.579,5.425,5.216h-3.536c0-1.379-0.359-2.877-2.158-2.877
		c-1.829,0-2.729,1.738-2.729,3.896c0,2.908,1.56,6.354,5.876,6.354c0.959,0,1.708-0.12,2.398-0.36V65.193z"/>
	<path style="fill:#E83434;" d="M73.265,58.39c0-2.669,0.36-5.126,2.758-5.126s2.756,2.457,2.756,5.126
		c0,2.667-0.358,5.125-2.756,5.125S73.265,61.057,73.265,58.39z M76.022,65.853c4.105,0,6.294-2.787,6.294-7.463
		c0-4.677-2.188-7.465-6.294-7.465c-4.106,0-6.295,2.788-6.295,7.465C69.728,63.065,71.916,65.853,76.022,65.853z"/>
</g>
</svg>
