<?xml version="1.0" encoding="iso-8859-1"?>
<!-- Generator: Adobe Illustrator 15.1.0, SVG Export Plug-In . SVG Version: 6.00 Build 0)  -->
<!DOCTYPE svg PUBLIC "-//W3C//DTD SVG 1.1//EN" "http://www.w3.org/Graphics/SVG/1.1/DTD/svg11.dtd">
<svg version="1.1" id="&#xB808;&#xC774;&#xC5B4;_1" xmlns="http://www.w3.org/2000/svg" xmlns:xlink="http://www.w3.org/1999/xlink"
	 x="0px" y="0px" width="100px" height="100px" viewBox="0 0 100 100" style="enable-background:new 0 0 100 100;"
	 xml:space="preserve">
<g style="opacity:0.5;">
	<path style="fill:#FFFFFF;" d="M57.789,8.677c0.005,4.303-3.484,7.795-7.788,7.793c-4.303,0.002-7.788-3.49-7.795-7.793
		c0-4.301,3.492-7.793,7.795-7.793C54.305,0.884,57.789,4.376,57.789,8.677z"/>
	<path style="fill:#FFFFFF;" d="M26.29,15.27c3.045,3.046,3.041,7.975,0,11.021c-3.045,3.045-7.974,3.045-11.019,0.004
		c-3.047-3.05-3.047-7.984,0-11.025C18.316,12.229,23.245,12.229,26.29,15.27z"/>
	<path style="fill:#FFFFFF;" d="M8.677,42.209c4.303,0,7.793,3.488,7.793,7.791c0,4.309-3.49,7.791-7.793,7.791
		c-4.303,0-7.793-3.482-7.793-7.791C0.884,45.697,4.374,42.209,8.677,42.209z"/>
	<path style="fill:#FFFFFF;" d="M42.213,91.323c0-4.304,3.485-7.788,7.788-7.788c4.304,0,7.788,3.484,7.788,7.785
		c0,4.307-3.484,7.796-7.788,7.796C45.693,99.118,42.213,95.627,42.213,91.323z"/>
	<path style="fill:#FFFFFF;" d="M73.705,84.73c-3.041-3.041-3.045-7.977,0.005-11.021c3.04-3.046,7.974-3.041,11.017,0
		c3.051,3.045,3.045,7.979,0.006,11.021C81.684,87.773,76.75,87.773,73.705,84.73z"/>
	<path style="fill:#FFFFFF;" d="M91.322,57.791c-4.303,0-7.793-3.488-7.793-7.791c0-4.303,3.486-7.793,7.793-7.793
		c4.305,0,7.794,3.49,7.794,7.796C99.116,54.303,95.622,57.791,91.322,57.791z"/>
	<path style="fill:#FFFFFF;" d="M84.727,26.295c-3.043,3.041-7.977,3.041-11.017-0.004c-3.05-3.046-3.046-7.975-0.005-11.021
		c3.045-3.041,7.979-3.041,11.021,0C87.771,18.311,87.771,23.248,84.727,26.295z"/>
</g>
</svg>
