<?xml version="1.0" encoding="iso-8859-1"?>
<!-- Generator: Adobe Illustrator 15.1.0, SVG Export Plug-In . SVG Version: 6.00 Build 0)  -->
<!DOCTYPE svg PUBLIC "-//W3C//DTD SVG 1.1//EN" "http://www.w3.org/Graphics/SVG/1.1/DTD/svg11.dtd">
<svg version="1.1" id="&#xB808;&#xC774;&#xC5B4;_1" xmlns="http://www.w3.org/2000/svg" xmlns:xlink="http://www.w3.org/1999/xlink"
	 x="0px" y="0px" width="200px" height="200px" viewBox="0 0 200 200" style="enable-background:new 0 0 200 200;"
	 xml:space="preserve">
<g>
	<g>
		<path style="stroke:#000000;stroke-width:0.3;stroke-miterlimit:10;" d="M58.553,101.781h1.775h6.055
			c1.439,0,2.527,0.397,3.261,1.198c0.734,0.801,1.102,1.979,1.102,3.533c0,2.397-0.659,4.392-1.976,5.983
			c-1.298,1.591-2.928,2.387-4.889,2.387l-4.05,0.015l-1.354,7.773h-1.774h-1.789L58.553,101.781z M60.447,111.273h3.33
			c1.015,0,1.823-0.364,2.426-1.089c0.604-0.726,0.904-1.701,0.904-2.933c0-0.616-0.225-1.08-0.676-1.393s-1.113-0.469-1.985-0.469
			h-2.96L60.447,111.273z"/>
		<path style="stroke:#000000;stroke-width:0.3;stroke-miterlimit:10;" d="M73.374,121.254c-1.194-1.321-1.79-3.103-1.79-5.348
			v-0.057c0.009-4.292,0.989-7.807,2.941-10.54c1.951-2.732,4.457-4.097,7.518-4.097c2.037,0,3.649,0.663,4.838,1.989
			c1.189,1.326,1.783,3.116,1.783,5.371v0.058c-0.009,4.281-0.986,7.787-2.934,10.516s-4.451,4.093-7.511,4.093
			C76.184,123.239,74.568,122.576,73.374,121.254z M83.23,116.692c1.162-1.88,1.742-4.234,1.742-7.067
			c0-1.468-0.316-2.619-0.951-3.448c-0.634-0.829-1.509-1.241-2.625-1.241c-1.741,0-3.191,0.938-4.352,2.818
			c-1.159,1.881-1.738,4.244-1.738,7.087c0,1.468,0.313,2.614,0.939,3.438c0.626,0.824,1.499,1.236,2.619,1.236
			C80.613,119.516,82.067,118.573,83.23,116.692z"/>
		<path style="stroke:#000000;stroke-width:0.3;stroke-miterlimit:10;" d="M93.041,101.781h1.777h6.792
			c1.516,0,2.66,0.384,3.432,1.155c0.772,0.772,1.158,1.919,1.158,3.435c-0.009,2.084-0.672,3.789-1.989,5.115
			c-0.483,0.475-1.014,0.867-1.592,1.18l0.37,0.271c0.966,0.824,1.288,2.25,0.966,4.277l-0.369,2.358
			c-0.133,0.891-0.178,1.502-0.135,1.838c0.042,0.337,0.182,0.578,0.419,0.721l-0.085,0.525h-3.902
			c-0.057-0.389-0.064-0.938-0.021-1.644s0.125-1.379,0.249-2.022l0.22-1.223c0.228-1.184,0.188-2.018-0.121-2.501
			c-0.307-0.483-0.949-0.725-1.924-0.725h-3.903l-1.415,8.129h-1.775h-1.787L93.041,101.781z M94.99,111.046h4.291
			c0.976,0,1.751-0.331,2.329-0.994s0.862-1.559,0.853-2.687c0-0.653-0.189-1.146-0.569-1.478c-0.379-0.331-0.948-0.497-1.706-0.497
			h-4.211L94.99,111.046z"/>
		<path style="stroke:#000000;stroke-width:0.3;stroke-miterlimit:10;" d="M113.334,105.49h-5.201l0.355-1.848l0.355-1.861h13.851
			l-0.296,1.847l-0.296,1.862h-5.206l-2.984,17.181h-1.773h-1.789L113.334,105.49z"/>
	</g>
	<g>
		<path style="stroke:#000000;stroke-width:0.3;stroke-miterlimit:10;" d="M15.119,81.429c0,1.913-0.461,3.541-1.385,4.882
			c-0.924,1.34-2.66,2.905-5.209,4.696c-1.278,0.891-2.23,1.743-2.855,2.558h7.461l-0.611,3.567H0.938v-0.005
			c0.313-1.826,0.924-3.373,1.833-4.638s2.464-2.732,4.661-4.41c1.668-1.278,2.802-2.337,3.403-3.176
			c0.603-0.839,0.903-1.784,0.903-2.835c0.009-0.673-0.154-1.205-0.49-1.6c-0.334-0.393-0.785-0.589-1.352-0.589
			c-0.869,0-1.527,0.274-1.971,0.824c-0.444,0.55-0.826,1.563-1.148,3.041H3.496c0.283-2.208,1.056-3.97,2.315-5.286
			c1.261-1.317,2.8-1.976,4.618-1.976c1.459,0,2.61,0.445,3.453,1.336C14.707,78.701,15.119,79.904,15.119,81.429z"/>
		<path style="stroke:#000000;stroke-width:0.3;stroke-miterlimit:10;" d="M16.782,96.166c-0.749-0.985-1.122-2.435-1.122-4.348
			v-0.072c0-0.559,0.033-1.172,0.1-1.84s0.16-1.356,0.283-2.067c0.683-3.97,1.645-6.854,2.885-8.654
			c1.242-1.801,2.885-2.7,4.932-2.7c1.469,0,2.586,0.507,3.354,1.521s1.151,2.492,1.151,4.434c-0.01,0.568-0.046,1.187-0.106,1.854
			c-0.063,0.668-0.154,1.357-0.277,2.067c-0.701,3.96-1.672,6.841-2.913,8.641c-1.222,1.79-2.853,2.686-4.889,2.686
			C18.701,97.686,17.568,97.179,16.782,96.166z M22.937,92.734c0.545-1.142,1.093-3.271,1.643-6.388
			c0.142-0.796,0.244-1.502,0.306-2.117c0.062-0.616,0.098-1.18,0.106-1.691c0-0.967-0.138-1.677-0.412-2.131
			c-0.274-0.455-0.702-0.683-1.28-0.683c-0.939,0-1.68,0.571-2.227,1.712c-0.545,1.142-1.086,3.281-1.628,6.416
			c-0.132,0.806-0.231,1.514-0.298,2.125c-0.066,0.61-0.1,1.167-0.1,1.669c0,0.967,0.135,1.676,0.404,2.125
			c0.271,0.45,0.695,0.675,1.273,0.675C21.654,94.446,22.391,93.875,22.937,92.734z"/>
		<path style="stroke:#000000;stroke-width:0.3;stroke-miterlimit:10;" d="M35.029,82.836h-4.021l0.496-2.842
			c1.441,0.047,2.545-0.176,3.313-0.668c0.777-0.493,1.507-1.44,2.189-2.843h2.445l-3.592,20.648h-1.651h-1.666L35.029,82.836z"/>
		<path style="stroke:#000000;stroke-width:0.3;stroke-miterlimit:10;" d="M41.555,97.132c1.062-3.609,2.252-6.617,3.569-9.024
			c1.261-2.293,3.072-4.855,5.434-7.688h-8.354l0.625-3.566h11.938l-0.271,1.534l-0.271,1.549c-2.539,3.032-4.462,5.751-5.77,8.157
			c-1.297,2.415-2.467,5.429-3.51,9.038H41.555z"/>
		<path style="stroke:#000000;stroke-width:0.3;stroke-miterlimit:10;" d="M65.906,97.246c-0.578,0.048-1.279,0.071-2.104,0.071
			c-1.184,0-1.996-0.272-2.438-0.817c-0.439-0.545-0.551-1.428-0.334-2.65l1.621-9.265h-1.777l0.498-2.914h1.776l0.725-4.164h3.382
			l-0.725,4.164h2.074l-0.496,2.914h-2.075l-1.492,8.526c-0.075,0.426-0.03,0.717,0.135,0.873c0.166,0.156,0.515,0.235,1.044,0.235
			h0.697L65.906,97.246z"/>
		<path style="stroke:#000000;stroke-width:0.3;stroke-miterlimit:10;" d="M69.807,95.946c-0.951-1.066-1.428-2.513-1.428-4.342
			c0-2.928,0.779-5.383,2.338-7.368s3.488-2.978,5.791-2.978c1.629,0,2.918,0.535,3.865,1.605c0.947,1.071,1.42,2.521,1.42,4.35
			c0,2.927-0.776,5.381-2.33,7.36c-1.554,1.98-3.481,2.971-5.783,2.971C72.05,97.544,70.76,97.011,69.807,95.946z M77.146,92.201
			c0.791-1.279,1.187-2.832,1.187-4.661c0-0.909-0.211-1.613-0.635-2.109c-0.424-0.498-1.018-0.746-1.785-0.746
			c-1.127,0-2.085,0.639-2.873,1.918c-0.79,1.279-1.189,2.837-1.199,4.675c0.009,0.9,0.225,1.6,0.646,2.096
			c0.421,0.498,1.017,0.747,1.787,0.747C75.397,94.12,76.354,93.48,77.146,92.201z"/>
		<path style="stroke:#000000;stroke-width:0.3;stroke-miterlimit:10;" d="M102.441,81.429c0,1.913-0.462,3.541-1.386,4.882
			c-0.923,1.34-2.659,2.905-5.208,4.696c-1.279,0.891-2.23,1.743-2.855,2.558h7.46l-0.61,3.567H88.26v-0.005
			c0.313-1.826,0.924-3.373,1.833-4.638s2.463-2.732,4.661-4.41c1.667-1.278,2.802-2.337,3.403-3.176s0.902-1.784,0.902-2.835
			c0.009-0.673-0.153-1.205-0.489-1.6c-0.335-0.393-0.786-0.589-1.352-0.589c-0.87,0-1.527,0.274-1.971,0.824
			c-0.445,0.55-0.827,1.563-1.148,3.041h-3.282c0.284-2.208,1.056-3.97,2.316-5.286c1.26-1.317,2.8-1.976,4.618-1.976
			c1.459,0,2.61,0.445,3.453,1.336C102.029,78.701,102.441,79.904,102.441,81.429z"/>
		<path style="stroke:#000000;stroke-width:0.3;stroke-miterlimit:10;" d="M104.104,96.166c-0.749-0.985-1.123-2.435-1.123-4.348
			v-0.072c0-0.559,0.033-1.172,0.1-1.84s0.161-1.356,0.284-2.067c0.683-3.97,1.644-6.854,2.885-8.654
			c1.241-1.801,2.885-2.7,4.932-2.7c1.468,0,2.586,0.507,3.354,1.521s1.15,2.492,1.15,4.434c-0.009,0.568-0.045,1.187-0.106,1.854
			s-0.153,1.357-0.276,2.067c-0.701,3.96-1.673,6.841-2.914,8.641c-1.222,1.79-2.852,2.686-4.888,2.686
			C106.022,97.686,104.891,97.179,104.104,96.166z M110.259,92.734c0.545-1.142,1.092-3.271,1.643-6.388
			c0.142-0.796,0.244-1.502,0.306-2.117c0.062-0.616,0.097-1.18,0.106-1.691c0-0.967-0.138-1.677-0.412-2.131
			c-0.275-0.455-0.702-0.683-1.28-0.683c-0.939,0-1.681,0.571-2.227,1.712c-0.545,1.142-1.087,3.281-1.628,6.416
			c-0.133,0.806-0.232,1.514-0.299,2.125c-0.066,0.61-0.1,1.167-0.1,1.669c0,0.967,0.136,1.676,0.405,2.125
			c0.271,0.45,0.695,0.675,1.273,0.675C108.977,94.446,109.713,93.875,110.259,92.734z"/>
		<path style="stroke:#000000;stroke-width:0.3;stroke-miterlimit:10;" d="M128.986,81.429c0,1.913-0.46,3.541-1.384,4.882
			c-0.925,1.34-2.661,2.905-5.209,4.696c-1.279,0.891-2.231,1.743-2.856,2.558h7.461l-0.611,3.567h-11.582v-0.005
			c0.313-1.826,0.924-3.373,1.833-4.638c0.91-1.265,2.464-2.732,4.661-4.41c1.668-1.278,2.802-2.337,3.403-3.176
			s0.903-1.784,0.903-2.835c0.009-0.673-0.154-1.205-0.489-1.6c-0.335-0.393-0.787-0.589-1.353-0.589
			c-0.869,0-1.526,0.274-1.971,0.824s-0.826,1.563-1.147,3.041h-3.282c0.284-2.208,1.056-3.97,2.315-5.286
			c1.261-1.317,2.8-1.976,4.619-1.976c1.459,0,2.609,0.445,3.452,1.336C128.574,78.701,128.986,79.904,128.986,81.429z"/>
		<path style="stroke:#000000;stroke-width:0.3;stroke-miterlimit:10;" d="M130.648,96.166c-0.748-0.985-1.122-2.435-1.122-4.348
			v-0.072c0-0.559,0.033-1.172,0.099-1.84c0.066-0.668,0.161-1.356,0.284-2.067c0.683-3.97,1.645-6.854,2.885-8.654
			c1.241-1.801,2.885-2.7,4.932-2.7c1.469,0,2.586,0.507,3.354,1.521s1.151,2.492,1.151,4.434c-0.01,0.568-0.043,1.187-0.104,1.854
			s-0.156,1.357-0.279,2.067c-0.701,3.96-1.672,6.841-2.913,8.641c-1.223,1.79-2.852,2.686-4.889,2.686
			C132.567,97.686,131.435,97.179,130.648,96.166z M136.804,92.734c0.545-1.142,1.092-3.271,1.642-6.388
			c0.143-0.796,0.246-1.502,0.308-2.117c0.063-0.616,0.095-1.18,0.104-1.691c0-0.967-0.138-1.677-0.412-2.131
			c-0.274-0.455-0.701-0.683-1.278-0.683c-0.938,0-1.682,0.571-2.227,1.712c-0.545,1.142-1.087,3.281-1.63,6.416
			c-0.133,0.806-0.232,1.514-0.298,2.125c-0.066,0.61-0.1,1.167-0.1,1.669c0,0.967,0.137,1.676,0.407,2.125
			c0.27,0.45,0.693,0.675,1.271,0.675C135.522,94.446,136.257,93.875,136.804,92.734z"/>
	</g>
	<g>
		<path d="M122.616,122.482v-20.85h13.098v1.679h-11.179v7.528h10.161v1.682h-10.161v9.961H122.616z"/>
		<path d="M137.848,107.772c0.413-1.334,1.021-2.501,1.82-3.505c0.801-1.004,1.789-1.786,2.965-2.345
			c1.176-0.561,2.498-0.842,3.967-0.842c1.542,0,2.916,0.281,4.121,0.842c1.203,0.559,2.209,1.341,3.02,2.345
			c0.81,1.004,1.416,2.171,1.821,3.505c0.404,1.331,0.606,2.769,0.606,4.314c0,1.524-0.202,2.948-0.606,4.271
			c-0.405,1.321-1.008,2.486-1.808,3.49s-1.797,1.786-2.992,2.345c-1.196,0.561-2.555,0.839-4.079,0.839s-2.883-0.278-4.078-0.839
			c-1.195-0.559-2.188-1.341-2.979-2.345c-0.79-1.004-1.387-2.169-1.792-3.49c-0.405-1.322-0.605-2.746-0.605-4.271
			C137.228,110.541,137.434,109.104,137.848,107.772z M150.07,120.613c0.959-0.49,1.75-1.167,2.371-2.026
			c0.622-0.858,1.078-1.843,1.369-2.953c0.292-1.11,0.438-2.293,0.438-3.547c0-2.896-0.678-5.176-2.033-6.834
			c-1.354-1.662-3.207-2.492-5.561-2.492c-1.261,0-2.366,0.251-3.317,0.753c-0.949,0.502-1.734,1.188-2.356,2.057
			c-0.621,0.868-1.081,1.857-1.382,2.968c-0.302,1.109-0.451,2.293-0.451,3.549c0,1.254,0.149,2.437,0.451,3.547
			c0.301,1.11,0.761,2.1,1.382,2.968c0.622,0.869,1.412,1.546,2.372,2.028c0.959,0.481,2.079,0.724,3.358,0.724
			C147.991,121.354,149.11,121.106,150.07,120.613z"/>
		<path d="M158.509,122.482v-20.85h1.919v19.169h10.896v1.681H158.509z"/>
		<path d="M174.424,122.482v-20.85h1.921v20.85H174.424z"/>
		<path d="M180.341,107.772c0.413-1.334,1.02-2.501,1.819-3.505c0.799-1.004,1.787-1.786,2.964-2.345
			c1.176-0.561,2.499-0.842,3.967-0.842c1.542,0,2.917,0.281,4.122,0.842c1.203,0.559,2.209,1.341,3.02,2.345
			c0.808,1.004,1.414,2.171,1.818,3.505c0.405,1.331,0.611,2.769,0.611,4.314c0,1.524-0.206,2.948-0.611,4.271
			c-0.404,1.321-1.006,2.486-1.805,3.49s-1.798,1.786-2.992,2.345c-1.195,0.561-2.555,0.839-4.078,0.839
			c-1.525,0-2.886-0.278-4.08-0.839c-1.194-0.559-2.188-1.341-2.977-2.345c-0.791-1.004-1.389-2.169-1.794-3.49
			c-0.404-1.322-0.607-2.746-0.607-4.271C179.718,110.541,179.926,109.104,180.341,107.772z M192.562,120.613
			c0.96-0.49,1.751-1.167,2.371-2.026c0.622-0.858,1.077-1.843,1.369-2.953s0.439-2.293,0.439-3.547
			c0-2.896-0.679-5.176-2.034-6.834c-1.354-1.662-3.209-2.492-5.561-2.492c-1.259,0-2.366,0.251-3.315,0.753
			c-0.951,0.502-1.737,1.188-2.357,2.057c-0.621,0.868-1.083,1.857-1.385,2.968c-0.301,1.109-0.45,2.293-0.45,3.549
			c0,1.254,0.149,2.437,0.45,3.547c0.302,1.11,0.764,2.1,1.385,2.968c0.62,0.869,1.411,1.546,2.371,2.028
			c0.96,0.481,2.079,0.724,3.358,0.724C190.483,121.354,191.604,121.106,192.562,120.613z"/>
	</g>
</g>
</svg>
