<?xml version="1.0" encoding="utf-8"?>
<!-- Generator: Adobe Illustrator 19.0.0, SVG Export Plug-In . SVG Version: 6.00 Build 0)  -->
<svg version="1.1" id="Layer_1" xmlns="http://www.w3.org/2000/svg" xmlns:xlink="http://www.w3.org/1999/xlink" x="0px" y="0px"
	 viewBox="0 0 96 96" style="enable-background:new 0 0 96 96;" xml:space="preserve">
<style type="text/css">
	.st0{fill:#333333;}
</style>
<g id="XMLID_6_">
	<path id="XMLID_11_" class="st0" d="M24.4,48c0-5,4.1-9,9-9h11.7v-5.5H33.4c-8.1,0-14.6,6.5-14.6,14.6c0,8,6.5,14.6,14.6,14.6h11.7
		V57H33.4C28.4,57,24.4,53,24.4,48z M36.3,50.9h23.3v-5.8H36.3V50.9z M62.6,33.4H50.9V39h11.7c5,0,9,4.1,9,9s-4.1,9-9,9H50.9v5.5
		h11.7c8,0,14.6-6.5,14.6-14.6C77.2,39.9,70.6,33.4,62.6,33.4z"/>
</g>
</svg>
